<svg viewBox="0 0 201 56" fill="none" xmlns="http://www.w3.org/2000/svg">
<path d="M57.3316 32.8052C52.7806 31.2693 45.3127 28.7789 45.3127 23.1661C45.3127 19.1967 50.3929 14.4606 52.3901 9.37836C54.403 4.25366 49.1572 2.51555 45.3736 6.38884C42.8112 9.01203 38.1745 14.1982 33.3559 13.4656C30.6039 13.0476 26.1458 8.64112 22.3739 3.88733C16.5178 -3.49424 12.2474 0.776128 15.602 7.24252C18.1643 12.1801 19.3843 18.5288 18.2252 20.8471C17.066 23.1655 15.2186 26.3159 4.92603 28.595C-3.61472 30.4856 0.716492 35.6103 4.74286 35.0006C6.0224 34.8063 19.3235 33.8584 21.8244 36.952C25.4242 41.4062 25.3804 46.2142 25.1796 48.6052C24.4475 57.3285 31.9514 56.9013 32.2569 51.0446C32.3139 49.9404 34.2685 39.9415 38.4178 38.295C42.5659 36.6478 44.8293 36.1087 54.4618 38.4775C61.9075 40.3085 62.0292 34.3909 57.3316 32.8052ZM2.73393 32.732C2.242 32.732 1.8567 32.3362 1.8567 31.8567C1.8567 31.3765 2.24134 30.9847 2.73393 30.9847C3.21474 30.9847 3.60397 31.3765 3.60397 31.8567C3.60397 32.3362 3.21474 32.732 2.73393 32.732ZM5.84513 32.4873C5.3532 32.4873 4.96789 32.0928 4.96789 31.6127C4.96789 31.1325 5.35254 30.74 5.84513 30.74C6.32594 30.74 6.71516 31.1325 6.71516 31.6127C6.71516 32.0928 6.32594 32.4873 5.84513 32.4873ZM10.6957 31.4812C10.0828 31.4812 9.60394 30.9906 9.60394 30.3927C9.60394 29.7954 10.0828 29.3081 10.6957 29.3081C11.2943 29.3081 11.7784 29.7954 11.7784 30.3927C11.7784 30.9906 11.2943 31.4812 10.6957 31.4812ZM13.196 30.413C12.8067 30.413 12.5025 30.1009 12.5025 29.7222C12.5025 29.3421 12.8067 29.0333 13.196 29.0333C13.576 29.0333 13.8835 29.3421 13.8835 29.7222C13.8828 30.1016 13.576 30.413 13.196 30.413ZM18.3324 24.1808C18.4685 24.1808 18.5784 24.3005 18.5784 24.445C18.5784 24.5916 18.4685 24.7113 18.3324 24.7113C18.1951 24.7113 18.0865 24.5916 18.0865 24.445C18.0865 24.3005 18.1951 24.1808 18.3324 24.1808ZM17.7836 26.2302C17.8771 26.2302 17.953 26.312 17.953 26.4114C17.953 26.5122 17.8771 26.5946 17.7836 26.5946C17.6887 26.5946 17.6148 26.5128 17.6148 26.4114C17.6148 26.3127 17.6887 26.2302 17.7836 26.2302ZM17.6495 29.5285C17.1405 29.5285 16.7422 29.121 16.7422 28.6251C16.7422 28.1267 17.1399 27.723 17.6495 27.723C18.1473 27.723 18.5496 28.1267 18.5496 28.6251C18.5496 29.121 18.1473 29.5285 17.6495 29.5285ZM18.4698 31.7671C18.3756 31.7671 18.301 31.684 18.301 31.5846C18.301 31.4845 18.3756 31.4034 18.4698 31.4034C18.5627 31.4034 18.6386 31.4845 18.6386 31.5846C18.6386 31.684 18.5627 31.7671 18.4698 31.7671ZM43.6695 11.891C44.1496 11.891 44.5388 12.2809 44.5388 12.7617C44.5388 13.2412 44.1496 13.6343 43.6695 13.6343C43.1775 13.6343 42.7929 13.2412 42.7929 12.7617C42.7929 12.2802 43.1775 11.891 43.6695 11.891ZM41.3295 22.2032C41.3295 22.4197 41.1542 22.597 40.937 22.597C40.7153 22.597 40.5419 22.4197 40.5419 22.2032C40.5419 21.9867 40.7159 21.8107 40.937 21.8107C41.1542 21.8107 41.3295 21.9867 41.3295 22.2032ZM41.1006 27.3737C41.1006 27.5902 40.9252 27.7675 40.7074 27.7675C40.4863 27.7675 40.3123 27.5902 40.3123 27.3737C40.3123 27.1572 40.4863 26.9812 40.7074 26.9812C40.9252 26.9812 41.1006 27.1572 41.1006 27.3737ZM41.0096 25.9457C41.0096 25.8005 41.1182 25.6814 41.2556 25.6814C41.391 25.6814 41.5016 25.8011 41.5016 25.9457C41.5016 26.0922 41.391 26.2119 41.2556 26.2119C41.1182 26.2119 41.0096 26.0929 41.0096 25.9457ZM39.8092 19.6409C39.8092 19.4243 39.9833 19.2484 40.2044 19.2484C40.4215 19.2484 40.5969 19.4243 40.5969 19.6409C40.5969 19.8574 40.4215 20.0347 40.2044 20.0347C39.9833 20.0347 39.8092 19.8574 39.8092 19.6409ZM40.0029 23.3016C40.0029 23.5181 39.8276 23.6954 39.6104 23.6954C39.3886 23.6954 39.2153 23.5181 39.2153 23.3016C39.2153 23.085 39.3893 22.9091 39.6104 22.9091C39.8282 22.9091 40.0029 23.085 40.0029 23.3016ZM39.9119 17.9937C39.9119 17.8485 40.0205 17.7294 40.1579 17.7294C40.2933 17.7294 40.4039 17.8491 40.4039 17.9937C40.4039 18.1402 40.2933 18.2599 40.1579 18.2599C40.0205 18.2599 39.9119 18.1402 39.9119 17.9937ZM40.2227 15.0931C40.7205 15.0931 41.1228 15.4974 41.1228 15.9952C41.1228 16.4911 40.7205 16.8986 40.2227 16.8986C39.7137 16.8986 39.3147 16.4911 39.3147 15.9952C39.3147 15.4974 39.7137 15.0931 40.2227 15.0931ZM39.5188 21.0558C39.7366 21.0558 39.9119 21.2318 39.9119 21.4483C39.9119 21.6655 39.7366 21.8428 39.5188 21.8428C39.297 21.8428 39.1237 21.6655 39.1237 21.4483C39.1237 21.2318 39.297 21.0558 39.5188 21.0558ZM38.2092 16.8633C38.707 16.8633 39.1093 17.2669 39.1093 17.7654C39.1093 18.2619 38.707 18.6688 38.2092 18.6688C37.7002 18.6688 37.3018 18.2612 37.3018 17.7654C37.3018 17.2669 37.7002 16.8633 38.2092 16.8633ZM37.6878 24.305C37.4229 24.305 37.2161 24.0937 37.2161 23.8354C37.2161 23.5763 37.4222 23.3663 37.6878 23.3663C37.9468 23.3663 38.1555 23.5757 38.1555 23.8354C38.1555 24.0937 37.9468 24.305 37.6878 24.305ZM38.1411 25.4289C38.1411 25.7625 37.871 26.036 37.536 26.036C37.1946 26.036 36.927 25.7625 36.927 25.4289C36.927 25.094 37.1939 24.8231 37.536 24.8231C37.871 24.8238 38.1411 25.0946 38.1411 25.4289ZM38.1385 22.5283C37.8526 22.5283 37.6283 22.2994 37.6283 22.0201C37.6283 21.7407 37.8533 21.5131 38.1385 21.5131C38.4191 21.5131 38.6448 21.7407 38.6448 22.0201C38.6448 22.2994 38.4185 22.5283 38.1385 22.5283ZM38.5807 20.63C38.359 20.63 38.1856 20.4527 38.1856 20.2355C38.1856 20.019 38.3596 19.843 38.5807 19.843C38.7979 19.843 38.9739 20.019 38.9739 20.2355C38.9739 20.4527 38.7979 20.63 38.5807 20.63ZM37.1376 19.4584C37.2731 19.4584 37.3836 19.5781 37.3836 19.7233C37.3836 19.8698 37.2731 19.9889 37.1376 19.9889C37.0003 19.9889 36.8917 19.8698 36.8917 19.7233C36.8917 19.5781 37.0003 19.4584 37.1376 19.4584ZM35.6278 15.6151C35.722 15.6151 35.7973 15.6969 35.7973 15.7964C35.7973 15.8971 35.722 15.9795 35.6278 15.9795C35.533 15.9795 35.4591 15.8977 35.4591 15.7964C35.4591 15.6976 35.533 15.6151 35.6278 15.6151ZM35.8588 17.5253C36.1178 17.5253 36.3265 17.7353 36.3265 17.9943C36.3265 18.2527 36.1178 18.464 35.8588 18.464C35.5932 18.464 35.3865 18.2527 35.3865 17.9943C35.3871 17.7353 35.5932 17.5253 35.8588 17.5253ZM34.1632 16.5853C34.2992 16.5853 34.4091 16.705 34.4091 16.8496C34.4091 16.9961 34.2992 17.1158 34.1632 17.1158C34.0258 17.1158 33.9172 16.9961 33.9172 16.8496C33.9172 16.705 34.0258 16.5853 34.1632 16.5853ZM34.3019 17.853C34.5197 17.853 34.695 18.029 34.695 18.2455C34.695 18.4621 34.5197 18.64 34.3019 18.64C34.0801 18.64 33.9067 18.4627 33.9067 18.2455C33.9067 18.0284 34.0801 17.853 34.3019 17.853ZM35.1915 19.3027C36.0426 19.3027 36.7308 19.9935 36.7308 20.8445C36.7308 21.693 36.0426 22.3897 35.1915 22.3897C34.3208 22.3897 33.6405 21.6936 33.6405 20.8445C33.6405 19.9935 34.3208 19.3027 35.1915 19.3027ZM34.5472 24.7813C34.5472 24.3639 34.8841 24.0224 35.3099 24.0224C35.7299 24.0224 36.0668 24.3633 36.0668 24.7813C36.0668 25.1993 35.7292 25.5414 35.3099 25.5414C34.8841 25.5414 34.5472 25.1986 34.5472 24.7813ZM35.1824 26.9622C35.1824 27.2206 34.9737 27.4319 34.7146 27.4319C34.4497 27.4319 34.2423 27.2206 34.2423 26.9622C34.2423 26.7032 34.449 26.4932 34.7146 26.4932C34.9737 26.4932 35.1824 26.7032 35.1824 26.9622ZM35.9274 23.6496C35.7057 23.6496 35.5323 23.4723 35.5323 23.2558C35.5323 23.0386 35.7063 22.8633 35.9274 22.8633C36.1446 22.8633 36.3199 23.0392 36.3199 23.2558C36.3193 23.4723 36.1446 23.6496 35.9274 23.6496ZM33.5967 22.7069C33.5967 22.9235 33.4213 23.1007 33.2035 23.1007C32.9818 23.1007 32.8084 22.9235 32.8084 22.7069C32.8084 22.4897 32.9818 22.3144 33.2035 22.3144C33.422 22.3144 33.5967 22.4897 33.5967 22.7069ZM32.9589 24.1938C33.25 24.1938 33.4855 24.43 33.4855 24.7211C33.4855 25.0122 33.2506 25.2477 32.9589 25.2477C32.6691 25.2477 32.4323 25.0115 32.4323 24.7211C32.4323 24.4306 32.6684 24.1938 32.9589 24.1938ZM32.5618 20.923C32.5618 20.7876 32.671 20.6784 32.8077 20.6784C32.9438 20.6784 33.0531 20.7876 33.0531 20.923C33.0531 21.0584 32.9438 21.169 32.8077 21.169C32.671 21.169 32.5618 21.0578 32.5618 20.923ZM32.4722 25.6814C33.0531 25.6814 33.5221 26.1537 33.5221 26.7346C33.5221 27.3155 33.0524 27.7871 32.4722 27.7871C31.8919 27.7871 31.4203 27.3148 31.4203 26.7346C31.4196 26.1531 31.8913 25.6814 32.4722 25.6814ZM32.7005 17.4645C32.9183 17.4645 33.0936 17.6404 33.0936 17.857C33.0936 18.0735 32.9183 18.2508 32.7005 18.2508C32.4794 18.2508 32.3053 18.0735 32.3053 17.857C32.306 17.6398 32.4794 17.4645 32.7005 17.4645ZM32.5179 19.1116C32.7351 19.1116 32.9104 19.2876 32.9104 19.5041C32.9104 19.7207 32.7351 19.8979 32.5179 19.8979C32.2962 19.8979 32.1228 19.7207 32.1228 19.5041C32.1222 19.287 32.2962 19.1116 32.5179 19.1116ZM31.3117 24.4699C30.895 24.4699 30.5561 24.131 30.5561 23.7143C30.5561 23.2976 30.8956 22.9588 31.3117 22.9588C31.7303 22.9588 32.0666 23.297 32.0666 23.7143C32.0666 24.1317 31.7303 24.4699 31.3117 24.4699ZM28.6198 25.4524C28.6198 24.863 29.098 24.3848 29.6874 24.3848C30.2774 24.3848 30.7543 24.863 30.7543 25.4524C30.7543 26.0418 30.2774 26.52 29.6874 26.52C29.098 26.52 28.6198 26.0418 28.6198 25.4524ZM29.4218 27.2363C29.4218 27.3829 29.3126 27.5026 29.1765 27.5026C29.0391 27.5026 28.9305 27.3829 28.9305 27.2363C28.9305 27.0911 29.0391 26.9721 29.1765 26.9721C29.3126 26.9721 29.4218 27.0911 29.4218 27.2363ZM30.0289 22.3864C30.0289 22.251 30.1375 22.1411 30.2755 22.1411C30.4115 22.1411 30.5208 22.251 30.5208 22.3864C30.5208 22.5218 30.4115 22.6323 30.2755 22.6323C30.1375 22.6323 30.0289 22.5218 30.0289 22.3864ZM30.5339 27.4424C30.9525 27.4424 31.2888 27.7806 31.2888 28.198C31.2888 28.6153 30.9519 28.9535 30.5339 28.9535C30.1172 28.9535 29.7783 28.6153 29.7783 28.198C29.7783 27.7806 30.1172 27.4424 30.5339 27.4424ZM30.5594 21.1507C30.5594 20.7706 30.8655 20.4618 31.2535 20.4618C31.6348 20.4618 31.9423 20.7713 31.9423 21.1507C31.9423 21.5314 31.6348 21.8421 31.2535 21.8421C30.8649 21.8421 30.5594 21.5307 30.5594 21.1507ZM31.6028 15.5883C31.82 15.5883 31.9953 15.7643 31.9953 15.9808C31.9953 16.1974 31.82 16.3746 31.6028 16.3746C31.381 16.3746 31.2077 16.1974 31.2077 15.9808C31.2077 15.7636 31.3817 15.5883 31.6028 15.5883ZM30.6189 17.3042C30.8361 17.3042 31.0114 17.4802 31.0114 17.6967C31.0114 17.9139 30.8361 18.0912 30.6189 18.0912C30.3972 18.0912 30.2238 17.9139 30.2238 17.6967C30.2238 17.4795 30.3978 17.3042 30.6189 17.3042ZM29.9098 19.2484C30.1276 19.2484 30.3023 19.4243 30.3023 19.6409C30.3023 19.8574 30.127 20.0347 29.9098 20.0347C29.688 20.0347 29.5147 19.8574 29.5147 19.6409C29.5147 19.4243 29.688 19.2484 29.9098 19.2484ZM28.9946 22.9176C28.7729 22.9176 28.5995 22.7403 28.5995 22.5238C28.5995 22.3072 28.7735 22.1313 28.9946 22.1313C29.2125 22.1313 29.3871 22.3072 29.3871 22.5238C29.3871 22.7403 29.2125 22.9176 28.9946 22.9176ZM29.1307 15.8533C29.2668 15.8533 29.3767 15.973 29.3767 16.1175C29.3767 16.2641 29.2668 16.3838 29.1307 16.3838C28.994 16.3838 28.8854 16.2641 28.8854 16.1175C28.8847 15.973 28.9933 15.8533 29.1307 15.8533ZM28.4458 17.1897C28.6636 17.1897 28.8383 17.3657 28.8383 17.5822C28.8383 17.7987 28.663 17.976 28.4458 17.976C28.224 17.976 28.0507 17.7987 28.0507 17.5822C28.0507 17.3657 28.224 17.1897 28.4458 17.1897ZM27.1172 14.664C27.2532 14.664 27.3631 14.7837 27.3631 14.9283C27.3631 15.0748 27.2532 15.1945 27.1172 15.1945C26.9798 15.1945 26.8712 15.0748 26.8712 14.9283C26.8712 14.7831 26.9798 14.664 27.1172 14.664ZM27.3775 18.0846C27.3775 18.1854 27.3017 18.2678 27.2088 18.2678C27.1146 18.2678 27.04 18.1854 27.04 18.0846C27.04 17.9852 27.1146 17.9028 27.2088 17.9028C27.3017 17.9028 27.3775 17.9852 27.3775 18.0846ZM27.2304 18.8447C28.0814 18.8447 28.7689 19.5355 28.7689 20.3866C28.7689 21.2351 28.0814 21.9311 27.2304 21.9311C26.3597 21.9311 25.6787 21.2351 25.6787 20.3866C25.6787 19.5355 26.3597 18.8447 27.2304 18.8447ZM28.5982 23.8216C28.5982 23.957 28.489 24.0676 28.3529 24.0676C28.2155 24.0676 28.1069 23.957 28.1069 23.8216C28.1069 23.6862 28.2155 23.577 28.3529 23.577C28.489 23.577 28.5982 23.6862 28.5982 23.8216ZM26.8908 24.8545C26.4898 24.8545 26.1726 24.5333 26.1726 24.1402C26.1726 23.747 26.4892 23.4278 26.8908 23.4278C27.2853 23.4278 27.6019 23.747 27.6019 24.1402C27.6026 24.5333 27.2853 24.8545 26.8908 24.8545ZM27.3167 30.0898C27.3167 30.2259 27.2075 30.3358 27.0714 30.3358C26.9347 30.3358 26.8254 30.2259 26.8254 30.0898C26.8254 29.955 26.9347 29.8451 27.0714 29.8451C27.2075 29.8451 27.3167 29.955 27.3167 30.0898ZM26.0483 22.7527C26.0483 22.6173 26.1569 22.5074 26.2942 22.5074C26.4303 22.5074 26.5396 22.6173 26.5396 22.7527C26.5396 22.8881 26.4303 22.9987 26.2942 22.9987C26.1562 22.9987 26.0483 22.8875 26.0483 22.7527ZM27.7138 26.0203C27.9316 26.0203 28.1063 26.1962 28.1063 26.4128C28.1063 26.6293 27.931 26.8066 27.7138 26.8066C27.492 26.8066 27.3187 26.6293 27.3187 26.4128C27.3187 26.1962 27.492 26.0203 27.7138 26.0203ZM26.4506 17.155C26.4506 17.6509 26.0476 18.0584 25.5505 18.0584C25.0415 18.0584 24.6431 17.6509 24.6431 17.155C24.6431 16.6566 25.0415 16.253 25.5505 16.253C26.0483 16.253 26.4506 16.6572 26.4506 17.155ZM25.5897 22.1574C25.5897 22.374 25.4144 22.5512 25.1972 22.5512C24.9755 22.5512 24.8021 22.374 24.8021 22.1574C24.8021 21.9409 24.9761 21.7649 25.1972 21.7649C25.4144 21.7649 25.5897 21.9409 25.5897 22.1574ZM23.4585 21.4908C23.6756 21.4908 23.851 21.6668 23.851 21.8833C23.851 22.0999 23.6756 22.2778 23.4585 22.2778C23.2367 22.2778 23.0633 22.1005 23.0633 21.8833C23.0633 21.6662 23.2367 21.4908 23.4585 21.4908ZM23.045 18.0859C23.045 17.9407 23.1536 17.8216 23.291 17.8216C23.4271 17.8216 23.5363 17.9407 23.5363 18.0859C23.5363 18.2331 23.4271 18.3522 23.291 18.3522C23.1536 18.3522 23.045 18.2331 23.045 18.0859ZM23.658 20.3277C23.658 20.1112 23.832 19.9352 24.0531 19.9352C24.2703 19.9352 24.4456 20.1112 24.4456 20.3277C24.4456 20.5443 24.2703 20.7215 24.0531 20.7215C23.8313 20.7215 23.658 20.5443 23.658 20.3277ZM24.3736 23.5724C24.5915 23.5724 24.7661 23.7484 24.7661 23.9649C24.7661 24.1814 24.5908 24.3587 24.3736 24.3587C24.1525 24.3587 23.9785 24.1814 23.9785 23.9649C23.9785 23.7484 24.1519 23.5724 24.3736 23.5724ZM24.2997 13.9045C24.7975 13.9045 25.1998 14.3081 25.1998 14.8066C25.1998 15.3031 24.7975 15.71 24.2997 15.71C23.7908 15.71 23.3924 15.3025 23.3924 14.8066C23.3924 14.3081 23.7908 13.9045 24.2997 13.9045ZM22.5603 11.159C22.9907 11.159 23.3387 11.5083 23.3387 11.9388C23.3387 12.3679 22.9907 12.7198 22.5603 12.7198C22.12 12.7198 21.7759 12.3672 21.7759 11.9388C21.7759 11.509 22.12 11.159 22.5603 11.159ZM22.5433 24.3816C22.3215 24.3816 22.1482 24.2043 22.1482 23.9878C22.1482 23.7706 22.3222 23.5953 22.5433 23.5953C22.7605 23.5953 22.9358 23.7712 22.9358 23.9878C22.9358 24.2043 22.7605 24.3816 22.5433 24.3816ZM22.7415 28.1064C22.7415 28.2418 22.6322 28.3523 22.4962 28.3523C22.3588 28.3523 22.2502 28.2418 22.2502 28.1064C22.2502 27.971 22.3588 27.8611 22.4962 27.8611C22.6322 27.8611 22.7415 27.971 22.7415 28.1064ZM21.3076 23.1936C21.4436 23.1936 21.5522 23.3035 21.5522 23.4389C21.5522 23.5743 21.443 23.6849 21.3076 23.6849C21.1695 23.6849 21.0616 23.5743 21.0616 23.4389C21.0616 23.3035 21.1695 23.1936 21.3076 23.1936ZM21.0008 17.6738C21.0008 17.5744 21.0747 17.4919 21.1695 17.4919C21.2631 17.4919 21.339 17.5744 21.339 17.6738C21.339 17.7745 21.2631 17.857 21.1695 17.857C21.0747 17.857 21.0008 17.7745 21.0008 17.6738ZM21.3239 21.9749C21.3239 21.7584 21.4979 21.5824 21.719 21.5824C21.9369 21.5824 22.1115 21.7584 22.1115 21.9749C22.1115 22.1914 21.9362 22.3687 21.719 22.3687C21.4979 22.3687 21.3239 22.1914 21.3239 21.9749ZM21.8734 19.8698C21.8734 19.6526 22.0474 19.4773 22.2685 19.4773C22.4864 19.4773 22.661 19.6533 22.661 19.8698C22.661 20.0863 22.4857 20.2636 22.2685 20.2636C22.0468 20.2636 21.8734 20.0863 21.8734 19.8698ZM21.0668 7.86594C21.6137 7.86594 22.0572 8.31012 22.0572 8.85896C22.0572 9.40519 21.6137 9.85394 21.0668 9.85394C20.5062 9.85394 20.0679 9.40519 20.0679 8.85896C20.0679 8.31012 20.5062 7.86594 21.0668 7.86594ZM20.1183 24.0159C19.8965 24.0159 19.7232 23.8386 19.7232 23.6221C19.7232 23.4049 19.8972 23.2296 20.1183 23.2296C20.3355 23.2296 20.5108 23.4056 20.5108 23.6221C20.5108 23.8386 20.3355 24.0159 20.1183 24.0159ZM20.1791 25.635C20.1791 25.7704 20.0699 25.8809 19.9338 25.8809C19.7958 25.8809 19.6879 25.7704 19.6879 25.635C19.6879 25.4995 19.7964 25.3903 19.9338 25.3903C20.0705 25.3903 20.1791 25.4995 20.1791 25.635ZM19.8252 20.3729C19.8252 20.2375 19.9338 20.1282 20.0712 20.1282C20.2073 20.1282 20.3165 20.2375 20.3165 20.3729C20.3165 20.5083 20.2073 20.6188 20.0712 20.6188C19.9338 20.6188 19.8252 20.5083 19.8252 20.3729ZM17.0385 3.29531C16.7873 3.29531 16.5904 3.09448 16.5904 2.84917C16.5904 2.60386 16.7873 2.40499 17.0385 2.40499C17.2838 2.40499 17.482 2.60451 17.482 2.84917C17.482 3.09383 17.2832 3.29531 17.0385 3.29531ZM18.3194 4.79007C18.0682 4.79007 17.8713 4.58924 17.8713 4.34393C17.8713 4.09862 18.0682 3.89975 18.3194 3.89975C18.5647 3.89975 18.7629 4.09927 18.7629 4.34393C18.7629 4.58859 18.5647 4.79007 18.3194 4.79007ZM19.0311 6.14353C19.0311 5.83084 19.2816 5.57703 19.6015 5.57703C19.9135 5.57703 20.1667 5.83084 20.1667 6.14353C20.1667 6.45557 19.9135 6.71134 19.6015 6.71134C19.281 6.71134 19.0311 6.45557 19.0311 6.14353ZM19.888 30.9252C19.7507 30.9252 19.6421 30.8048 19.6421 30.6596C19.6421 30.513 19.7507 30.3953 19.888 30.3953C20.0241 30.3953 20.134 30.5137 20.134 30.6596C20.134 30.8048 20.0241 30.9252 19.888 30.9252ZM20.518 28.7658C20.0091 28.7658 19.6107 28.3582 19.6107 27.8617C19.6107 27.3633 20.0091 26.9596 20.518 26.9596C21.0152 26.9596 21.4181 27.3633 21.4181 27.8617C21.4181 28.3582 21.0152 28.7658 20.518 28.7658ZM21.4894 33.9618C21.3946 33.9618 21.3206 33.8787 21.3206 33.7786C21.3206 33.6792 21.3952 33.5974 21.4894 33.5974C21.583 33.5974 21.6589 33.6792 21.6589 33.7786C21.6589 33.8787 21.583 33.9618 21.4894 33.9618ZM21.6281 26.0746C21.4063 26.0746 21.233 25.8973 21.233 25.6807C21.233 25.4636 21.407 25.2882 21.6281 25.2882C21.8453 25.2882 22.0206 25.4642 22.0206 25.6807C22.0206 25.8973 21.8453 26.0746 21.6281 26.0746ZM22.4059 32.0229C22.1841 32.0229 22.0108 31.8456 22.0108 31.6277C22.0108 31.4119 22.1848 31.2359 22.4059 31.2359C22.6231 31.2359 22.7984 31.4119 22.7984 31.6277C22.7984 31.8456 22.6231 32.0229 22.4059 32.0229ZM22.7539 25.3602C22.7539 25.2248 22.8625 25.1149 22.9999 25.1149C23.136 25.1149 23.2445 25.2248 23.2445 25.3602C23.2445 25.4956 23.1353 25.6062 22.9999 25.6062C22.8625 25.6062 22.7539 25.4956 22.7539 25.3602ZM23.3656 36.1133C23.2282 36.1133 23.1196 35.993 23.1196 35.8477C23.1196 35.7025 23.2282 35.5835 23.3656 35.5835C23.5016 35.5835 23.6109 35.7025 23.6109 35.8477C23.6109 35.993 23.5016 36.1133 23.3656 36.1133ZM23.3211 30.4215C23.0993 30.4215 22.926 30.2442 22.926 30.0263C22.926 29.8105 23.1 29.6345 23.3211 29.6345C23.5383 29.6345 23.7136 29.8105 23.7136 30.0263C23.7136 30.2448 23.5383 30.4215 23.3211 30.4215ZM23.5441 26.7627C23.5441 25.911 24.2251 25.2209 25.0958 25.2209C25.9475 25.2209 26.6344 25.911 26.6344 26.7627C26.6344 27.6112 25.9475 28.3072 25.0958 28.3072C24.2245 28.3072 23.5441 27.6112 23.5441 26.7627ZM24.9375 30.9873C24.9375 31.1234 24.8283 31.2333 24.6922 31.2333C24.5548 31.2333 24.4462 31.1234 24.4462 30.9873C24.4462 30.8532 24.5548 30.7433 24.6922 30.7433C24.8283 30.7433 24.9375 30.8532 24.9375 30.9873ZM24.4639 28.8475C24.6 28.8475 24.7092 28.9673 24.7092 29.1118C24.7092 29.2584 24.6 29.3781 24.4639 29.3781C24.3265 29.3781 24.2179 29.2584 24.2179 29.1118C24.2179 28.9673 24.3265 28.8475 24.4639 28.8475ZM24.2526 32.1779C24.2526 31.962 24.4266 31.7854 24.6477 31.7854C24.8649 31.7854 25.0402 31.962 25.0402 32.1779C25.0402 32.3951 24.8649 32.5723 24.6477 32.5723C24.4266 32.5717 24.2526 32.3951 24.2526 32.1779ZM25.0127 35.0889C24.876 35.0889 24.7668 34.9685 24.7668 34.8227C24.7668 34.6768 24.876 34.5584 25.0127 34.5584C25.1488 34.5584 25.2581 34.6774 25.2581 34.8227C25.2581 34.9685 25.1488 35.0889 25.0127 35.0889ZM25.2594 29.8438C25.2594 29.6273 25.4327 29.4513 25.6545 29.4513C25.8723 29.4513 26.047 29.6273 26.047 29.8438C26.047 30.061 25.8717 30.239 25.6545 30.239C25.4327 30.239 25.2594 30.061 25.2594 29.8438ZM26.0653 33.0015C25.9711 33.0015 25.8965 32.9197 25.8965 32.8183C25.8965 32.7202 25.9711 32.6371 26.0653 32.6371C26.1588 32.6371 26.2341 32.7202 26.2341 32.8183C26.2341 32.9197 26.1582 33.0015 26.0653 33.0015ZM26.414 28.7828C26.414 28.6376 26.5226 28.5185 26.6599 28.5185C26.796 28.5185 26.9052 28.6382 26.9052 28.7828C26.9052 28.9293 26.796 29.049 26.6599 29.049C26.5226 29.049 26.414 28.9293 26.414 28.7828ZM26.9811 31.0992C27.199 31.0992 27.3736 31.2751 27.3736 31.491C27.3736 31.7089 27.1983 31.8861 26.9811 31.8861C26.76 31.8861 26.586 31.7089 26.586 31.491C26.586 31.2751 26.76 31.0992 26.9811 31.0992ZM27.4194 33.8709C27.4194 34.088 27.2441 34.2653 27.0269 34.2653C26.8051 34.2653 26.6318 34.088 26.6318 33.8709C26.6318 33.655 26.8058 33.4784 27.0269 33.4784C27.2447 33.4784 27.4194 33.655 27.4194 33.8709ZM26.8431 38.117C26.7057 38.117 26.5971 37.998 26.5971 37.8514C26.5971 37.7069 26.7057 37.5872 26.8431 37.5872C26.9792 37.5872 27.0891 37.7075 27.0891 37.8514C27.0884 37.998 26.9785 38.117 26.8431 38.117ZM27.2775 36.4555C27.1833 36.4555 27.1087 36.3743 27.1087 36.2729C27.1087 36.1742 27.1833 36.0917 27.2775 36.0917C27.371 36.0917 27.4462 36.1742 27.4462 36.2729C27.4462 36.3743 27.371 36.4555 27.2775 36.4555ZM27.4626 28.7769C27.4626 28.3713 27.7897 28.0416 28.2024 28.0416C28.6093 28.0416 28.9364 28.3713 28.9364 28.7769C28.9364 29.1825 28.6093 29.5135 28.2024 29.5135C27.7897 29.5135 27.4626 29.1825 27.4626 28.7769ZM28.8108 34.228C28.6734 34.228 28.5648 34.109 28.5648 33.9624C28.5648 33.8179 28.6734 33.6982 28.8108 33.6982C28.9469 33.6982 29.0561 33.8185 29.0561 33.9624C29.0561 34.109 28.9462 34.228 28.8108 34.228ZM29.8509 38.1838C30.3487 38.1838 30.7511 38.5887 30.7511 39.0865C30.7511 39.5824 30.3487 39.9899 29.8509 39.9899C29.342 39.9899 28.9436 39.5824 28.9436 39.0865C28.9436 38.5893 29.342 38.1838 29.8509 38.1838ZM28.7513 51.6732C28.4661 51.6732 28.2437 51.4436 28.2437 51.1656C28.2437 50.8876 28.4661 50.6612 28.7513 50.6612C29.03 50.6612 29.2556 50.8876 29.2556 51.1656C29.2556 51.4436 29.03 51.6732 28.7513 51.6732ZM29.1784 47.8595C28.7559 47.8595 28.4255 47.5219 28.4255 47.1091C28.4255 46.6964 28.7559 46.3595 29.1784 46.3595C29.5919 46.3595 29.9262 46.6957 29.9262 47.1091C29.9262 47.5226 29.5919 47.8595 29.1784 47.8595ZM29.4846 44.5952C28.9933 44.5952 28.6093 44.202 28.6093 43.7232C28.6093 43.2417 28.9933 42.8512 29.4846 42.8512C29.9654 42.8512 30.354 43.2417 30.354 43.7232C30.354 44.2027 29.9654 44.5952 29.4846 44.5952ZM30.1859 41.9733C29.8143 41.9733 29.5232 41.6757 29.5232 41.3139C29.5232 40.9502 29.8136 40.6545 30.1859 40.6545C30.5489 40.6545 30.842 40.9502 30.842 41.3139C30.842 41.6757 30.5489 41.9733 30.1859 41.9733ZM29.9733 36.7878C29.4643 36.7878 29.0659 36.3802 29.0659 35.8837C29.0659 35.3859 29.4643 34.9816 29.9733 34.9816C30.4704 34.9816 30.8734 35.3859 30.8734 35.8837C30.8734 36.3802 30.4704 36.7878 29.9733 36.7878ZM31.2809 34.2738C31.1436 34.2738 31.035 34.1548 31.035 34.0082C31.035 33.8637 31.1436 33.7439 31.2809 33.7439C31.417 33.7439 31.5269 33.8643 31.5269 34.0082C31.5269 34.1548 31.417 34.2738 31.2809 34.2738ZM30.3115 33.2795C29.4401 33.2795 28.7598 32.5835 28.7598 31.7344C28.7598 30.8833 29.4408 30.1932 30.3115 30.1932C31.1619 30.1932 31.85 30.884 31.85 31.7344C31.85 32.5835 31.1625 33.2795 30.3115 33.2795ZM32.4251 37.6696C32.3302 37.6696 32.2556 37.5865 32.2556 37.4864C32.2556 37.3863 32.3302 37.3052 32.4251 37.3052C32.518 37.3052 32.5938 37.3863 32.5938 37.4864C32.5938 37.5865 32.518 37.6696 32.4251 37.6696ZM32.2596 33.916C32.2596 33.7001 32.4336 33.5242 32.6547 33.5242C32.8719 33.5242 33.0472 33.7001 33.0472 33.916C33.0472 34.1338 32.8719 34.3111 32.6547 34.3111C32.4336 34.3105 32.2596 34.1338 32.2596 33.916ZM32.9137 35.8392C32.8189 35.8392 32.7449 35.7562 32.7449 35.6561C32.7449 35.5566 32.8189 35.4749 32.9137 35.4749C33.0079 35.4749 33.0831 35.5566 33.0831 35.6561C33.0831 35.7562 33.0079 35.8392 32.9137 35.8392ZM33.1126 31.9771C32.8908 31.9771 32.7175 31.7998 32.7175 31.5826C32.7175 31.3667 32.8915 31.1901 33.1126 31.1901C33.3298 31.1901 33.5057 31.3667 33.5057 31.5826C33.5057 31.8004 33.3298 31.9771 33.1126 31.9771ZM33.2061 30.1016C32.8058 30.1016 32.4885 29.7797 32.4885 29.3866C32.4885 28.9934 32.8051 28.6742 33.2061 28.6742C33.5999 28.6742 33.9172 28.9941 33.9172 29.3866C33.9172 29.7791 33.5993 30.1016 33.2061 30.1016ZM33.9636 23.5305C33.9636 23.3853 34.0722 23.2662 34.2096 23.2662C34.345 23.2662 34.4556 23.3859 34.4556 23.5305C34.4556 23.677 34.345 23.7968 34.2096 23.7968C34.0722 23.7961 33.9636 23.677 33.9636 23.5305ZM34.623 34.9057C34.4013 34.9057 34.2279 34.7285 34.2279 34.5106C34.2279 34.2948 34.4019 34.1188 34.623 34.1188C34.8402 34.1188 35.0155 34.2948 35.0155 34.5106C35.0149 34.7285 34.8402 34.9057 34.623 34.9057ZM34.6682 32.938C34.4464 32.938 34.2731 32.7607 34.2731 32.5436C34.2731 32.3277 34.4471 32.1511 34.6682 32.1511C34.8854 32.1511 35.0613 32.3277 35.0613 32.5436C35.0613 32.7607 34.8854 32.938 34.6682 32.938ZM35.2615 31.1724C35.0397 31.1724 34.8664 30.9952 34.8664 30.7773C34.8664 30.5621 35.0404 30.3855 35.2615 30.3855C35.4787 30.3855 35.6547 30.5621 35.6547 30.7773C35.6547 30.9952 35.4787 31.1724 35.2615 31.1724ZM36.2055 33.4123C36.2055 33.2677 36.3141 33.148 36.4514 33.148C36.5875 33.148 36.6974 33.2684 36.6974 33.4123C36.6974 33.5601 36.5875 33.6785 36.4514 33.6785C36.3141 33.6792 36.2055 33.5601 36.2055 33.4123ZM36.7255 36.1042C36.5882 36.1042 36.4796 35.9851 36.4796 35.8379C36.4796 35.6934 36.5882 35.5736 36.7255 35.5736C36.8616 35.5736 36.9715 35.694 36.9715 35.8379C36.9715 35.9851 36.8616 36.1042 36.7255 36.1042ZM37.139 31.7945C36.9172 31.7945 36.7438 31.6173 36.7438 31.3994C36.7438 31.1836 36.9178 31.0076 37.139 31.0076C37.3561 31.0076 37.5315 31.1836 37.5315 31.3994C37.5315 31.6166 37.3561 31.7945 37.139 31.7945ZM36.9918 29.7712C36.1211 29.7712 35.4408 29.0752 35.4408 28.2267C35.4408 27.375 36.1211 26.6849 36.9918 26.6849C37.8435 26.6849 38.531 27.375 38.531 28.2267C38.5304 29.0752 37.8428 29.7712 36.9918 29.7712ZM38.6023 30.9795C38.4649 30.9795 38.3563 30.8604 38.3563 30.7139C38.3563 30.5693 38.4649 30.4496 38.6023 30.4496C38.7377 30.4496 38.8483 30.57 38.8483 30.7139C38.8483 30.8604 38.7377 30.9795 38.6023 30.9795ZM39.1505 33.2756C39.0556 33.2756 38.9817 33.1938 38.9817 33.0924C38.9817 32.9943 39.0556 32.9112 39.1505 32.9112C39.244 32.9112 39.3193 32.9943 39.3193 33.0924C39.3193 33.1938 39.244 33.2756 39.1505 33.2756ZM38.97 27.0126C38.7482 27.0126 38.5748 26.8353 38.5748 26.6188C38.5748 26.4023 38.7488 26.2263 38.97 26.2263C39.1871 26.2263 39.3624 26.4023 39.3624 26.6188C39.3624 26.8353 39.1871 27.0126 38.97 27.0126ZM39.5345 25.2686C39.5345 25.0521 39.7085 24.8761 39.9296 24.8761C40.1468 24.8761 40.3221 25.0521 40.3221 25.2686C40.3221 25.4858 40.1468 25.6631 39.9296 25.6631C39.7085 25.6631 39.5345 25.4858 39.5345 25.2686ZM40.7408 30.8696C40.2318 30.8696 39.8334 30.462 39.8334 29.9655C39.8334 29.467 40.2312 29.0641 40.7408 29.0641C41.2386 29.0641 41.6409 29.4677 41.6409 29.9655C41.6409 30.462 41.2386 30.8696 40.7408 30.8696ZM41.3485 24.519C41.1267 24.519 40.9534 24.3417 40.9534 24.1245C40.9534 23.9073 41.1274 23.732 41.3485 23.732C41.5657 23.732 41.7416 23.908 41.7416 24.1245C41.7416 24.341 41.5657 24.519 41.3485 24.519ZM41.758 20.3729C41.6638 20.3729 41.5892 20.2911 41.5892 20.1897C41.5892 20.0903 41.6638 20.0085 41.758 20.0085C41.8522 20.0085 41.9281 20.0903 41.9281 20.1897C41.9281 20.2911 41.8515 20.3729 41.758 20.3729ZM41.4198 14.5619C41.4198 14.1812 41.724 13.8731 42.1132 13.8731C42.4926 13.8731 42.8001 14.1812 42.8001 14.5619C42.8001 14.9407 42.4926 15.2521 42.1132 15.2521C41.724 15.2514 41.4198 14.9407 41.4198 14.5619ZM42.628 22.8541C42.7641 22.8541 42.874 22.9738 42.874 23.1184C42.874 23.2649 42.7641 23.384 42.628 23.384C42.4913 23.384 42.3821 23.2649 42.3821 23.1184C42.3821 22.9732 42.4913 22.8541 42.628 22.8541ZM42.4272 26.1851C42.4272 26.0857 42.5011 26.0032 42.596 26.0032C42.6902 26.0032 42.7654 26.085 42.7654 26.1851C42.7654 26.2858 42.6902 26.3683 42.596 26.3683C42.5018 26.3676 42.4272 26.2852 42.4272 26.1851ZM42.6117 28.5178C42.6117 28.3726 42.7203 28.2536 42.857 28.2536C42.9931 28.2536 43.103 28.3726 43.103 28.5178C43.103 28.6644 42.9931 28.7834 42.857 28.7834C42.7203 28.7834 42.6117 28.6644 42.6117 28.5178ZM43.6996 31.8155C43.1906 31.8155 42.7922 31.4079 42.7922 30.9121C42.7922 30.413 43.19 30.01 43.6996 30.01C44.1974 30.01 44.5997 30.413 44.5997 30.9121C44.5997 31.4079 44.1967 31.8155 43.6996 31.8155ZM50.0737 6.27829C50.4028 6.27829 50.669 6.54584 50.669 6.87554C50.669 7.20393 50.4028 7.4741 50.0737 7.4741C49.7349 7.4741 49.4725 7.20393 49.4725 6.87554C49.4725 6.54584 49.7349 6.27829 50.0737 6.27829ZM47.0541 8.84064C47.5179 8.84064 47.8934 9.21679 47.8934 9.68124C47.8934 10.1444 47.5179 10.5245 47.0541 10.5245C46.5785 10.5245 46.2076 10.1444 46.2076 9.68124C46.2083 9.21744 46.5792 8.84064 47.0541 8.84064ZM44.8358 11.3899C44.8358 11.1106 45.0589 10.8849 45.3448 10.8849C45.6234 10.8849 45.8491 11.1112 45.8491 11.3899C45.8491 11.6686 45.6228 11.8969 45.3448 11.8969C45.0589 11.8969 44.8358 11.6686 44.8358 11.3899ZM46.1088 32.6077C45.6686 32.6077 45.3245 32.2564 45.3245 31.8273C45.3245 31.3955 45.6686 31.0468 46.1088 31.0468C46.5393 31.0468 46.8873 31.3955 46.8873 31.8273C46.8879 32.2564 46.5393 32.6077 46.1088 32.6077ZM48.4579 33.3416C48.0517 33.3416 47.7344 33.0165 47.7344 32.6201C47.7344 32.223 48.0517 31.9012 48.4579 31.9012C48.8537 31.9012 49.1749 32.2224 49.1749 32.6201C49.1749 33.0165 48.8537 33.3416 48.4579 33.3416ZM50.7154 34.7736C50.2065 34.7736 49.8081 34.3661 49.8081 33.8702C49.8081 33.3711 50.2058 32.9675 50.7154 32.9675C51.212 32.9675 51.6149 33.3711 51.6149 33.8702C51.6149 34.3661 51.212 34.7736 50.7154 34.7736ZM54.0713 35.9321C53.5624 35.9321 53.164 35.5265 53.164 35.03C53.164 34.5309 53.5617 34.1279 54.0713 34.1279C54.5685 34.1279 54.9708 34.5309 54.9708 35.03C54.9708 35.5265 54.5685 35.9321 54.0713 35.9321ZM56.2954 36.604C55.9756 36.604 55.725 36.3482 55.725 36.0368C55.725 35.7221 55.9756 35.469 56.2954 35.469C56.6081 35.469 56.8613 35.7221 56.8613 36.0368C56.862 36.3488 56.6081 36.604 56.2954 36.604Z" fill="url(#paint0_linear_835_2533)"/>
<path d="M89.5637 20.1723C89.137 19.399 88.3504 18.7323 87.2037 18.1723C86.057 17.5856 84.9504 17.2923 83.8837 17.2923C83.0037 17.2923 82.2837 17.5323 81.7237 18.0123C81.1904 18.4656 80.9237 19.1723 80.9237 20.1323C80.9237 20.9856 81.2304 21.7056 81.8437 22.2923C82.4837 22.879 83.257 23.319 84.1637 23.6123C85.097 23.879 86.1104 24.2256 87.2037 24.6523C88.297 25.079 89.297 25.5323 90.2037 26.0123C91.137 26.4923 91.9104 27.239 92.5237 28.2523C93.1637 29.2656 93.4837 30.4923 93.4837 31.9323C93.4837 33.5056 93.177 34.8656 92.5637 36.0123C91.977 37.159 91.1637 38.0523 90.1237 38.6923C89.0837 39.3056 87.9637 39.759 86.7637 40.0523C85.5904 40.3456 84.3237 40.4923 82.9637 40.4923C80.5104 40.4923 78.3904 40.1456 76.6037 39.4523C74.8437 38.759 73.9637 37.8523 73.9637 36.7323C73.9637 35.9056 74.1904 35.239 74.6437 34.7323C75.097 34.2256 75.8704 33.679 76.9637 33.0923C77.6304 34.0256 78.6304 34.8123 79.9637 35.4523C81.297 36.0656 82.5904 36.3723 83.8437 36.3723C84.9104 36.3723 85.777 36.119 86.4437 35.6123C87.1104 35.1056 87.4437 34.319 87.4437 33.2523C87.4437 32.239 87.0037 31.4256 86.1237 30.8123C85.2704 30.199 84.2304 29.7056 83.0037 29.3323C81.777 28.959 80.5504 28.519 79.3237 28.0123C78.097 27.479 77.0437 26.6123 76.1637 25.4123C75.3104 24.2123 74.8837 22.6656 74.8837 20.7723C74.8837 19.4123 75.177 18.2256 75.7637 17.2123C76.3504 16.199 77.137 15.4123 78.1237 14.8523C79.137 14.2656 80.2304 13.8389 81.4037 13.5723C82.6037 13.3056 83.897 13.1723 85.2837 13.1723C87.4704 13.1723 89.3504 13.4923 90.9237 14.1323C92.497 14.7723 93.2837 15.6656 93.2837 16.8123C93.2837 17.5056 92.9504 18.1589 92.2837 18.7723C91.6437 19.3856 90.737 19.8523 89.5637 20.1723ZM105.919 20.6923C107.892 20.6923 109.599 21.1856 111.039 22.1723C112.479 23.159 113.199 24.6256 113.199 26.5723C113.199 30.519 110.372 32.4923 104.719 32.4923C104.212 32.4923 103.292 32.4656 101.959 32.4123C101.959 33.9323 102.332 35.039 103.079 35.7323C103.852 36.4256 104.799 36.7723 105.919 36.7723C107.892 36.7723 109.425 36.1323 110.519 34.8523C111.132 35.1456 111.625 35.5456 111.999 36.0523C112.399 36.5323 112.599 37.0256 112.599 37.5323C112.599 38.3323 112.119 38.9723 111.159 39.4523C110.225 39.9323 109.305 40.2256 108.399 40.3323C107.519 40.439 106.665 40.4923 105.839 40.4923C102.905 40.4923 100.505 39.6923 98.6387 38.0923C96.772 36.4656 95.8387 33.999 95.8387 30.6923C95.8387 28.5056 96.3454 26.639 97.3587 25.0923C98.3987 23.519 99.652 22.399 101.119 21.7323C102.612 21.039 104.212 20.6923 105.919 20.6923ZM105.599 24.4923C104.639 24.4923 103.799 24.9323 103.079 25.8123C102.359 26.6656 101.985 27.9323 101.959 29.6123C102.705 29.559 103.225 29.519 103.519 29.4923C103.839 29.439 104.279 29.3456 104.839 29.2123C105.425 29.079 105.839 28.9056 106.079 28.6923C106.345 28.4523 106.585 28.1323 106.799 27.7323C107.012 27.3056 107.119 26.7856 107.119 26.1723C107.119 25.7456 106.972 25.359 106.679 25.0123C106.385 24.6656 106.025 24.4923 105.599 24.4923ZM119.486 27.5323C117.14 27.1056 115.966 26.1056 115.966 24.5323C115.966 23.4656 116.726 22.559 118.246 21.8123C119.793 21.0656 121.646 20.6923 123.806 20.6923C126.606 20.6923 128.673 21.2256 130.006 22.2923C131.34 23.359 132.006 25.1323 132.006 27.6123C132.006 27.8256 131.993 28.6123 131.966 29.9723C131.94 31.3323 131.926 32.3456 131.926 33.0123C131.926 36.079 132.18 38.3723 132.686 39.8923C131.513 40.2123 130.473 40.3723 129.566 40.3723C127.646 40.3723 126.526 39.599 126.206 38.0523C125.566 38.799 124.74 39.399 123.726 39.8523C122.74 40.279 121.74 40.4923 120.726 40.4923C119.26 40.4923 118.02 40.0256 117.006 39.0923C116.02 38.1323 115.526 36.719 115.526 34.8523C115.526 33.359 115.82 32.2656 116.406 31.5723C117.02 30.879 117.846 30.359 118.886 30.0123C120.913 29.3723 123.313 28.9723 126.086 28.8123C126.086 27.1856 125.9 26.0523 125.526 25.4123C125.18 24.7456 124.433 24.4123 123.286 24.4123C122.62 24.4123 121.9 24.6923 121.126 25.2523C120.38 25.8123 119.833 26.5723 119.486 27.5323ZM126.046 31.6923C125.246 31.8256 124.633 31.9456 124.206 32.0523C123.78 32.159 123.313 32.3323 122.806 32.5723C122.326 32.7856 121.98 33.079 121.766 33.4523C121.58 33.799 121.486 34.239 121.486 34.7723C121.486 35.439 121.646 35.9456 121.966 36.2923C122.286 36.6123 122.686 36.7723 123.166 36.7723C124.286 36.7723 125.22 36.439 125.966 35.7723C125.94 35.5323 125.926 35.1323 125.926 34.5723C125.926 33.6123 125.966 32.6523 126.046 31.6923ZM136.212 31.1323V22.8523C136.212 19.919 136.092 16.8923 135.852 13.7723C136.865 13.559 137.919 13.4523 139.012 13.4523C140.025 13.4523 140.879 13.6256 141.572 13.9723C142.292 14.3189 142.652 14.8656 142.652 15.6123C142.652 15.7456 142.599 16.8123 142.492 18.8123C142.412 20.7856 142.372 22.4523 142.372 23.8123V31.6523C142.372 33.7056 142.479 35.159 142.692 36.0123C143.865 36.0656 144.825 36.0923 145.572 36.0923C149.919 36.0923 152.719 35.7856 153.972 35.1723C154.292 35.9723 154.452 36.8923 154.452 37.9323C154.452 38.839 154.092 39.439 153.372 39.7323C152.679 40.0256 151.279 40.1723 149.172 40.1723C142.799 40.1723 139.105 40.1456 138.092 40.0923C137.319 40.0656 136.799 39.879 136.532 39.5323C136.265 39.1856 136.132 38.6123 136.132 37.8123C136.132 36.9056 136.145 35.7056 136.172 34.2123C136.199 32.6923 136.212 31.6656 136.212 31.1323ZM159.564 19.2923C158.551 19.2923 157.684 18.9456 156.964 18.2523C156.271 17.5323 155.924 16.6256 155.924 15.5323C155.924 14.4923 156.298 13.6123 157.044 12.8923C157.791 12.1723 158.658 11.8123 159.644 11.8123C160.631 11.8123 161.471 12.1723 162.164 12.8923C162.884 13.6123 163.244 14.4923 163.244 15.5323C163.244 16.599 162.871 17.4923 162.124 18.2123C161.378 18.9323 160.524 19.2923 159.564 19.2923ZM159.644 20.9723C160.658 20.9723 161.444 21.1456 162.004 21.4923C162.564 21.839 162.844 22.519 162.844 23.5323C162.844 23.6923 162.791 24.8656 162.684 27.0523C162.604 29.239 162.564 30.879 162.564 31.9723C162.564 35.759 162.791 38.3323 163.244 39.6923C162.124 40.039 161.018 40.2123 159.924 40.2123C158.671 40.2123 157.791 39.999 157.284 39.5723C156.804 39.119 156.564 38.4656 156.564 37.6123C156.564 37.1856 156.578 36.1856 156.604 34.6123C156.658 33.039 156.684 31.7856 156.684 30.8523C156.684 27.039 156.591 23.919 156.404 21.4923C157.418 21.1456 158.498 20.9723 159.644 20.9723ZM181.118 13.5723C181.118 14.4523 180.651 15.3856 179.718 16.3723C179.051 15.679 178.131 15.3323 176.958 15.3323C175.758 15.3323 174.944 15.679 174.518 16.3723C174.118 17.0656 173.918 18.159 173.918 19.6523V21.1723C176.291 21.119 178.051 21.0123 179.198 20.8523C179.384 21.2256 179.478 21.7723 179.478 22.4923C179.478 23.3723 179.224 23.9856 178.718 24.3323C178.238 24.6523 177.504 24.8256 176.518 24.8523C175.264 24.879 174.398 24.8923 173.918 24.8923V32.6123C173.918 35.8923 174.158 38.319 174.638 39.8923C173.731 40.1056 172.758 40.2123 171.718 40.2123C170.304 40.2123 169.331 40.0523 168.798 39.7323C168.264 39.4123 167.998 38.879 167.998 38.1323C167.998 37.839 168.011 36.1723 168.038 33.1323C168.064 30.0923 168.078 27.359 168.078 24.9323C167.571 24.9323 166.598 25.0123 165.158 25.1723C164.944 24.6123 164.838 24.0123 164.838 23.3723C164.838 21.879 165.918 21.1323 168.078 21.1323C168.078 19.9323 168.131 18.9056 168.238 18.0523C168.371 17.1723 168.611 16.3056 168.958 15.4523C169.304 14.5723 169.784 13.8656 170.398 13.3323C171.011 12.7723 171.824 12.3323 172.838 12.0123C173.878 11.6656 175.118 11.4923 176.558 11.4923C179.598 11.4923 181.118 12.1856 181.118 13.5723ZM191.427 20.6923C193.4 20.6923 195.107 21.1856 196.547 22.1723C197.987 23.159 198.707 24.6256 198.707 26.5723C198.707 30.519 195.88 32.4923 190.227 32.4923C189.72 32.4923 188.8 32.4656 187.467 32.4123C187.467 33.9323 187.84 35.039 188.587 35.7323C189.36 36.4256 190.307 36.7723 191.427 36.7723C193.4 36.7723 194.933 36.1323 196.027 34.8523C196.64 35.1456 197.133 35.5456 197.507 36.0523C197.907 36.5323 198.107 37.0256 198.107 37.5323C198.107 38.3323 197.627 38.9723 196.667 39.4523C195.733 39.9323 194.813 40.2256 193.907 40.3323C193.027 40.439 192.173 40.4923 191.347 40.4923C188.413 40.4923 186.013 39.6923 184.147 38.0923C182.28 36.4656 181.347 33.999 181.347 30.6923C181.347 28.5056 181.853 26.639 182.867 25.0923C183.907 23.519 185.16 22.399 186.627 21.7323C188.12 21.039 189.72 20.6923 191.427 20.6923ZM191.107 24.4923C190.147 24.4923 189.307 24.9323 188.587 25.8123C187.867 26.6656 187.493 27.9323 187.467 29.6123C188.213 29.559 188.733 29.519 189.027 29.4923C189.347 29.439 189.787 29.3456 190.347 29.2123C190.933 29.079 191.347 28.9056 191.587 28.6923C191.853 28.4523 192.093 28.1323 192.307 27.7323C192.52 27.3056 192.627 26.7856 192.627 26.1723C192.627 25.7456 192.48 25.359 192.187 25.0123C191.893 24.6656 191.533 24.4923 191.107 24.4923Z" fill="white"/>
<defs>
<linearGradient id="paint0_linear_835_2533" x1="49.8903" y1="61.6922" x2="-1.33014" y2="27.9203" gradientUnits="userSpaceOnUse">
<stop stop-color="white"/>
<stop offset="1" stop-color="white"/>
</linearGradient>
</defs>
</svg>
