<svg viewBox="0 0 512 468" fill="none" xmlns="http://www.w3.org/2000/svg">
<path d="M485.025 277.532C446.524 264.538 383.345 243.469 383.345 195.985C383.345 162.404 426.324 122.336 443.22 79.3409C460.249 35.9859 415.87 21.2815 383.86 54.0496C362.182 76.2418 322.956 120.117 282.191 113.919C258.909 110.382 221.193 73.1039 189.283 32.8867C139.74 -29.5613 103.613 6.56604 131.993 61.2717C153.67 103.044 163.991 156.753 154.185 176.367C144.378 195.98 128.749 222.633 41.6742 241.914C-30.5805 257.908 6.06151 301.263 40.1246 296.105C50.9495 294.461 163.477 286.442 184.634 312.613C215.089 350.296 214.718 390.972 213.019 411.2C206.826 484.999 270.309 481.385 272.894 431.837C273.375 422.495 289.911 337.905 325.015 323.975C360.107 310.04 379.256 305.48 460.747 325.519C523.737 341.009 524.767 290.947 485.025 277.532ZM23.129 276.912C18.9673 276.912 15.7077 273.564 15.7077 269.507C15.7077 265.445 18.9618 262.13 23.129 262.13C27.1967 262.13 30.4895 265.445 30.4895 269.507C30.4895 273.564 27.1967 276.912 23.129 276.912ZM49.4497 274.842C45.288 274.842 42.0284 271.505 42.0284 267.443C42.0284 263.381 45.2825 260.061 49.4497 260.061C53.5174 260.061 56.8102 263.381 56.8102 267.443C56.8102 271.505 53.5174 274.842 49.4497 274.842ZM90.4859 266.331C85.3004 266.331 81.2493 262.18 81.2493 257.122C81.2493 252.069 85.3004 247.946 90.4859 247.946C95.5497 247.946 99.645 252.069 99.645 257.122C99.645 262.18 95.5497 266.331 90.4859 266.331ZM111.638 257.293C108.345 257.293 105.771 254.654 105.771 251.449C105.771 248.234 108.345 245.622 111.638 245.622C114.853 245.622 117.454 248.234 117.454 251.449C117.449 254.659 114.853 257.293 111.638 257.293ZM155.092 204.569C156.243 204.569 157.173 205.582 157.173 206.805C157.173 208.045 156.243 209.057 155.092 209.057C153.93 209.057 153.011 208.045 153.011 206.805C153.011 205.582 153.93 204.569 155.092 204.569ZM150.449 221.908C151.24 221.908 151.882 222.6 151.882 223.441C151.882 224.293 151.24 224.99 150.449 224.99C149.647 224.99 149.021 224.298 149.021 223.441C149.021 222.605 149.647 221.908 150.449 221.908ZM149.315 249.811C145.009 249.811 141.639 246.363 141.639 242.168C141.639 237.951 145.003 234.537 149.315 234.537C153.526 234.537 156.93 237.951 156.93 242.168C156.93 246.363 153.526 249.811 149.315 249.811ZM156.254 268.749C155.458 268.749 154.827 268.046 154.827 267.205C154.827 266.358 155.458 265.672 156.254 265.672C157.04 265.672 157.682 266.358 157.682 267.205C157.682 268.046 157.04 268.749 156.254 268.749ZM369.443 100.598C373.505 100.598 376.798 103.896 376.798 107.964C376.798 112.02 373.505 115.346 369.443 115.346C365.282 115.346 362.028 112.02 362.028 107.964C362.028 103.891 365.282 100.598 369.443 100.598ZM349.648 187.839C349.648 189.671 348.164 191.171 346.327 191.171C344.451 191.171 342.984 189.671 342.984 187.839C342.984 186.007 344.456 184.519 346.327 184.519C348.164 184.519 349.648 186.007 349.648 187.839ZM347.711 231.582C347.711 233.413 346.227 234.913 344.384 234.913C342.514 234.913 341.042 233.413 341.042 231.582C341.042 229.75 342.514 228.261 344.384 228.261C346.227 228.261 347.711 229.75 347.711 231.582ZM346.941 219.5C346.941 218.272 347.86 217.265 349.022 217.265C350.168 217.265 351.103 218.277 351.103 219.5C351.103 220.74 350.168 221.753 349.022 221.753C347.86 221.753 346.941 220.746 346.941 219.5ZM336.786 166.162C336.786 164.33 338.258 162.841 340.129 162.841C341.966 162.841 343.449 164.33 343.449 166.162C343.449 167.993 341.966 169.493 340.129 169.493C338.258 169.493 336.786 167.993 336.786 166.162ZM338.424 197.131C338.424 198.963 336.941 200.463 335.104 200.463C333.228 200.463 331.761 198.963 331.761 197.131C331.761 195.299 333.233 193.811 335.104 193.811C336.947 193.811 338.424 195.299 338.424 197.131ZM337.655 152.226C337.655 150.998 338.574 149.991 339.736 149.991C340.881 149.991 341.817 151.003 341.817 152.226C341.817 153.466 340.881 154.479 339.736 154.479C338.574 154.479 337.655 153.466 337.655 152.226ZM340.284 127.688C344.495 127.688 347.899 131.108 347.899 135.319C347.899 139.514 344.495 142.962 340.284 142.962C335.978 142.962 332.602 139.514 332.602 135.319C332.602 131.108 335.978 127.688 340.284 127.688ZM334.329 178.132C336.172 178.132 337.655 179.621 337.655 181.453C337.655 183.29 336.172 184.79 334.329 184.79C332.453 184.79 330.986 183.29 330.986 181.453C330.986 179.621 332.453 178.132 334.329 178.132ZM323.249 142.663C327.461 142.663 330.864 146.078 330.864 150.295C330.864 154.495 327.461 157.938 323.249 157.938C318.944 157.938 315.573 154.49 315.573 150.295C315.573 146.078 318.944 142.663 323.249 142.663ZM318.839 205.621C316.597 205.621 314.848 203.833 314.848 201.647C314.848 199.455 316.592 197.679 318.839 197.679C321.03 197.679 322.796 199.45 322.796 201.647C322.796 203.833 321.03 205.621 318.839 205.621ZM322.674 215.128C322.674 217.951 320.388 220.264 317.555 220.264C314.666 220.264 312.402 217.951 312.402 215.128C312.402 212.295 314.66 210.004 317.555 210.004C320.388 210.009 322.674 212.3 322.674 215.128ZM322.652 190.59C320.233 190.59 318.335 188.653 318.335 186.29C318.335 183.926 320.239 182.001 322.652 182.001C325.026 182.001 326.935 183.926 326.935 186.29C326.935 188.653 325.02 190.59 322.652 190.59ZM326.393 174.529C324.517 174.529 323.05 173.03 323.05 171.192C323.05 169.36 324.522 167.872 326.393 167.872C328.23 167.872 329.719 169.36 329.719 171.192C329.719 173.03 328.23 174.529 326.393 174.529ZM314.184 164.618C315.33 164.618 316.265 165.63 316.265 166.859C316.265 168.099 315.33 169.106 314.184 169.106C313.022 169.106 312.103 168.099 312.103 166.859C312.103 165.63 313.022 164.618 314.184 164.618ZM301.411 132.104C302.208 132.104 302.845 132.796 302.845 133.637C302.845 134.489 302.208 135.187 301.411 135.187C300.609 135.187 299.984 134.495 299.984 133.637C299.984 132.801 300.609 132.104 301.411 132.104ZM303.365 148.264C305.556 148.264 307.322 150.04 307.322 152.232C307.322 154.418 305.556 156.206 303.365 156.206C301.118 156.206 299.369 154.418 299.369 152.232C299.375 150.04 301.118 148.264 303.365 148.264ZM289.02 140.311C290.171 140.311 291.101 141.324 291.101 142.547C291.101 143.787 290.171 144.8 289.02 144.8C287.858 144.8 286.939 143.787 286.939 142.547C286.939 141.324 287.858 140.311 289.02 140.311ZM290.193 151.037C292.036 151.037 293.52 152.525 293.52 154.357C293.52 156.189 292.036 157.694 290.193 157.694C288.317 157.694 286.851 156.195 286.851 154.357C286.851 152.52 288.317 151.037 290.193 151.037ZM297.72 163.3C304.92 163.3 310.742 169.145 310.742 176.345C310.742 183.522 304.92 189.416 297.72 189.416C290.354 189.416 284.598 183.528 284.598 176.345C284.598 169.145 290.354 163.3 297.72 163.3ZM292.269 209.649C292.269 206.119 295.119 203.23 298.722 203.23C302.275 203.23 305.125 206.113 305.125 209.649C305.125 213.186 302.269 216.08 298.722 216.08C295.119 216.08 292.269 213.18 292.269 209.649ZM297.643 228.1C297.643 230.287 295.877 232.074 293.686 232.074C291.444 232.074 289.69 230.287 289.69 228.1C289.69 225.909 291.439 224.132 293.686 224.132C295.877 224.132 297.643 225.909 297.643 228.1ZM303.946 200.075C302.07 200.075 300.603 198.576 300.603 196.744C300.603 194.906 302.075 193.423 303.946 193.423C305.783 193.423 307.267 194.912 307.267 196.744C307.261 198.576 305.783 200.075 303.946 200.075ZM284.228 192.1C284.228 193.932 282.744 195.432 280.902 195.432C279.025 195.432 277.559 193.932 277.559 192.1C277.559 190.263 279.025 188.78 280.902 188.78C282.75 188.78 284.228 190.263 284.228 192.1ZM278.832 204.68C281.294 204.68 283.287 206.678 283.287 209.14C283.287 211.603 281.3 213.595 278.832 213.595C276.38 213.595 274.377 211.597 274.377 209.14C274.377 206.683 276.375 204.68 278.832 204.68ZM275.472 177.009C275.472 175.863 276.397 174.939 277.553 174.939C278.704 174.939 279.629 175.863 279.629 177.009C279.629 178.154 278.704 179.09 277.553 179.09C276.397 179.09 275.472 178.149 275.472 177.009ZM274.714 217.265C279.629 217.265 283.597 221.26 283.597 226.175C283.597 231.089 279.623 235.079 274.714 235.079C269.805 235.079 265.815 231.083 265.815 226.175C265.81 221.255 269.8 217.265 274.714 217.265ZM276.646 147.749C278.489 147.749 279.972 149.238 279.972 151.07C279.972 152.902 278.489 154.401 276.646 154.401C274.775 154.401 273.303 152.902 273.303 151.07C273.309 149.232 274.775 147.749 276.646 147.749ZM275.102 161.684C276.939 161.684 278.422 163.173 278.422 165.005C278.422 166.837 276.939 168.337 275.102 168.337C273.226 168.337 271.759 166.837 271.759 165.005C271.753 163.168 273.226 161.684 275.102 161.684ZM264.897 207.015C261.371 207.015 258.505 204.148 258.505 200.623C258.505 197.098 261.377 194.231 264.897 194.231C268.439 194.231 271.283 197.092 271.283 200.623C271.283 204.154 268.439 207.015 264.897 207.015ZM242.123 215.328C242.123 210.341 246.169 206.296 251.155 206.296C256.147 206.296 260.181 210.341 260.181 215.328C260.181 220.314 256.147 224.359 251.155 224.359C246.169 224.359 242.123 220.314 242.123 215.328ZM248.908 230.419C248.908 231.659 247.984 232.672 246.833 232.672C245.671 232.672 244.752 231.659 244.752 230.419C244.752 229.191 245.671 228.184 246.833 228.184C247.984 228.184 248.908 229.191 248.908 230.419ZM254.044 189.389C254.044 188.243 254.963 187.313 256.13 187.313C257.282 187.313 258.206 188.243 258.206 189.389C258.206 190.534 257.282 191.47 256.13 191.47C254.963 191.47 254.044 190.534 254.044 189.389ZM258.316 232.163C261.858 232.163 264.703 235.024 264.703 238.555C264.703 242.085 261.853 244.947 258.316 244.947C254.791 244.947 251.924 242.085 251.924 238.555C251.924 235.024 254.791 232.163 258.316 232.163ZM258.532 178.935C258.532 175.719 261.122 173.107 264.404 173.107C267.63 173.107 270.232 175.725 270.232 178.935C270.232 182.155 267.63 184.784 264.404 184.784C261.117 184.784 258.532 182.15 258.532 178.935ZM267.359 131.877C269.197 131.877 270.68 133.366 270.68 135.198C270.68 137.03 269.197 138.529 267.359 138.529C265.483 138.529 264.017 137.03 264.017 135.198C264.017 133.36 265.489 131.877 267.359 131.877ZM259.036 146.393C260.873 146.393 262.356 147.882 262.356 149.714C262.356 151.551 260.873 153.051 259.036 153.051C257.16 153.051 255.693 151.551 255.693 149.714C255.693 147.877 257.165 146.393 259.036 146.393ZM253.037 162.841C254.88 162.841 256.357 164.33 256.357 166.162C256.357 167.993 254.874 169.493 253.037 169.493C251.161 169.493 249.694 167.993 249.694 166.162C249.694 164.33 251.161 162.841 253.037 162.841ZM245.294 193.882C243.418 193.882 241.952 192.383 241.952 190.551C241.952 188.719 243.424 187.23 245.294 187.23C247.137 187.23 248.615 188.719 248.615 190.551C248.615 192.383 247.137 193.882 245.294 193.882ZM246.446 134.119C247.597 134.119 248.526 135.131 248.526 136.354C248.526 137.594 247.597 138.607 246.446 138.607C245.289 138.607 244.37 137.594 244.37 136.354C244.365 135.131 245.283 134.119 246.446 134.119ZM240.651 145.425C242.494 145.425 243.972 146.914 243.972 148.745C243.972 150.577 242.489 152.077 240.651 152.077C238.775 152.077 237.309 150.577 237.309 148.745C237.309 146.914 238.775 145.425 240.651 145.425ZM229.411 124.057C230.562 124.057 231.492 125.07 231.492 126.293C231.492 127.533 230.562 128.546 229.411 128.546C228.249 128.546 227.33 127.533 227.33 126.293C227.33 125.065 228.249 124.057 229.411 124.057ZM231.614 152.996C231.614 153.848 230.972 154.545 230.186 154.545C229.389 154.545 228.758 153.848 228.758 152.996C228.758 152.155 229.389 151.457 230.186 151.457C230.972 151.457 231.614 152.155 231.614 152.996ZM230.369 159.426C237.569 159.426 243.385 165.271 243.385 172.471C243.385 179.648 237.569 185.537 230.369 185.537C223.003 185.537 217.242 179.648 217.242 172.471C217.242 165.271 223.003 159.426 230.369 159.426ZM241.941 201.531C241.941 202.676 241.016 203.612 239.865 203.612C238.703 203.612 237.785 202.676 237.785 201.531C237.785 200.385 238.703 199.461 239.865 199.461C241.016 199.461 241.941 200.385 241.941 201.531ZM227.496 210.269C224.104 210.269 221.42 207.552 221.42 204.226C221.42 200.9 224.098 198.199 227.496 198.199C230.834 198.199 233.512 200.9 233.512 204.226C233.518 207.552 230.834 210.269 227.496 210.269ZM231.099 254.56C231.099 255.711 230.175 256.64 229.024 256.64C227.867 256.64 226.943 255.711 226.943 254.56C226.943 253.42 227.867 252.49 229.024 252.49C230.175 252.49 231.099 253.42 231.099 254.56ZM220.368 192.488C220.368 191.342 221.287 190.413 222.449 190.413C223.6 190.413 224.525 191.342 224.525 192.488C224.525 193.633 223.6 194.569 222.449 194.569C221.281 194.569 220.368 193.628 220.368 192.488ZM234.458 220.131C236.301 220.131 237.779 221.62 237.779 223.452C237.779 225.284 236.296 226.783 234.458 226.783C232.582 226.783 231.116 225.284 231.116 223.452C231.116 221.62 232.582 220.131 234.458 220.131ZM223.772 145.132C223.772 149.327 220.363 152.774 216.157 152.774C211.851 152.774 208.481 149.327 208.481 145.132C208.481 140.915 211.851 137.5 216.157 137.5C220.368 137.5 223.772 140.92 223.772 145.132ZM216.489 187.452C216.489 189.284 215.006 190.783 213.168 190.783C211.292 190.783 209.826 189.284 209.826 187.452C209.826 185.62 211.298 184.131 213.168 184.131C215.006 184.131 216.489 185.62 216.489 187.452ZM198.458 181.812C200.296 181.812 201.779 183.301 201.779 185.133C201.779 186.965 200.296 188.47 198.458 188.47C196.582 188.47 195.116 186.97 195.116 185.133C195.116 183.296 196.582 181.812 198.458 181.812ZM194.961 153.007C194.961 151.778 195.879 150.771 197.042 150.771C198.193 150.771 199.117 151.778 199.117 153.007C199.117 154.252 198.193 155.259 197.042 155.259C195.879 155.259 194.961 154.252 194.961 153.007ZM200.146 171.973C200.146 170.141 201.618 168.652 203.489 168.652C205.326 168.652 206.81 170.141 206.81 171.973C206.81 173.804 205.326 175.304 203.489 175.304C201.613 175.304 200.146 173.804 200.146 171.973ZM206.201 199.422C208.044 199.422 209.521 200.911 209.521 202.743C209.521 204.575 208.038 206.074 206.201 206.074C204.33 206.074 202.858 204.575 202.858 202.743C202.858 200.911 204.325 199.422 206.201 199.422ZM205.575 117.632C209.787 117.632 213.19 121.047 213.19 125.264C213.19 129.464 209.787 132.907 205.575 132.907C201.27 132.907 197.899 129.459 197.899 125.264C197.899 121.047 201.27 117.632 205.575 117.632ZM190.86 94.405C194.501 94.405 197.446 97.3603 197.446 101.002C197.446 104.632 194.501 107.61 190.86 107.61C187.135 107.61 184.224 104.627 184.224 101.002C184.224 97.3658 187.135 94.405 190.86 94.405ZM190.716 206.268C188.84 206.268 187.373 204.768 187.373 202.936C187.373 201.099 188.845 199.616 190.716 199.616C192.553 199.616 194.037 201.105 194.037 202.936C194.037 204.768 192.553 206.268 190.716 206.268ZM192.393 237.78C192.393 238.925 191.469 239.861 190.318 239.861C189.155 239.861 188.237 238.925 188.237 237.78C188.237 236.634 189.155 235.704 190.318 235.704C191.469 235.704 192.393 236.634 192.393 237.78ZM180.262 196.218C181.413 196.218 182.332 197.148 182.332 198.293C182.332 199.439 181.407 200.374 180.262 200.374C179.094 200.374 178.181 199.439 178.181 198.293C178.181 197.148 179.094 196.218 180.262 196.218ZM177.666 149.52C177.666 148.679 178.292 147.982 179.094 147.982C179.886 147.982 180.528 148.679 180.528 149.52C180.528 150.373 179.886 151.07 179.094 151.07C178.292 151.07 177.666 150.373 177.666 149.52ZM180.4 185.908C180.4 184.076 181.872 182.587 183.743 182.587C185.586 182.587 187.063 184.076 187.063 185.908C187.063 187.74 185.58 189.239 183.743 189.239C181.872 189.239 180.4 187.74 180.4 185.908ZM185.049 168.099C185.049 166.261 186.521 164.778 188.392 164.778C190.235 164.778 191.712 166.267 191.712 168.099C191.712 169.93 190.229 171.43 188.392 171.43C186.516 171.43 185.049 169.93 185.049 168.099ZM178.225 66.5458C182.852 66.5458 186.604 70.3036 186.604 74.9468C186.604 79.5678 182.852 83.3643 178.225 83.3643C173.482 83.3643 169.775 79.5678 169.775 74.9468C169.775 70.3036 173.482 66.5458 178.225 66.5458ZM170.201 203.174C168.325 203.174 166.858 201.675 166.858 199.843C166.858 198.005 168.33 196.522 170.201 196.522C172.038 196.522 173.521 198.011 173.521 199.843C173.521 201.675 172.038 203.174 170.201 203.174ZM170.715 216.872C170.715 218.017 169.791 218.952 168.64 218.952C167.472 218.952 166.559 218.017 166.559 216.872C166.559 215.726 167.478 214.802 168.64 214.802C169.797 214.802 170.715 215.726 170.715 216.872ZM167.721 172.354C167.721 171.209 168.64 170.285 169.802 170.285C170.953 170.285 171.878 171.209 171.878 172.354C171.878 173.5 170.953 174.435 169.802 174.435C168.64 174.435 167.721 173.5 167.721 172.354ZM144.146 27.8783C142.02 27.8783 140.355 26.1793 140.355 24.104C140.355 22.0286 142.02 20.3462 144.146 20.3462C146.221 20.3462 147.898 22.0342 147.898 24.104C147.898 26.1738 146.215 27.8783 144.146 27.8783ZM154.982 40.524C152.856 40.524 151.191 38.825 151.191 36.7496C151.191 34.6743 152.856 32.9919 154.982 32.9919C157.057 32.9919 158.734 34.6798 158.734 36.7496C158.734 38.8194 157.057 40.524 154.982 40.524ZM161.003 51.9742C161.003 49.3289 163.122 47.1816 165.829 47.1816C168.468 47.1816 170.61 49.3289 170.61 51.9742C170.61 54.6141 168.468 56.7779 165.829 56.7779C163.117 56.7779 161.003 54.6141 161.003 51.9742ZM168.253 261.627C167.09 261.627 166.172 260.608 166.172 259.38C166.172 258.14 167.09 257.144 168.253 257.144C169.404 257.144 170.334 258.146 170.334 259.38C170.334 260.608 169.404 261.627 168.253 261.627ZM173.582 243.358C169.276 243.358 165.906 239.911 165.906 235.71C165.906 231.493 169.276 228.078 173.582 228.078C177.788 228.078 181.197 231.493 181.197 235.71C181.197 239.911 177.788 243.358 173.582 243.358ZM181.8 287.317C180.998 287.317 180.373 286.614 180.373 285.767C180.373 284.926 181.003 284.234 181.8 284.234C182.592 284.234 183.234 284.926 183.234 285.767C183.234 286.614 182.592 287.317 181.8 287.317ZM182.974 220.591C181.098 220.591 179.631 219.091 179.631 217.259C179.631 215.422 181.103 213.938 182.974 213.938C184.811 213.938 186.294 215.427 186.294 217.259C186.294 219.091 184.811 220.591 182.974 220.591ZM189.554 270.913C187.678 270.913 186.211 269.413 186.211 267.57C186.211 265.744 187.683 264.255 189.554 264.255C191.391 264.255 192.874 265.744 192.874 267.57C192.874 269.413 191.391 270.913 189.554 270.913ZM192.498 214.547C192.498 213.402 193.417 212.472 194.579 212.472C195.73 212.472 196.649 213.402 196.649 214.547C196.649 215.693 195.724 216.628 194.579 216.628C193.417 216.628 192.498 215.693 192.498 214.547ZM197.673 305.519C196.51 305.519 195.592 304.5 195.592 303.272C195.592 302.043 196.51 301.036 197.673 301.036C198.824 301.036 199.748 302.043 199.748 303.272C199.748 304.5 198.824 305.519 197.673 305.519ZM197.296 257.365C195.42 257.365 193.954 255.866 193.954 254.023C193.954 252.196 195.426 250.708 197.296 250.708C199.134 250.708 200.617 252.196 200.617 254.023C200.617 255.871 199.134 257.365 197.296 257.365ZM199.183 226.413C199.183 219.207 204.944 213.368 212.311 213.368C219.516 213.368 225.327 219.207 225.327 226.413C225.327 233.59 219.516 239.479 212.311 239.479C204.939 239.479 199.183 233.59 199.183 226.413ZM210.971 262.152C210.971 263.304 210.047 264.233 208.896 264.233C207.734 264.233 206.815 263.304 206.815 262.152C206.815 261.018 207.734 260.088 208.896 260.088C210.047 260.088 210.971 261.018 210.971 262.152ZM206.964 244.05C208.116 244.05 209.04 245.063 209.04 246.286C209.04 247.526 208.116 248.538 206.964 248.538C205.802 248.538 204.884 247.526 204.884 246.286C204.884 245.063 205.802 244.05 206.964 244.05ZM205.177 272.225C205.177 270.398 206.649 268.904 208.52 268.904C210.357 268.904 211.84 270.398 211.84 272.225C211.84 274.062 210.357 275.562 208.52 275.562C206.649 275.556 205.177 274.062 205.177 272.225ZM211.608 296.852C210.451 296.852 209.527 295.834 209.527 294.6C209.527 293.365 210.451 292.364 211.608 292.364C212.759 292.364 213.683 293.371 213.683 294.6C213.683 295.834 212.759 296.852 211.608 296.852ZM213.694 252.479C213.694 250.647 215.161 249.158 217.037 249.158C218.88 249.158 220.357 250.647 220.357 252.479C220.357 254.316 218.874 255.821 217.037 255.821C215.161 255.821 213.694 254.316 213.694 252.479ZM220.512 279.192C219.715 279.192 219.084 278.501 219.084 277.643C219.084 276.813 219.715 276.11 220.512 276.11C221.304 276.11 221.94 276.813 221.94 277.643C221.94 278.501 221.298 279.192 220.512 279.192ZM223.462 243.502C223.462 242.274 224.381 241.266 225.543 241.266C226.694 241.266 227.618 242.279 227.618 243.502C227.618 244.742 226.694 245.755 225.543 245.755C224.381 245.755 223.462 244.742 223.462 243.502ZM228.26 263.099C230.103 263.099 231.581 264.588 231.581 266.414C231.581 268.257 230.097 269.757 228.26 269.757C226.39 269.757 224.917 268.257 224.917 266.414C224.917 264.588 226.39 263.099 228.26 263.099ZM231.968 286.547C231.968 288.385 230.485 289.884 228.648 289.884C226.771 289.884 225.305 288.385 225.305 286.547C225.305 284.721 226.777 283.227 228.648 283.227C230.49 283.227 231.968 284.721 231.968 286.547ZM227.092 322.47C225.93 322.47 225.012 321.463 225.012 320.223C225.012 319 225.93 317.987 227.092 317.987C228.244 317.987 229.173 319.005 229.173 320.223C229.168 321.463 228.238 322.47 227.092 322.47ZM230.767 308.413C229.97 308.413 229.339 307.727 229.339 306.869C229.339 306.033 229.97 305.336 230.767 305.336C231.559 305.336 232.195 306.033 232.195 306.869C232.195 307.727 231.559 308.413 230.767 308.413ZM232.333 243.452C232.333 240.021 235.1 237.232 238.592 237.232C242.035 237.232 244.802 240.021 244.802 243.452C244.802 246.884 242.035 249.684 238.592 249.684C235.1 249.684 232.333 246.884 232.333 243.452ZM243.739 289.569C242.577 289.569 241.658 288.562 241.658 287.322C241.658 286.099 242.577 285.086 243.739 285.086C244.89 285.086 245.815 286.105 245.815 287.322C245.815 288.562 244.885 289.569 243.739 289.569ZM252.539 323.034C256.75 323.034 260.154 326.46 260.154 330.672C260.154 334.867 256.75 338.314 252.539 338.314C248.233 338.314 244.863 334.867 244.863 330.672C244.863 326.466 248.233 323.034 252.539 323.034ZM243.236 437.155C240.823 437.155 238.941 435.213 238.941 432.861C238.941 430.509 240.823 428.594 243.236 428.594C245.593 428.594 247.503 430.509 247.503 432.861C247.503 435.213 245.593 437.155 243.236 437.155ZM246.85 404.891C243.274 404.891 240.48 402.035 240.48 398.543C240.48 395.051 243.274 392.201 246.85 392.201C250.347 392.201 253.175 395.046 253.175 398.543C253.175 402.041 250.347 404.891 246.85 404.891ZM249.44 377.275C245.283 377.275 242.035 373.949 242.035 369.898C242.035 365.825 245.283 362.521 249.44 362.521C253.507 362.521 256.795 365.825 256.795 369.898C256.795 373.955 253.507 377.275 249.44 377.275ZM255.372 355.094C252.229 355.094 249.766 352.576 249.766 349.516C249.766 346.439 252.223 343.937 255.372 343.937C258.444 343.937 260.923 346.439 260.923 349.516C260.923 352.576 258.444 355.094 255.372 355.094ZM253.574 311.224C249.268 311.224 245.898 307.777 245.898 303.576C245.898 299.365 249.268 295.944 253.574 295.944C257.78 295.944 261.189 299.365 261.189 303.576C261.189 307.777 257.78 311.224 253.574 311.224ZM264.637 289.956C263.474 289.956 262.556 288.949 262.556 287.709C262.556 286.486 263.474 285.474 264.637 285.474C265.788 285.474 266.717 286.492 266.717 287.709C266.717 288.949 265.788 289.956 264.637 289.956ZM256.435 281.544C249.063 281.544 243.308 275.656 243.308 268.473C243.308 261.273 249.069 255.434 256.435 255.434C263.629 255.434 269.451 261.278 269.451 268.473C269.451 275.656 263.635 281.544 256.435 281.544ZM274.316 318.684C273.513 318.684 272.882 317.982 272.882 317.135C272.882 316.288 273.513 315.602 274.316 315.602C275.102 315.602 275.744 316.288 275.744 317.135C275.744 317.982 275.102 318.684 274.316 318.684ZM272.916 286.929C272.916 285.103 274.388 283.614 276.258 283.614C278.096 283.614 279.579 285.103 279.579 286.929C279.579 288.772 278.096 290.272 276.258 290.272C274.388 290.266 272.916 288.772 272.916 286.929ZM278.45 303.2C277.647 303.2 277.022 302.497 277.022 301.65C277.022 300.809 277.647 300.117 278.45 300.117C279.247 300.117 279.883 300.809 279.883 301.65C279.883 302.497 279.247 303.2 278.45 303.2ZM280.132 270.526C278.256 270.526 276.79 269.026 276.79 267.189C276.79 265.362 278.262 263.868 280.132 263.868C281.97 263.868 283.458 265.362 283.458 267.189C283.458 269.032 281.97 270.526 280.132 270.526ZM280.924 254.659C277.537 254.659 274.853 251.936 274.853 248.61C274.853 245.284 277.531 242.584 280.924 242.584C284.255 242.584 286.939 245.29 286.939 248.61C286.939 251.931 284.25 254.659 280.924 254.659ZM287.332 199.068C287.332 197.839 288.251 196.832 289.413 196.832C290.559 196.832 291.494 197.845 291.494 199.068C291.494 200.308 290.559 201.32 289.413 201.32C288.251 201.315 287.332 200.308 287.332 199.068ZM292.911 295.302C291.035 295.302 289.568 293.803 289.568 291.96C289.568 290.133 291.04 288.645 292.911 288.645C294.748 288.645 296.231 290.133 296.231 291.96C296.226 293.803 294.748 295.302 292.911 295.302ZM293.293 278.656C291.417 278.656 289.95 277.156 289.95 275.318C289.95 273.492 291.422 271.998 293.293 271.998C295.13 271.998 296.619 273.492 296.619 275.318C296.619 277.156 295.13 278.656 293.293 278.656ZM298.312 263.719C296.436 263.719 294.97 262.219 294.97 260.376C294.97 258.555 296.442 257.061 298.312 257.061C300.15 257.061 301.638 258.555 301.638 260.376C301.638 262.219 300.15 263.719 298.312 263.719ZM306.298 282.668C306.298 281.445 307.217 280.432 308.379 280.432C309.53 280.432 310.46 281.45 310.46 282.668C310.46 283.919 309.53 284.92 308.379 284.92C307.217 284.926 306.298 283.919 306.298 282.668ZM310.698 305.441C309.536 305.441 308.617 304.434 308.617 303.189C308.617 301.966 309.536 300.953 310.698 300.953C311.849 300.953 312.779 301.971 312.779 303.189C312.779 304.434 311.849 305.441 310.698 305.441ZM314.195 268.982C312.319 268.982 310.853 267.482 310.853 265.639C310.853 263.813 312.325 262.324 314.195 262.324C316.033 262.324 317.516 263.813 317.516 265.639C317.516 267.476 316.033 268.982 314.195 268.982ZM312.95 251.864C305.584 251.864 299.829 245.976 299.829 238.798C299.829 231.593 305.584 225.754 312.95 225.754C320.156 225.754 325.972 231.593 325.972 238.798C325.967 245.976 320.15 251.864 312.95 251.864ZM326.575 262.086C325.413 262.086 324.495 261.079 324.495 259.839C324.495 258.616 325.413 257.603 326.575 257.603C327.721 257.603 328.656 258.622 328.656 259.839C328.656 261.079 327.721 262.086 326.575 262.086ZM331.213 281.511C330.411 281.511 329.785 280.819 329.785 279.962C329.785 279.131 330.411 278.429 331.213 278.429C332.004 278.429 332.641 279.131 332.641 279.962C332.641 280.819 332.004 281.511 331.213 281.511ZM329.686 228.527C327.81 228.527 326.343 227.027 326.343 225.195C326.343 223.363 327.815 221.875 329.686 221.875C331.523 221.875 333.006 223.363 333.006 225.195C333.006 227.027 331.523 228.527 329.686 228.527ZM334.462 213.772C334.462 211.941 335.934 210.452 337.804 210.452C339.642 210.452 341.125 211.941 341.125 213.772C341.125 215.61 339.642 217.11 337.804 217.11C335.934 217.11 334.462 215.61 334.462 213.772ZM344.667 261.156C340.361 261.156 336.991 257.709 336.991 253.508C336.991 249.291 340.356 245.882 344.667 245.882C348.878 245.882 352.282 249.297 352.282 253.508C352.282 257.709 348.878 261.156 344.667 261.156ZM349.808 207.43C347.932 207.43 346.465 205.93 346.465 204.093C346.465 202.256 347.937 200.773 349.808 200.773C351.645 200.773 353.134 202.261 353.134 204.093C353.134 205.925 351.645 207.43 349.808 207.43ZM353.272 172.354C352.475 172.354 351.845 171.663 351.845 170.805C351.845 169.964 352.475 169.272 353.272 169.272C354.069 169.272 354.711 169.964 354.711 170.805C354.711 171.663 354.064 172.354 353.272 172.354ZM350.411 123.194C350.411 119.973 352.985 117.366 356.277 117.366C359.487 117.366 362.088 119.973 362.088 123.194C362.088 126.398 359.487 129.033 356.277 129.033C352.985 129.027 350.411 126.398 350.411 123.194ZM360.633 193.346C361.784 193.346 362.714 194.358 362.714 195.581C362.714 196.821 361.784 197.828 360.633 197.828C359.476 197.828 358.552 196.821 358.552 195.581C358.552 194.353 359.476 193.346 360.633 193.346ZM358.934 221.526C358.934 220.685 359.559 219.987 360.362 219.987C361.159 219.987 361.795 220.679 361.795 221.526C361.795 222.378 361.159 223.075 360.362 223.075C359.565 223.07 358.934 222.373 358.934 221.526ZM360.495 241.261C360.495 240.032 361.413 239.025 362.57 239.025C363.721 239.025 364.651 240.032 364.651 241.261C364.651 242.501 363.721 243.508 362.57 243.508C361.413 243.508 360.495 242.501 360.495 241.261ZM369.698 269.159C365.392 269.159 362.022 265.711 362.022 261.516C362.022 257.293 365.387 253.884 369.698 253.884C373.91 253.884 377.313 257.293 377.313 261.516C377.313 265.711 373.904 269.159 369.698 269.159ZM423.623 53.1143C426.407 53.1143 428.659 55.3778 428.659 58.167C428.659 60.9452 426.407 63.2308 423.623 63.2308C420.757 63.2308 418.537 60.9452 418.537 58.167C418.537 55.3778 420.757 53.1143 423.623 53.1143ZM398.077 74.7918C402.001 74.7918 405.178 77.974 405.178 81.9033C405.178 85.8215 402.001 89.0368 398.077 89.0368C394.054 89.0368 390.916 85.8215 390.916 81.9033C390.922 77.9795 394.06 74.7918 398.077 74.7918ZM379.311 96.3586C379.311 93.9955 381.198 92.0862 383.617 92.0862C385.974 92.0862 387.883 94.001 387.883 96.3586C387.883 98.7162 385.969 100.648 383.617 100.648C381.198 100.648 379.311 98.7162 379.311 96.3586ZM390.08 275.861C386.356 275.861 383.445 272.889 383.445 269.258C383.445 265.606 386.356 262.656 390.08 262.656C393.722 262.656 396.666 265.606 396.666 269.258C396.672 272.889 393.722 275.861 390.08 275.861ZM409.954 282.07C406.517 282.07 403.833 279.32 403.833 275.966C403.833 272.607 406.517 269.884 409.954 269.884C413.302 269.884 416.019 272.601 416.019 275.966C416.019 279.32 413.302 282.07 409.954 282.07ZM429.052 294.185C424.747 294.185 421.376 290.737 421.376 286.542C421.376 282.319 424.741 278.905 429.052 278.905C433.253 278.905 436.662 282.319 436.662 286.542C436.662 290.737 433.253 294.185 429.052 294.185ZM457.443 303.986C453.137 303.986 449.767 300.554 449.767 296.354C449.767 292.131 453.132 288.722 457.443 288.722C461.649 288.722 465.052 292.131 465.052 296.354C465.052 300.554 461.649 303.986 457.443 303.986ZM476.259 309.669C473.553 309.669 471.433 307.505 471.433 304.871C471.433 302.209 473.553 300.067 476.259 300.067C478.905 300.067 481.046 302.209 481.046 304.871C481.052 307.511 478.905 309.669 476.259 309.669Z" fill="url(#paint0_linear_826_2520)"/>
<defs>
<linearGradient id="paint0_linear_826_2520" x1="422.072" y1="521.916" x2="-11.253" y2="236.206" gradientUnits="userSpaceOnUse">
<stop stop-color="#317074"/>
<stop offset="1" stop-color="#034C82"/>
</linearGradient>
</defs>
</svg>
