<svg viewBox="0 0 17 17" fill="none" xmlns="http://www.w3.org/2000/svg">
<g clip-path="url(#clip0_700_2212)">
<path d="M6 9C6 8.72344 6.22343 8.5 6.5 8.5C6.77656 8.5 7 8.72344 7 9C7 9.27656 6.77656 9.5 6.5 9.5C6.22343 9.5 6 9.27656 6 9ZM0.0658873 10.2516L0.781247 9L0.0658873 7.74844C-0.0418783 7.55937 -0.0155627 7.32344 0.131012 7.1625C0.277653 7.00156 0.510934 6.95469 0.708278 7.04531L2.2625 7.75781C2.42812 7.57188 2.61406 7.38594 2.82031 7.21094C3.43281 6.69531 4.25937 6.25 5.25 6.25C6.24062 6.25 7.06718 6.69531 7.67968 7.21094C8.28906 7.72656 8.72343 8.32969 8.94375 8.77031C9.01875 8.91406 9.01875 9.08594 8.94375 9.22969C8.72343 9.65625 8.28906 10.2734 7.67968 10.7891C7.06718 11.3047 6.24062 11.75 5.25 11.75C4.25937 11.75 3.43281 11.3047 2.82031 10.7891C2.61406 10.6141 2.42812 10.4281 2.2625 10.2422L0.708278 10.9547C0.510934 11.0453 0.277653 10.9984 0.131012 10.8375C-0.0155534 10.6766 -0.0418783 10.4406 0.0658873 10.2516ZM3.30468 10.2156C3.83125 10.6594 4.49218 11 5.25 11C6.00781 11 6.66875 10.6594 7.19531 10.2156C7.66875 9.81562 8.01875 9.34531 8.21562 9C8.01875 8.65469 7.66875 8.18437 7.19531 7.78437C6.66875 7.33906 6.00781 7 5.25 7C4.49218 7 3.83125 7.33906 3.30468 7.78437C3.12812 7.93281 2.95468 8.07969 2.825 8.25469L2.45625 8.65781L1.10297 8.05156L1.64531 9L1.10297 9.94844L2.45625 9.32812L2.825 9.74531C2.95468 9.90625 3.12812 10.0672 3.30468 10.2156Z" fill="black"/>
</g>
<g clip-path="url(#clip1_700_2212)">
<path d="M14 4C14 3.72344 14.2234 3.5 14.5 3.5C14.7766 3.5 15 3.72344 15 4C15 4.27656 14.7766 4.5 14.5 4.5C14.2234 4.5 14 4.27656 14 4ZM8.06589 5.25156L8.78125 4L8.06589 2.74844C7.95812 2.55937 7.98444 2.32344 8.13101 2.1625C8.27765 2.00156 8.51093 1.95469 8.70828 2.04531L10.2625 2.75781C10.4281 2.57188 10.6141 2.38594 10.8203 2.21094C11.4328 1.69531 12.2594 1.25 13.25 1.25C14.2406 1.25 15.0672 1.69531 15.6797 2.21094C16.2891 2.72656 16.7234 3.32969 16.9437 3.77031C17.0187 3.91406 17.0187 4.08594 16.9437 4.22969C16.7234 4.65625 16.2891 5.27344 15.6797 5.78906C15.0672 6.30469 14.2406 6.75 13.25 6.75C12.2594 6.75 11.4328 6.30469 10.8203 5.78906C10.6141 5.61406 10.4281 5.42812 10.2625 5.24219L8.70828 5.95469C8.51093 6.04531 8.27765 5.99844 8.13101 5.8375C7.98445 5.67656 7.95812 5.44063 8.06589 5.25156ZM11.3047 5.21562C11.8312 5.65937 12.4922 6 13.25 6C14.0078 6 14.6687 5.65937 15.1953 5.21562C15.6687 4.81562 16.0187 4.34531 16.2156 4C16.0187 3.65469 15.6687 3.18437 15.1953 2.78437C14.6687 2.33906 14.0078 2 13.25 2C12.4922 2 11.8312 2.33906 11.3047 2.78437C11.1281 2.93281 10.9547 3.07969 10.825 3.25469L10.4562 3.65781L9.10297 3.05156L9.64531 4L9.10297 4.94844L10.4562 4.32812L10.825 4.74531C10.9547 4.90625 11.1281 5.06719 11.3047 5.21562Z" fill="black"/>
</g>
<g clip-path="url(#clip2_700_2212)">
<path d="M14 13C14 12.7234 14.2234 12.5 14.5 12.5C14.7766 12.5 15 12.7234 15 13C15 13.2766 14.7766 13.5 14.5 13.5C14.2234 13.5 14 13.2766 14 13ZM8.06589 14.2516L8.78125 13L8.06589 11.7484C7.95812 11.5594 7.98444 11.3234 8.13101 11.1625C8.27765 11.0016 8.51093 10.9547 8.70828 11.0453L10.2625 11.7578C10.4281 11.5719 10.6141 11.3859 10.8203 11.2109C11.4328 10.6953 12.2594 10.25 13.25 10.25C14.2406 10.25 15.0672 10.6953 15.6797 11.2109C16.2891 11.7266 16.7234 12.3297 16.9437 12.7703C17.0187 12.9141 17.0187 13.0859 16.9437 13.2297C16.7234 13.6563 16.2891 14.2734 15.6797 14.7891C15.0672 15.3047 14.2406 15.75 13.25 15.75C12.2594 15.75 11.4328 15.3047 10.8203 14.7891C10.6141 14.6141 10.4281 14.4281 10.2625 14.2422L8.70828 14.9547C8.51093 15.0453 8.27765 14.9984 8.13101 14.8375C7.98445 14.6766 7.95812 14.4406 8.06589 14.2516ZM11.3047 14.2156C11.8312 14.6594 12.4922 15 13.25 15C14.0078 15 14.6687 14.6594 15.1953 14.2156C15.6687 13.8156 16.0187 13.3453 16.2156 13C16.0187 12.6547 15.6687 12.1844 15.1953 11.7844C14.6687 11.3391 14.0078 11 13.25 11C12.4922 11 11.8312 11.3391 11.3047 11.7844C11.1281 11.9328 10.9547 12.0797 10.825 12.2547L10.4562 12.6578L9.10297 12.0516L9.64531 13L9.10297 13.9484L10.4562 13.3281L10.825 13.7453C10.9547 13.9063 11.1281 14.0672 11.3047 14.2156Z" fill="black"/>
</g>
<defs>
<clipPath id="clip0_700_2212">
<rect width="9" height="8" fill="white" transform="translate(0 5)"/>
</clipPath>
<clipPath id="clip1_700_2212">
<rect width="9" height="8" fill="white" transform="translate(8)"/>
</clipPath>
<clipPath id="clip2_700_2212">
<rect width="9" height="8" fill="white" transform="translate(8 9)"/>
</clipPath>
</defs>
</svg>
