<svg viewBox="0 0 34 34" fill="none" xmlns="http://www.w3.org/2000/svg">
<g clip-path="url(#clip0_434_1228)">
<path d="M24.9255 9.01562C20.5311 4.62117 13.4101 4.62111 9.01563 9.01562C4.62118 13.4101 4.62118 20.5311 9.01563 24.9255C13.4101 29.32 20.5311 29.32 24.9255 24.9255C29.32 20.531 29.32 13.4101 24.9255 9.01562ZM10.0763 10.0763C13.6988 6.45376 19.4812 6.29145 23.3077 9.57283L9.57284 23.3076C6.29146 19.4812 6.45377 13.6988 10.0763 10.0763ZM10.6335 24.3683L24.3683 10.6335C27.6497 14.4599 27.4874 20.2423 23.8649 23.8649C20.2424 27.4874 14.4599 27.6497 10.6335 24.3683Z" fill="#3C3C3C"/>
</g>
<rect x="26.13" y="6.81201" width="1.39587" height="27.2257" transform="rotate(45 26.13 6.81201)" fill="#3C3C3C"/>
<defs>
<clipPath id="clip0_434_1228">
<rect width="24" height="24" fill="white" transform="translate(16.9706) rotate(45)"/>
</clipPath>
</defs>
</svg>
