<svg width="288.8" height="56.86883489878337" viewBox="0 0 378.4388415606597 74.51999999999998" class="css-1j8o68f">
  <defs id="SvgjsDefs2300">
    <linearGradient id="SvgjsLinearGradient2307">
      <stop id="SvgjsStop2308" stop-color="#00ff8f" offset="0"></stop>
      <stop id="SvgjsStop2309" stop-color="#00a1ff" offset="1"></stop>
    </linearGradient>
    <linearGradient id="SvgjsLinearGradient2310">
      <stop id="SvgjsStop2311" stop-color="#00ff8f" offset="0"></stop>
      <stop id="SvgjsStop2312" stop-color="#00a1ff" offset="1"></stop>
    </linearGradient>
    <linearGradient id="SvgjsLinearGradient2313">
      <stop id="SvgjsStop2314" stop-color="#00ff8f" offset="0"></stop>
      <stop id="SvgjsStop2315" stop-color="#00a1ff" offset="1"></stop>
    </linearGradient>
  </defs>
  <g id="SvgjsG2301" featurekey="nameLeftFeature-0" transform="matrix(2.482405958710321,0,0,2.482405958710321,-1.7213000588169067,5.867041830499986)" fill="url(#SvgjsLinearGradient2307)">
    <path d="M6.5137 20.19531 c-3.0273 0 -5.3906 -1.4551 -5.8203 -4.1016 l3.0273 -0.69336 c0.19531 1.582 1.3574 2.4023 2.9102 2.4023 c1.1914 0 2.1387 -0.52734 2.1289 -1.7188 c-0.0097656 -1.3281 -1.5723 -1.748 -3.291 -2.2754 c-2.0703 -0.64453 -4.2871 -1.4063 -4.2871 -4.0039 c0 -2.627 2.1484 -4.1113 4.9805 -4.1113 c2.4805 0 4.9805 1.0059 5.5469 3.7109 l-2.832 0.70313 c-0.26367 -1.4063 -1.2109 -2.0215 -2.5391 -2.0215 c-1.1816 0 -2.1875 0.48828 -2.1875 1.6504 c0 1.084 1.3867 1.4453 2.9883 1.9238 c2.1289 0.64453 4.6484 1.4648 4.6484 4.2773 c0 2.998 -2.5098 4.2578 -5.2734 4.2578 z M24.599843749999998 8.467 l-5.2344 0 l0 3.2031 l4.6387 0 l0 2.5488 l-4.6387 0 l0 3.1934 l5.2344 0 l0 2.5879 l-8.1836 0 l0 -14.111 l8.1836 0 l0 2.5781 z M38.984843749999996 20 l-1.0254 -2.9102 l-5.9277 0 l-1.0254 2.9102 l-2.998 0 l5.1953 -14.111 l3.584 0 l5.1953 14.111 l-2.998 0 z M32.89064375 14.6387 l4.209 0 l-2.0996 -5.9863 z"></path>
  </g>
  <g id="SvgjsG2302" featurekey="inlineSymbolFeature-0" transform="matrix(1.7811033794606514,0,0,1.7811033794606514,99.2018747045926,-51.047791649161034)" fill="url(#SvgjsLinearGradient2310)">
    <g xmlns="http://www.w3.org/2000/svg">
      <path d="M66.2,56.5c-5.2,6.2-13,10.4-21,11.3c-0.7,0.1-1.3,0.7-1.2,1.5c0.1,0.7,0.7,1.2,1.3,1.2c0,0,0.1,0,0.1,0   c8.6-0.9,17.2-5.4,22.8-12.2c0.5-0.6,0.4-1.4-0.2-1.9C67.6,55.9,66.7,55.9,66.2,56.5z"></path>
      <path d="M54,35.9c0,0-0.1,0-0.1,0L44,28.9c-0.3-0.2-0.7-0.3-1-0.2c-0.3,0.1-0.7,0.3-0.8,0.6l-3,4.6c-12,1.3-22.6,9.6-26.3,17.7   c0,0,0,0,0,0c0,0.1,0,0.2-0.1,0.3c0,0.1,0,0.2,0,0.2c0,0.1,0,0.2,0,0.2c0,0.1,0,0.2,0.1,0.3c0,0,0,0,0,0c2.5,5.5,9.4,12.4,18,15.8   l1.5-2.4l0,0L43.2,50c0.4-0.6,0.2-1.5-0.4-1.9c-0.6-0.4-1.5-0.2-1.9,0.4l-10.6,16l-0.5,0.6c-6.8-3.1-11.8-8.2-14.1-13   c3.7-7.5,13.7-15,25-15.7l0,0l3.1-4.5l2.8,2l5.1,3.9C58,40,63.1,44,66.2,47.8c0.5,0.6,1.3,0.7,1.9,0.2c0.6-0.5,0.7-1.3,0.2-1.9   C65.1,42.2,60.1,38.2,54,35.9z"></path>
      <path d="M86.5,38.4c-0.5-0.5-1.4-0.5-1.9,0L71.8,51.2c-0.3,0.3-0.4,0.6-0.4,0.9c0,0.4,0.1,0.7,0.4,1l12.8,12.8   c0.3,0.3,0.6,0.4,1,0.4s0.7-0.1,1-0.4c0.5-0.5,0.5-1.4,0-1.9L74.6,52.1l11.9-11.8C87,39.8,87,38.9,86.5,38.4z"></path>
      <ellipse cx="28.7" cy="47.9" rx="2.5" ry="2.5"></ellipse>
      <path d="M45,56.6l4.4-6.6c0.4-0.6,0.2-1.5-0.4-1.9c-0.6-0.4-1.5-0.2-1.9,0.4l-0.1,0.1c0,0,0,0,0,0L42.9,55l-1.9,2.9   c-0.4,0.6-0.2,1.5,0.4,1.9c0.6,0.4,1.5,0.2,1.9-0.4h0L45,56.6C45,56.5,45,56.6,45,56.6z"></path>
    </g>
  </g>
  <g id="SvgjsG2303" featurekey="nameRightFeature-0" transform="matrix(2.5511649718929927,0,0,2.5511649718929927,251.17895909794814,4.9761896362329185)" fill="url(#SvgjsLinearGradient2313)">
    <path d="M11.875040625 17.4121 l4.4238 0 l0 2.5879 l-7.3535 0 l0 -14.111 l2.9297 0 l0 11.523 z M20.4590125 20 l0 -14.111 l2.9297 0 l0 14.111 l-2.9297 0 z M37.27490625 8.467 l-5.3711 0 l0 3.2031 l4.6387 0 l0 2.5488 l-4.6387 0 l0 5.7813 l-2.9492 0 l0 -14.111 l8.3203 0 l0 2.5781 z M49.883046875 8.467 l-5.2344 0 l0 3.2031 l4.6387 0 l0 2.5488 l-4.6387 0 l0 3.1934 l5.2344 0 l0 2.5879 l-8.1836 0 l0 -14.111 l8.1836 0 l0 2.5781 z"></path>
  </g>
</svg>