<svg viewBox="0 0 36 41" fill="none" xmlns="http://www.w3.org/2000/svg">
<path d="M33.3 23.75H2.7C1.20881 23.75 0 24.7154 0 25.9062V33.0938C0 34.2846 1.20881 35.25 2.7 35.25H33.3C34.7912 35.25 36 34.2846 36 33.0938V25.9062C36 24.7154 34.7912 23.75 33.3 23.75ZM34.2 33.0938C34.2 33.4901 33.7962 33.8125 33.3 33.8125H2.7C2.20376 33.8125 1.8 33.4901 1.8 33.0938V25.9062C1.8 25.5099 2.20376 25.1875 2.7 25.1875H6.3V28.0625C6.3 28.4598 6.70252 28.7812 7.2 28.7812C7.69747 28.7812 8.1 28.4598 8.1 28.0625V25.1875H11.7V28.0625C11.7 28.4598 12.1025 28.7812 12.6 28.7812C13.0975 28.7812 13.5 28.4598 13.5 28.0625V25.1875H17.1V28.0625C17.1 28.4598 17.5025 28.7812 18 28.7812C18.4975 28.7812 18.9 28.4598 18.9 28.0625V25.1875H22.5V28.0625C22.5 28.4598 22.9025 28.7812 23.4 28.7812C23.8975 28.7812 24.3 28.4598 24.3 28.0625V25.1875H27.9V28.0625C27.9 28.4598 28.3025 28.7812 28.8 28.7812C29.2975 28.7812 29.7 28.4598 29.7 28.0625V25.1875H33.3C33.7962 25.1875 34.2 25.5099 34.2 25.9062V33.0938Z" fill="#3C3C3C"/>
<path d="M9 8.89062C9 7.98418 9.7196 7.25 10.6071 7.25H12.5357C13.4237 7.25 14.1429 7.98418 14.1429 8.89062V10.8594C14.1429 11.7658 13.4237 12.5 12.5357 12.5H10.6071C9.7196 12.5 9 11.7658 9 10.8594V8.89062ZM15.4286 15.4531C15.4286 14.5467 16.1478 13.8125 17.0357 13.8125H18.9643C19.8522 13.8125 20.5714 14.5467 20.5714 15.4531V17.4219C20.5714 18.3283 19.8522 19.0625 18.9643 19.0625H17.0357C16.1478 19.0625 15.4286 18.3283 15.4286 17.4219V15.4531ZM27 10.8594C27 11.7658 26.2808 12.5 25.3929 12.5H23.4643C22.5763 12.5 21.8571 11.7658 21.8571 10.8594V8.89062C21.8571 7.98418 22.5763 7.25 23.4643 7.25H25.3929C26.2808 7.25 27 7.98418 27 8.89062V10.8594Z" fill="#3C3C3C"/>
<path opacity="0.4" d="M15.4286 8.89062C15.4286 7.98418 16.1478 7.25 17.0357 7.25H18.9643C19.8522 7.25 20.5714 7.98418 20.5714 8.89062V10.8594C20.5714 11.7658 19.8522 12.5 18.9643 12.5H17.0357C16.1478 12.5 15.4286 11.7658 15.4286 10.8594V8.89062ZM9 15.4531C9 14.5467 9.7196 13.8125 10.6071 13.8125H12.5357C13.4237 13.8125 14.1429 14.5467 14.1429 15.4531V17.4219C14.1429 18.3283 13.4237 19.0625 12.5357 19.0625H10.6071C9.7196 19.0625 9 18.3283 9 17.4219V15.4531ZM25.3929 13.8125C26.2808 13.8125 27 14.5467 27 15.4531V17.4219C27 18.3283 26.2808 19.0625 25.3929 19.0625H23.4643C22.5763 19.0625 21.8571 18.3283 21.8571 17.4219V15.4531C21.8571 14.5467 22.5763 13.8125 23.4643 13.8125H25.3929Z" fill="#3C3C3C"/>
</svg>
