<svg viewBox="0 0 144 144" fill="none" xmlns="http://www.w3.org/2000/svg">
<rect width="144" height="144" rx="20" fill="url(#paint0_linear_809_2885)"/>
<path d="M89.6751 38.5685C75.5858 24.4772 52.6591 24.4772 38.5677 38.5685C24.4774 52.6588 24.4774 75.5855 38.5677 89.6748C52.1755 103.283 74.0211 103.746 88.1939 91.0726L91.0585 93.9372C90.3449 95.7646 90.7185 97.9156 92.1936 99.3907L107.311 114.509C109.299 116.497 112.522 116.496 114.51 114.509C116.498 112.522 116.498 109.299 114.51 107.311L99.392 92.1954C97.9169 90.7203 95.7638 90.3467 93.9385 91.0603L91.0728 88.1936C103.749 74.0208 103.284 52.1753 89.6751 38.5685ZM41.6401 86.9604C29.9309 75.2512 29.4909 52.9093 41.2001 41.2001C52.9093 29.4899 75.2512 29.4909 86.9604 41.2001C98.6696 52.9093 98.6696 75.2512 86.9604 86.9604C75.2512 98.6696 53.3493 98.6696 41.6401 86.9604Z" fill="white"/>
<path d="M94.7992 69.8413C89.8062 68.1562 81.6132 65.424 81.6132 59.2663C81.6132 54.9114 87.1867 49.7153 89.3778 44.1396C91.5861 38.5173 85.831 36.6104 81.6799 40.8598C78.8687 43.7377 73.7818 49.4275 68.4953 48.6237C65.476 48.1651 60.585 43.3308 56.4468 38.1154C50.0221 30.017 45.3371 34.7021 49.0174 41.7964C51.8285 47.2135 53.167 54.1786 51.8953 56.7221C50.6235 59.2655 48.5968 62.7219 37.3048 65.2223C27.9347 67.2964 32.6865 72.9188 37.1038 72.2499C38.5076 72.0367 53.1003 70.9968 55.844 74.3907C59.7934 79.2774 59.7453 84.5524 59.525 87.1756C58.7219 96.7459 66.9545 96.2772 67.2896 89.8518C67.3521 88.6404 69.4965 77.6706 74.0488 75.8641C78.5996 74.057 81.0828 73.4656 91.6507 76.0644C99.8194 78.0732 99.9529 71.581 94.7992 69.8413ZM34.8998 69.761C34.3601 69.761 33.9374 69.3268 33.9374 68.8007C33.9374 68.2739 34.3594 67.844 34.8998 67.844C35.4273 67.844 35.8543 68.2739 35.8543 68.8007C35.8543 69.3268 35.4273 69.761 34.8998 69.761ZM38.3131 69.4925C37.7734 69.4925 37.3507 69.0598 37.3507 68.533C37.3507 68.0062 37.7727 67.5756 38.3131 67.5756C38.8406 67.5756 39.2676 68.0062 39.2676 68.533C39.2676 69.0598 38.8406 69.4925 38.3131 69.4925ZM43.6347 68.3887C42.9623 68.3887 42.4369 67.8505 42.4369 67.1945C42.4369 66.5393 42.9623 66.0046 43.6347 66.0046C44.2914 66.0046 44.8225 66.5393 44.8225 67.1945C44.8225 67.8505 44.2914 68.3887 43.6347 68.3887ZM46.3777 67.2168C45.9507 67.2168 45.617 66.8744 45.617 66.4589C45.617 66.0419 45.9507 65.7032 46.3777 65.7032C46.7947 65.7032 47.132 66.0419 47.132 66.4589C47.1313 66.8751 46.7947 67.2168 46.3777 67.2168ZM52.013 60.3794C52.1623 60.3794 52.2828 60.5107 52.2828 60.6693C52.2828 60.8301 52.1623 60.9614 52.013 60.9614C51.8623 60.9614 51.7431 60.8301 51.7431 60.6693C51.7431 60.5107 51.8623 60.3794 52.013 60.3794ZM51.4108 62.6279C51.5135 62.6279 51.5967 62.7176 51.5967 62.8267C51.5967 62.9372 51.5135 63.0276 51.4108 63.0276C51.3068 63.0276 51.2257 62.9379 51.2257 62.8267C51.2257 62.7183 51.3068 62.6279 51.4108 62.6279ZM51.2637 66.2465C50.7054 66.2465 50.2683 65.7993 50.2683 65.2553C50.2683 64.7085 50.7046 64.2656 51.2637 64.2656C51.8099 64.2656 52.2513 64.7085 52.2513 65.2553C52.2513 65.7993 51.8099 66.2465 51.2637 66.2465ZM52.1637 68.7024C52.0603 68.7024 51.9785 68.6112 51.9785 68.5021C51.9785 68.3923 52.0603 68.3033 52.1637 68.3033C52.2656 68.3033 52.3489 68.3923 52.3489 68.5021C52.3489 68.6112 52.2656 68.7024 52.1637 68.7024ZM79.8103 46.8963C80.3371 46.8963 80.7641 47.324 80.7641 47.8515C80.7641 48.3776 80.3371 48.8089 79.8103 48.8089C79.2706 48.8089 78.8486 48.3776 78.8486 47.8515C78.8486 47.3233 79.2706 46.8963 79.8103 46.8963ZM77.2432 58.2098C77.2432 58.4474 77.0508 58.6419 76.8126 58.6419C76.5693 58.6419 76.3791 58.4474 76.3791 58.2098C76.3791 57.9723 76.57 57.7792 76.8126 57.7792C77.0508 57.7792 77.2432 57.9723 77.2432 58.2098ZM76.992 63.8824C76.992 64.12 76.7996 64.3145 76.5607 64.3145C76.3181 64.3145 76.1272 64.12 76.1272 63.8824C76.1272 63.6449 76.3181 63.4518 76.5607 63.4518C76.7996 63.4518 76.992 63.6449 76.992 63.8824ZM76.8922 62.3157C76.8922 62.1564 77.0114 62.0258 77.1621 62.0258C77.3106 62.0258 77.4319 62.1571 77.4319 62.3157C77.4319 62.4765 77.3106 62.6078 77.1621 62.6078C77.0114 62.6078 76.8922 62.4772 76.8922 62.3157ZM75.5753 55.3987C75.5753 55.1611 75.7662 54.968 76.0088 54.968C76.247 54.968 76.4394 55.1611 76.4394 55.3987C76.4394 55.6362 76.247 55.8307 76.0088 55.8307C75.7662 55.8307 75.5753 55.6362 75.5753 55.3987ZM75.7877 59.4148C75.7877 59.6524 75.5954 59.8469 75.3571 59.8469C75.1138 59.8469 74.9236 59.6524 74.9236 59.4148C74.9236 59.1773 75.1145 58.9842 75.3571 58.9842C75.5961 58.9842 75.7877 59.1773 75.7877 59.4148ZM75.688 53.5915C75.688 53.4322 75.8071 53.3016 75.9578 53.3016C76.1064 53.3016 76.2277 53.4329 76.2277 53.5915C76.2277 53.7523 76.1064 53.8836 75.9578 53.8836C75.8071 53.8836 75.688 53.7523 75.688 53.5915ZM76.0289 50.4093C76.575 50.4093 77.0164 50.8528 77.0164 51.399C77.0164 51.943 76.575 52.3901 76.0289 52.3901C75.4705 52.3901 75.0327 51.943 75.0327 51.399C75.0327 50.8528 75.4705 50.4093 76.0289 50.4093ZM75.2566 56.951C75.4956 56.951 75.688 57.1441 75.688 57.3816C75.688 57.6199 75.4956 57.8144 75.2566 57.8144C75.0133 57.8144 74.8231 57.6199 74.8231 57.3816C74.8231 57.1441 75.0133 56.951 75.2566 56.951ZM73.8198 52.3514C74.366 52.3514 74.8074 52.7942 74.8074 53.3411C74.8074 53.8858 74.366 54.3322 73.8198 54.3322C73.2615 54.3322 72.8244 53.8851 72.8244 53.3411C72.8244 52.7942 73.2615 52.3514 73.8198 52.3514ZM73.2478 60.5157C72.9572 60.5157 72.7304 60.2839 72.7304 60.0005C72.7304 59.7162 72.9564 59.4859 73.2478 59.4859C73.532 59.4859 73.761 59.7155 73.761 60.0005C73.761 60.2839 73.532 60.5157 73.2478 60.5157ZM73.7452 61.7487C73.7452 62.1147 73.4488 62.4147 73.0813 62.4147C72.7067 62.4147 72.4132 62.1147 72.4132 61.7487C72.4132 61.3813 72.706 61.0842 73.0813 61.0842C73.4488 61.0849 73.7452 61.382 73.7452 61.7487ZM73.7423 58.5665C73.4287 58.5665 73.1825 58.3153 73.1825 58.0089C73.1825 57.7024 73.4294 57.4527 73.7423 57.4527C74.0502 57.4527 74.2978 57.7024 74.2978 58.0089C74.2978 58.3153 74.0495 58.5665 73.7423 58.5665ZM74.2275 56.4838C73.9842 56.4838 73.794 56.2893 73.794 56.051C73.794 55.8135 73.9849 55.6204 74.2275 55.6204C74.4657 55.6204 74.6588 55.8135 74.6588 56.051C74.6588 56.2893 74.4657 56.4838 74.2275 56.4838ZM72.6443 55.1984C72.7928 55.1984 72.9141 55.3298 72.9141 55.4891C72.9141 55.6498 72.7928 55.7805 72.6443 55.7805C72.4935 55.7805 72.3744 55.6498 72.3744 55.4891C72.3744 55.3298 72.4935 55.1984 72.6443 55.1984ZM70.9878 50.982C71.0912 50.982 71.1737 51.0717 71.1737 51.1808C71.1737 51.2914 71.0912 51.3818 70.9878 51.3818C70.8838 51.3818 70.8027 51.2921 70.8027 51.1808C70.8027 51.0725 70.8838 50.982 70.9878 50.982ZM71.2412 53.0777C71.5254 53.0777 71.7543 53.308 71.7543 53.5922C71.7543 53.8757 71.5254 54.1075 71.2412 54.1075C70.9498 54.1075 70.723 53.8757 70.723 53.5922C70.7237 53.308 70.9498 53.0777 71.2412 53.0777ZM69.3809 52.0464C69.5302 52.0464 69.6508 52.1777 69.6508 52.3363C69.6508 52.4971 69.5302 52.6284 69.3809 52.6284C69.2302 52.6284 69.1111 52.4971 69.1111 52.3363C69.1111 52.1777 69.2302 52.0464 69.3809 52.0464ZM69.5331 53.4372C69.7721 53.4372 69.9644 53.6303 69.9644 53.8678C69.9644 54.1054 69.7721 54.3006 69.5331 54.3006C69.2898 54.3006 69.0996 54.1061 69.0996 53.8678C69.0996 53.6296 69.2898 53.4372 69.5331 53.4372ZM70.5091 55.0276C71.4429 55.0276 72.1979 55.7855 72.1979 56.7192C72.1979 57.65 71.4429 58.4144 70.5091 58.4144C69.5539 58.4144 68.8075 57.6508 68.8075 56.7192C68.8075 55.7855 69.5539 55.0276 70.5091 55.0276ZM69.8022 61.0382C69.8022 60.5803 70.1718 60.2057 70.639 60.2057C71.0998 60.2057 71.4694 60.5796 71.4694 61.0382C71.4694 61.4968 71.0991 61.8722 70.639 61.8722C70.1718 61.8722 69.8022 61.4961 69.8022 61.0382ZM70.4991 63.431C70.4991 63.7145 70.2702 63.9463 69.986 63.9463C69.6953 63.9463 69.4678 63.7145 69.4678 63.431C69.4678 63.1468 69.6946 62.9164 69.986 62.9164C70.2702 62.9164 70.4991 63.1468 70.4991 63.431ZM71.3165 59.7966C71.0732 59.7966 70.8831 59.6021 70.8831 59.3646C70.8831 59.1263 71.074 58.934 71.3165 58.934C71.5548 58.934 71.7472 59.127 71.7472 59.3646C71.7464 59.6021 71.5548 59.7966 71.3165 59.7966ZM68.7594 58.7624C68.7594 59 68.5671 59.1945 68.3281 59.1945C68.0848 59.1945 67.8946 59 67.8946 58.7624C67.8946 58.5242 68.0848 58.3318 68.3281 58.3318C68.5678 58.3318 68.7594 58.5242 68.7594 58.7624ZM68.0597 60.3937C68.3791 60.3937 68.6374 60.6528 68.6374 60.9722C68.6374 61.2916 68.3798 61.5499 68.0597 61.5499C67.7418 61.5499 67.482 61.2908 67.482 60.9722C67.482 60.6535 67.741 60.3937 68.0597 60.3937ZM67.6241 56.8053C67.6241 56.6568 67.7439 56.5369 67.8939 56.5369C68.0432 56.5369 68.163 56.6568 68.163 56.8053C68.163 56.9539 68.0432 57.0752 67.8939 57.0752C67.7439 57.0752 67.6241 56.9532 67.6241 56.8053ZM67.5257 62.0258C68.163 62.0258 68.6776 62.5439 68.6776 63.1812C68.6776 63.8185 68.1623 64.336 67.5257 64.336C66.8891 64.336 66.3717 63.8178 66.3717 63.1812C66.371 62.5432 66.8884 62.0258 67.5257 62.0258ZM67.7762 53.0109C68.0152 53.0109 68.2075 53.204 68.2075 53.4415C68.2075 53.6791 68.0152 53.8736 67.7762 53.8736C67.5336 53.8736 67.3427 53.6791 67.3427 53.4415C67.3434 53.2033 67.5336 53.0109 67.7762 53.0109ZM67.576 54.8181C67.8142 54.8181 68.0066 55.0111 68.0066 55.2487C68.0066 55.4862 67.8142 55.6807 67.576 55.6807C67.3327 55.6807 67.1425 55.4862 67.1425 55.2487C67.1418 55.0104 67.3327 54.8181 67.576 54.8181ZM66.2526 60.6966C65.7954 60.6966 65.4236 60.3248 65.4236 59.8677C65.4236 59.4105 65.7961 59.0388 66.2526 59.0388C66.7119 59.0388 67.0808 59.4098 67.0808 59.8677C67.0808 60.3256 66.7119 60.6966 66.2526 60.6966ZM63.2993 61.7746C63.2993 61.1279 63.8239 60.6033 64.4705 60.6033C65.1179 60.6033 65.6411 61.1279 65.6411 61.7746C65.6411 62.4212 65.1179 62.9458 64.4705 62.9458C63.8239 62.9458 63.2993 62.4212 63.2993 61.7746ZM64.1792 63.7317C64.1792 63.8925 64.0593 64.0238 63.91 64.0238C63.7593 64.0238 63.6402 63.8925 63.6402 63.7317C63.6402 63.5724 63.7593 63.4417 63.91 63.4417C64.0593 63.4417 64.1792 63.5724 64.1792 63.7317ZM64.8452 58.4108C64.8452 58.2622 64.9643 58.1416 65.1157 58.1416C65.265 58.1416 65.3849 58.2622 65.3849 58.4108C65.3849 58.5593 65.265 58.6806 65.1157 58.6806C64.9643 58.6806 64.8452 58.5593 64.8452 58.4108ZM65.3992 63.9578C65.8585 63.9578 66.2274 64.3288 66.2274 64.7867C66.2274 65.2446 65.8578 65.6156 65.3992 65.6156C64.9421 65.6156 64.5703 65.2446 64.5703 64.7867C64.5703 64.3288 64.9421 63.9578 65.3992 63.9578ZM65.4272 57.0551C65.4272 56.6381 65.7631 56.2994 66.1887 56.2994C66.6071 56.2994 66.9444 56.6388 66.9444 57.0551C66.9444 57.4728 66.6071 57.8137 66.1887 57.8137C65.7624 57.8137 65.4272 57.472 65.4272 57.0551ZM66.5719 50.9526C66.8102 50.9526 67.0025 51.1457 67.0025 51.3832C67.0025 51.6208 66.8102 51.8153 66.5719 51.8153C66.3286 51.8153 66.1384 51.6208 66.1384 51.3832C66.1384 51.1449 66.3294 50.9526 66.5719 50.9526ZM65.4925 52.8351C65.7308 52.8351 65.9231 53.0281 65.9231 53.2657C65.9231 53.504 65.7308 53.6985 65.4925 53.6985C65.2492 53.6985 65.059 53.504 65.059 53.2657C65.059 53.0274 65.25 52.8351 65.4925 52.8351ZM64.7146 54.968C64.9536 54.968 65.1452 55.1611 65.1452 55.3987C65.1452 55.6362 64.9528 55.8307 64.7146 55.8307C64.4713 55.8307 64.2811 55.6362 64.2811 55.3987C64.2811 55.1611 64.4713 54.968 64.7146 54.968ZM63.7105 58.9935C63.4672 58.9935 63.277 58.799 63.277 58.5615C63.277 58.3239 63.4679 58.1309 63.7105 58.1309C63.9495 58.1309 64.1411 58.3239 64.1411 58.5615C64.1411 58.799 63.9495 58.9935 63.7105 58.9935ZM63.8598 51.2433C64.0091 51.2433 64.1296 51.3746 64.1296 51.5332C64.1296 51.694 64.0091 51.8253 63.8598 51.8253C63.7098 51.8253 63.5907 51.694 63.5907 51.5332C63.5899 51.3746 63.7091 51.2433 63.8598 51.2433ZM63.1084 52.7095C63.3474 52.7095 63.539 52.9026 63.539 53.1401C63.539 53.3777 63.3467 53.5722 63.1084 53.5722C62.8651 53.5722 62.6749 53.3777 62.6749 53.1401C62.6749 52.9026 62.8651 52.7095 63.1084 52.7095ZM61.6508 49.9385C61.8 49.9385 61.9206 50.0699 61.9206 50.2285C61.9206 50.3892 61.8 50.5206 61.6508 50.5206C61.5001 50.5206 61.3809 50.3892 61.3809 50.2285C61.3809 50.0691 61.5001 49.9385 61.6508 49.9385ZM61.9364 53.6913C61.9364 53.8018 61.8532 53.8922 61.7512 53.8922C61.6479 53.8922 61.5661 53.8018 61.5661 53.6913C61.5661 53.5822 61.6479 53.4918 61.7512 53.4918C61.8532 53.4918 61.9364 53.5822 61.9364 53.6913ZM61.7749 54.5252C62.7086 54.5252 63.4629 55.2831 63.4629 56.2168C63.4629 57.1477 62.7086 57.9113 61.7749 57.9113C60.8197 57.9113 60.0726 57.1477 60.0726 56.2168C60.0726 55.2831 60.8197 54.5252 61.7749 54.5252ZM63.2756 59.9854C63.2756 60.1339 63.1558 60.2552 63.0065 60.2552C62.8558 60.2552 62.7366 60.1339 62.7366 59.9854C62.7366 59.8368 62.8558 59.717 63.0065 59.717C63.1558 59.717 63.2756 59.8368 63.2756 59.9854ZM61.4024 61.1186C60.9625 61.1186 60.6144 60.7662 60.6144 60.3349C60.6144 59.9036 60.9618 59.5533 61.4024 59.5533C61.8352 59.5533 62.1826 59.9036 62.1826 60.3349C62.1833 60.7662 61.8352 61.1186 61.4024 61.1186ZM61.8697 66.8622C61.8697 67.0115 61.7498 67.1321 61.6005 67.1321C61.4505 67.1321 61.3307 67.0115 61.3307 66.8622C61.3307 66.7144 61.4505 66.5938 61.6005 66.5938C61.7498 66.5938 61.8697 66.7144 61.8697 66.8622ZM60.4781 58.8127C60.4781 58.6641 60.5972 58.5436 60.7479 58.5436C60.8972 58.5436 61.0171 58.6641 61.0171 58.8127C61.0171 58.9612 60.8972 59.0825 60.7479 59.0825C60.5965 59.0825 60.4781 58.9605 60.4781 58.8127ZM62.3053 62.3975C62.5443 62.3975 62.7359 62.5906 62.7359 62.8281C62.7359 63.0657 62.5436 63.2602 62.3053 63.2602C62.062 63.2602 61.8718 63.0657 61.8718 62.8281C61.8718 62.5906 62.062 62.3975 62.3053 62.3975ZM60.9194 52.6715C60.9194 53.2155 60.4774 53.6626 59.9319 53.6626C59.3736 53.6626 58.9365 53.2155 58.9365 52.6715C58.9365 52.1246 59.3736 51.6818 59.9319 51.6818C60.4781 51.6818 60.9194 52.1253 60.9194 52.6715ZM59.975 58.1596C59.975 58.3971 59.7826 58.5916 59.5444 58.5916C59.3011 58.5916 59.1109 58.3971 59.1109 58.1596C59.1109 57.922 59.3018 57.729 59.5444 57.729C59.7826 57.729 59.975 57.922 59.975 58.1596ZM57.6368 57.4283C57.875 57.4283 58.0674 57.6213 58.0674 57.8589C58.0674 58.0964 57.875 58.2916 57.6368 58.2916C57.3935 58.2916 57.2033 58.0972 57.2033 57.8589C57.2033 57.6206 57.3935 57.4283 57.6368 57.4283ZM57.1832 53.6927C57.1832 53.5334 57.3023 53.4028 57.453 53.4028C57.6023 53.4028 57.7222 53.5334 57.7222 53.6927C57.7222 53.8542 57.6023 53.9848 57.453 53.9848C57.3023 53.9848 57.1832 53.8542 57.1832 53.6927ZM57.8557 56.1522C57.8557 55.9147 58.0466 55.7216 58.2891 55.7216C58.5274 55.7216 58.7197 55.9147 58.7197 56.1522C58.7197 56.3898 58.5274 56.5843 58.2891 56.5843C58.0458 56.5843 57.8557 56.3898 57.8557 56.1522ZM58.6408 59.7119C58.8798 59.7119 59.0714 59.905 59.0714 60.1426C59.0714 60.3801 58.8791 60.5746 58.6408 60.5746C58.3982 60.5746 58.2073 60.3801 58.2073 60.1426C58.2073 59.905 58.3975 59.7119 58.6408 59.7119ZM58.5597 49.1053C59.1059 49.1053 59.5472 49.5481 59.5472 50.095C59.5472 50.6397 59.1059 51.0861 58.5597 51.0861C58.0013 51.0861 57.5643 50.639 57.5643 50.095C57.5643 49.5481 58.0013 49.1053 58.5597 49.1053ZM56.6514 46.0932C57.1236 46.0932 57.5054 46.4764 57.5054 46.9486C57.5054 47.4194 57.1236 47.8056 56.6514 47.8056C56.1684 47.8056 55.7909 47.4187 55.7909 46.9486C55.7909 46.4771 56.1684 46.0932 56.6514 46.0932ZM56.6327 60.5997C56.3894 60.5997 56.1992 60.4052 56.1992 60.1677C56.1992 59.9294 56.3901 59.7371 56.6327 59.7371C56.871 59.7371 57.0633 59.9301 57.0633 60.1677C57.0633 60.4052 56.871 60.5997 56.6327 60.5997ZM56.8502 64.6862C56.8502 64.8348 56.7303 64.9561 56.581 64.9561C56.4303 64.9561 56.3112 64.8348 56.3112 64.6862C56.3112 64.5377 56.4303 64.4171 56.581 64.4171C56.7303 64.4171 56.8502 64.5377 56.8502 64.6862ZM55.277 59.2964C55.4263 59.2964 55.5454 59.417 55.5454 59.5655C55.5454 59.7141 55.4256 59.8354 55.277 59.8354C55.1256 59.8354 55.0072 59.7141 55.0072 59.5655C55.0072 59.417 55.1256 59.2964 55.277 59.2964ZM54.9404 53.2406C54.9404 53.1315 55.0215 53.0411 55.1256 53.0411C55.2282 53.0411 55.3115 53.1315 55.3115 53.2406C55.3115 53.3511 55.2282 53.4415 55.1256 53.4415C55.0215 53.4415 54.9404 53.3511 54.9404 53.2406ZM55.295 57.9594C55.295 57.7218 55.4859 57.5287 55.7284 57.5287C55.9674 57.5287 56.159 57.7218 56.159 57.9594C56.159 58.1969 55.9667 58.3914 55.7284 58.3914C55.4859 58.3914 55.295 58.1969 55.295 57.9594ZM55.8978 55.6498C55.8978 55.4116 56.0887 55.2192 56.3313 55.2192C56.5703 55.2192 56.7619 55.4123 56.7619 55.6498C56.7619 55.8874 56.5696 56.0819 56.3313 56.0819C56.088 56.0819 55.8978 55.8874 55.8978 55.6498ZM55.0129 42.4803C55.6129 42.4803 56.0995 42.9677 56.0995 43.5698C56.0995 44.1691 55.6129 44.6614 55.0129 44.6614C54.3978 44.6614 53.917 44.1691 53.917 43.5698C53.917 42.9677 54.3978 42.4803 55.0129 42.4803ZM53.9723 60.1985C53.729 60.1985 53.5388 60.004 53.5388 59.7665C53.5388 59.5282 53.7297 59.3359 53.9723 59.3359C54.2105 59.3359 54.4029 59.5289 54.4029 59.7665C54.4029 60.004 54.2105 60.1985 53.9723 60.1985ZM54.039 61.9748C54.039 62.1234 53.9192 62.2446 53.7699 62.2446C53.6184 62.2446 53.5 62.1234 53.5 61.9748C53.5 61.8262 53.6192 61.7064 53.7699 61.7064C53.9199 61.7064 54.039 61.8262 54.039 61.9748ZM53.6507 56.2017C53.6507 56.0532 53.7699 55.9333 53.9206 55.9333C54.0699 55.9333 54.1897 56.0532 54.1897 56.2017C54.1897 56.3503 54.0699 56.4716 53.9206 56.4716C53.7699 56.4716 53.6507 56.3503 53.6507 56.2017ZM50.5934 37.4659C50.3178 37.4659 50.1018 37.2456 50.1018 36.9764C50.1018 36.7073 50.3178 36.4891 50.5934 36.4891C50.8625 36.4891 51.08 36.708 51.08 36.9764C51.08 37.2448 50.8618 37.4659 50.5934 37.4659ZM51.9986 39.1058C51.723 39.1058 51.507 38.8855 51.507 38.6163C51.507 38.3472 51.723 38.129 51.9986 38.129C52.2678 38.129 52.4852 38.3479 52.4852 38.6163C52.4852 38.8847 52.2678 39.1058 51.9986 39.1058ZM52.7795 40.5907C52.7795 40.2476 53.0543 39.9692 53.4053 39.9692C53.7476 39.9692 54.0254 40.2476 54.0254 40.5907C54.0254 40.933 53.7476 41.2136 53.4053 41.2136C53.0536 41.2136 52.7795 40.933 52.7795 40.5907ZM53.7196 67.7787C53.5689 67.7787 53.4498 67.6467 53.4498 67.4873C53.4498 67.3266 53.5689 67.1974 53.7196 67.1974C53.8689 67.1974 53.9895 67.3273 53.9895 67.4873C53.9895 67.6467 53.8689 67.7787 53.7196 67.7787ZM54.4108 65.4096C53.8524 65.4096 53.4153 64.9625 53.4153 64.4178C53.4153 63.8709 53.8524 63.4281 54.4108 63.4281C54.9562 63.4281 55.3983 63.8709 55.3983 64.4178C55.3983 64.9625 54.9562 65.4096 54.4108 65.4096ZM55.4765 71.1102C55.3725 71.1102 55.2914 71.0191 55.2914 70.9093C55.2914 70.8002 55.3732 70.7105 55.4765 70.7105C55.5792 70.7105 55.6624 70.8002 55.6624 70.9093C55.6624 71.0191 55.5792 71.1102 55.4765 71.1102ZM55.6287 62.4571C55.3854 62.4571 55.1952 62.2626 55.1952 62.025C55.1952 61.7868 55.3861 61.5944 55.6287 61.5944C55.8669 61.5944 56.0593 61.7875 56.0593 62.025C56.0593 62.2626 55.8669 62.4571 55.6287 62.4571ZM56.482 68.983C56.2387 68.983 56.0485 68.7885 56.0485 68.5495C56.0485 68.3127 56.2394 68.1196 56.482 68.1196C56.7203 68.1196 56.9126 68.3127 56.9126 68.5495C56.9126 68.7885 56.7203 68.983 56.482 68.983ZM56.8638 61.6734C56.8638 61.5248 56.9829 61.4042 57.1337 61.4042C57.2829 61.4042 57.4021 61.5248 57.4021 61.6734C57.4021 61.8219 57.2822 61.9432 57.1337 61.9432C56.9829 61.9432 56.8638 61.8219 56.8638 61.6734ZM57.5348 73.4707C57.3841 73.4707 57.265 73.3386 57.265 73.1793C57.265 73.02 57.3841 72.8893 57.5348 72.8893C57.6841 72.8893 57.804 73.02 57.804 73.1793C57.804 73.3386 57.6841 73.4707 57.5348 73.4707ZM57.486 67.2261C57.2427 67.2261 57.0526 67.0316 57.0526 66.7926C57.0526 66.5558 57.2435 66.3627 57.486 66.3627C57.7243 66.3627 57.9167 66.5558 57.9167 66.7926C57.9167 67.0323 57.7243 67.2261 57.486 67.2261ZM57.7308 63.2121C57.7308 62.2777 58.4779 61.5205 59.4331 61.5205C60.3675 61.5205 61.1211 62.2777 61.1211 63.2121C61.1211 64.1429 60.3675 64.9065 59.4331 64.9065C58.4772 64.9065 57.7308 64.1429 57.7308 63.2121ZM59.2594 67.8469C59.2594 67.9962 59.1396 68.1167 58.9903 68.1167C58.8396 68.1167 58.7205 67.9962 58.7205 67.8469C58.7205 67.6998 58.8396 67.5792 58.9903 67.5792C59.1396 67.5792 59.2594 67.6998 59.2594 67.8469ZM58.7398 65.4993C58.8891 65.4993 59.009 65.6307 59.009 65.7893C59.009 65.9501 58.8891 66.0814 58.7398 66.0814C58.5891 66.0814 58.47 65.9501 58.47 65.7893C58.47 65.6307 58.5891 65.4993 58.7398 65.4993ZM58.508 69.1531C58.508 68.9162 58.6989 68.7225 58.9415 68.7225C59.1798 68.7225 59.3721 68.9162 59.3721 69.1531C59.3721 69.3914 59.1798 69.5858 58.9415 69.5858C58.6989 69.5851 58.508 69.3914 58.508 69.1531ZM59.342 72.3468C59.192 72.3468 59.0721 72.2147 59.0721 72.0547C59.0721 71.8946 59.192 71.7647 59.342 71.7647C59.4913 71.7647 59.6111 71.8954 59.6111 72.0547C59.6111 72.2147 59.4913 72.3468 59.342 72.3468ZM59.6125 66.5924C59.6125 66.3548 59.8027 66.1618 60.046 66.1618C60.285 66.1618 60.4766 66.3548 60.4766 66.5924C60.4766 66.8307 60.2843 67.0259 60.046 67.0259C59.8027 67.0259 59.6125 66.8307 59.6125 66.5924ZM60.4967 70.0566C60.3934 70.0566 60.3116 69.9669 60.3116 69.8557C60.3116 69.748 60.3934 69.6569 60.4967 69.6569C60.5994 69.6569 60.6819 69.748 60.6819 69.8557C60.6819 69.9669 60.5986 70.0566 60.4967 70.0566ZM60.8793 65.4283C60.8793 65.269 60.9984 65.1384 61.1491 65.1384C61.2984 65.1384 61.4182 65.2697 61.4182 65.4283C61.4182 65.5891 61.2984 65.7204 61.1491 65.7204C60.9984 65.7204 60.8793 65.5891 60.8793 65.4283ZM61.5015 67.9696C61.7405 67.9696 61.9321 68.1627 61.9321 68.3995C61.9321 68.6385 61.7398 68.833 61.5015 68.833C61.2589 68.833 61.068 68.6385 61.068 68.3995C61.068 68.1627 61.2589 67.9696 61.5015 67.9696ZM61.9823 71.0104C61.9823 71.2487 61.79 71.4432 61.5517 71.4432C61.3084 71.4432 61.1182 71.2487 61.1182 71.0104C61.1182 70.7736 61.3091 70.5798 61.5517 70.5798C61.7907 70.5798 61.9823 70.7736 61.9823 71.0104ZM61.3501 75.6689C61.1993 75.6689 61.0802 75.5383 61.0802 75.3776C61.0802 75.2189 61.1993 75.0876 61.3501 75.0876C61.4993 75.0876 61.6199 75.2197 61.6199 75.3776C61.6192 75.5383 61.4986 75.6689 61.3501 75.6689ZM61.8266 73.846C61.7233 73.846 61.6414 73.757 61.6414 73.6458C61.6414 73.5374 61.7233 73.447 61.8266 73.447C61.9292 73.447 62.0118 73.5374 62.0118 73.6458C62.0118 73.757 61.9292 73.846 61.8266 73.846ZM62.0297 65.4218C62.0297 64.9769 62.3885 64.6152 62.8414 64.6152C63.2878 64.6152 63.6466 64.9769 63.6466 65.4218C63.6466 65.8668 63.2878 66.23 62.8414 66.23C62.3885 66.23 62.0297 65.8668 62.0297 65.4218ZM63.5089 71.4023C63.3581 71.4023 63.239 71.2717 63.239 71.1109C63.239 70.9523 63.3581 70.821 63.5089 70.821C63.6581 70.821 63.778 70.953 63.778 71.1109C63.778 71.2717 63.6574 71.4023 63.5089 71.4023ZM64.65 75.7421C65.1961 75.7421 65.6375 76.1864 65.6375 76.7325C65.6375 77.2765 65.1961 77.7237 64.65 77.7237C64.0916 77.7237 63.6545 77.2765 63.6545 76.7325C63.6545 76.1871 64.0916 75.7421 64.65 75.7421ZM63.4435 90.5415C63.1306 90.5415 62.8866 90.2896 62.8866 89.9846C62.8866 89.6796 63.1306 89.4312 63.4435 89.4312C63.7493 89.4312 63.9969 89.6796 63.9969 89.9846C63.9969 90.2896 63.7493 90.5415 63.4435 90.5415ZM63.9122 86.3574C63.4486 86.3574 63.0861 85.9871 63.0861 85.5342C63.0861 85.0814 63.4486 84.7118 63.9122 84.7118C64.3658 84.7118 64.7325 85.0806 64.7325 85.5342C64.7325 85.9878 64.3658 86.3574 63.9122 86.3574ZM64.2481 82.7762C63.7091 82.7762 63.2878 82.3448 63.2878 81.8195C63.2878 81.2913 63.7091 80.8628 64.2481 80.8628C64.7756 80.8628 65.2019 81.2913 65.2019 81.8195C65.2019 82.3456 64.7756 82.7762 64.2481 82.7762ZM65.0174 79.8997C64.6098 79.8997 64.2904 79.5731 64.2904 79.1763C64.2904 78.7772 64.6091 78.4528 65.0174 78.4528C65.4157 78.4528 65.7373 78.7772 65.7373 79.1763C65.7373 79.5731 65.4157 79.8997 65.0174 79.8997ZM64.7842 74.2106C64.2258 74.2106 63.7887 73.7635 63.7887 73.2188C63.7887 72.6726 64.2258 72.2291 64.7842 72.2291C65.3296 72.2291 65.7717 72.6726 65.7717 73.2188C65.7717 73.7635 65.3296 74.2106 64.7842 74.2106ZM66.2188 71.4525C66.0681 71.4525 65.949 71.3219 65.949 71.1612C65.949 71.0025 66.0681 70.8712 66.2188 70.8712C66.3681 70.8712 66.4887 71.0033 66.4887 71.1612C66.4887 71.3219 66.3681 71.4525 66.2188 71.4525ZM65.1552 70.3617C64.1993 70.3617 63.4529 69.598 63.4529 68.6665C63.4529 67.7328 64.2 66.9756 65.1552 66.9756C66.0882 66.9756 66.8432 67.7335 66.8432 68.6665C66.8432 69.598 66.0889 70.3617 65.1552 70.3617ZM67.4741 75.178C67.37 75.178 67.2882 75.0869 67.2882 74.9771C67.2882 74.8673 67.37 74.7783 67.4741 74.7783C67.576 74.7783 67.6592 74.8673 67.6592 74.9771C67.6592 75.0869 67.576 75.178 67.4741 75.178ZM67.2925 71.06C67.2925 70.8231 67.4834 70.6301 67.726 70.6301C67.9642 70.6301 68.1566 70.8231 68.1566 71.06C68.1566 71.299 67.9642 71.4934 67.726 71.4934C67.4834 71.4927 67.2925 71.299 67.2925 71.06ZM68.0102 73.17C67.9061 73.17 67.825 73.0788 67.825 72.969C67.825 72.8599 67.9061 72.7702 68.0102 72.7702C68.1135 72.7702 68.1961 72.8599 68.1961 72.969C68.1961 73.0788 68.1135 73.17 68.0102 73.17ZM68.2283 68.9327C67.985 68.9327 67.7949 68.7383 67.7949 68.5C67.7949 68.2632 67.9858 68.0694 68.2283 68.0694C68.4666 68.0694 68.6597 68.2632 68.6597 68.5C68.6597 68.739 68.4666 68.9327 68.2283 68.9327ZM68.331 66.8752C67.8918 66.8752 67.5437 66.522 67.5437 66.0907C67.5437 65.6594 67.891 65.3092 68.331 65.3092C68.763 65.3092 69.1111 65.6601 69.1111 66.0907C69.1111 66.5213 68.7623 66.8752 68.331 66.8752ZM69.1621 59.666C69.1621 59.5067 69.2812 59.3761 69.4319 59.3761C69.5805 59.3761 69.7018 59.5074 69.7018 59.666C69.7018 59.8268 69.5805 59.9581 69.4319 59.9581C69.2812 59.9574 69.1621 59.8268 69.1621 59.666ZM69.8855 72.1458C69.6422 72.1458 69.452 71.9513 69.452 71.7123C69.452 71.4755 69.6429 71.2824 69.8855 71.2824C70.1238 71.2824 70.3161 71.4755 70.3161 71.7123C70.3154 71.9513 70.1238 72.1458 69.8855 72.1458ZM69.935 69.987C69.6917 69.987 69.5015 69.7925 69.5015 69.5543C69.5015 69.3174 69.6924 69.1237 69.935 69.1237C70.1733 69.1237 70.3663 69.3174 70.3663 69.5543C70.3663 69.7925 70.1733 69.987 69.935 69.987ZM70.5859 68.05C70.3426 68.05 70.1525 67.8555 70.1525 67.6165C70.1525 67.3804 70.3434 67.1866 70.5859 67.1866C70.8242 67.1866 71.0173 67.3804 71.0173 67.6165C71.0173 67.8555 70.8242 68.05 70.5859 68.05ZM71.6216 70.5073C71.6216 70.3487 71.7407 70.2174 71.8914 70.2174C72.0407 70.2174 72.1613 70.3495 72.1613 70.5073C72.1613 70.6695 72.0407 70.7994 71.8914 70.7994C71.7407 70.8002 71.6216 70.6695 71.6216 70.5073ZM72.1921 73.4606C72.0414 73.4606 71.9223 73.33 71.9223 73.1685C71.9223 73.0099 72.0414 72.8786 72.1921 72.8786C72.3414 72.8786 72.462 73.0106 72.462 73.1685C72.462 73.33 72.3414 73.4606 72.1921 73.4606ZM72.6457 68.7325C72.4024 68.7325 72.2122 68.538 72.2122 68.299C72.2122 68.0622 72.4031 67.8691 72.6457 67.8691C72.884 67.8691 73.0763 68.0622 73.0763 68.299C73.0763 68.5373 72.884 68.7325 72.6457 68.7325ZM72.4842 66.5127C71.529 66.5127 70.7826 65.7491 70.7826 64.8183C70.7826 63.8838 71.529 63.1267 72.4842 63.1267C73.4186 63.1267 74.1729 63.8838 74.1729 64.8183C74.1722 65.7491 73.4179 66.5127 72.4842 66.5127ZM74.2512 67.8383C74.1004 67.8383 73.9813 67.7077 73.9813 67.5469C73.9813 67.3883 74.1004 67.257 74.2512 67.257C74.3997 67.257 74.521 67.389 74.521 67.5469C74.521 67.7077 74.3997 67.8383 74.2512 67.8383ZM74.8526 70.3574C74.7485 70.3574 74.6674 70.2676 74.6674 70.1564C74.6674 70.0487 74.7485 69.9576 74.8526 69.9576C74.9552 69.9576 75.0377 70.0487 75.0377 70.1564C75.0377 70.2676 74.9552 70.3574 74.8526 70.3574ZM74.6545 63.4862C74.4112 63.4862 74.221 63.2918 74.221 63.0542C74.221 62.8166 74.4119 62.6236 74.6545 62.6236C74.8928 62.6236 75.0851 62.8166 75.0851 63.0542C75.0851 63.2918 74.8928 63.4862 74.6545 63.4862ZM75.2739 61.5729C75.2739 61.3353 75.4648 61.1423 75.7073 61.1423C75.9456 61.1423 76.1379 61.3353 76.1379 61.5729C76.1379 61.8112 75.9456 62.0057 75.7073 62.0057C75.4648 62.0057 75.2739 61.8112 75.2739 61.5729ZM76.5973 67.7177C76.0389 67.7177 75.6018 67.2706 75.6018 66.7259C75.6018 66.179 76.0382 65.7369 76.5973 65.7369C77.1434 65.7369 77.5848 66.1797 77.5848 66.7259C77.5848 67.2706 77.1434 67.7177 76.5973 67.7177ZM77.264 60.7504C77.0207 60.7504 76.8305 60.5559 76.8305 60.3177C76.8305 60.0794 77.0214 59.8871 77.264 59.8871C77.5023 59.8871 77.6953 60.0801 77.6953 60.3177C77.6953 60.5552 77.5023 60.7504 77.264 60.7504ZM77.7133 56.2017C77.6099 56.2017 77.5281 56.112 77.5281 56.0008C77.5281 55.8917 77.6099 55.802 77.7133 55.802C77.8166 55.802 77.8999 55.8917 77.8999 56.0008C77.8999 56.112 77.8159 56.2017 77.7133 56.2017ZM77.3422 49.8266C77.3422 49.4089 77.6759 49.0708 78.103 49.0708C78.5192 49.0708 78.8565 49.4089 78.8565 49.8266C78.8565 50.2421 78.5192 50.5837 78.103 50.5837C77.6759 50.583 77.3422 50.2421 77.3422 49.8266ZM78.6678 58.9239C78.8171 58.9239 78.9376 59.0553 78.9376 59.2139C78.9376 59.3746 78.8171 59.5052 78.6678 59.5052C78.5178 59.5052 78.3979 59.3746 78.3979 59.2139C78.3979 59.0545 78.5178 58.9239 78.6678 58.9239ZM78.4475 62.5784C78.4475 62.4693 78.5286 62.3789 78.6326 62.3789C78.736 62.3789 78.8185 62.4686 78.8185 62.5784C78.8185 62.6889 78.736 62.7793 78.6326 62.7793C78.5293 62.7786 78.4475 62.6882 78.4475 62.5784ZM78.6498 65.1376C78.6498 64.9783 78.769 64.8477 78.919 64.8477C79.0683 64.8477 79.1888 64.9783 79.1888 65.1376C79.1888 65.2984 79.0683 65.429 78.919 65.429C78.769 65.429 78.6498 65.2984 78.6498 65.1376ZM79.8434 68.7555C79.285 68.7555 78.8479 68.3084 78.8479 67.7644C78.8479 67.2168 79.2843 66.7747 79.8434 66.7747C80.3895 66.7747 80.8309 67.2168 80.8309 67.7644C80.8309 68.3084 80.3888 68.7555 79.8434 68.7555ZM86.8365 40.7385C87.1975 40.7385 87.4896 41.0321 87.4896 41.3938C87.4896 41.754 87.1975 42.0504 86.8365 42.0504C86.4647 42.0504 86.1769 41.754 86.1769 41.3938C86.1769 41.0321 86.4647 40.7385 86.8365 40.7385ZM83.5236 43.5497C84.0325 43.5497 84.4444 43.9624 84.4444 44.4719C84.4444 44.98 84.0325 45.397 83.5236 45.397C83.0019 45.397 82.595 44.98 82.595 44.4719C82.5957 43.9631 83.0026 43.5497 83.5236 43.5497ZM81.09 46.3465C81.09 46.0401 81.3347 45.7925 81.6483 45.7925C81.9541 45.7925 82.2017 46.0408 82.2017 46.3465C82.2017 46.6522 81.9533 46.9027 81.6483 46.9027C81.3347 46.9027 81.09 46.6522 81.09 46.3465ZM82.4866 69.6246C82.0036 69.6246 81.6261 69.2392 81.6261 68.7684C81.6261 68.2947 82.0036 67.9122 82.4866 67.9122C82.9588 67.9122 83.3406 68.2947 83.3406 68.7684C83.3413 69.2392 82.9588 69.6246 82.4866 69.6246ZM85.0638 70.4298C84.6181 70.4298 84.27 70.0732 84.27 69.6382C84.27 69.2026 84.6181 68.8495 85.0638 68.8495C85.498 68.8495 85.8504 69.2019 85.8504 69.6382C85.8504 70.0732 85.498 70.4298 85.0638 70.4298ZM87.5405 72.0009C86.9822 72.0009 86.5451 71.5537 86.5451 71.0097C86.5451 70.4621 86.9814 70.0193 87.5405 70.0193C88.0852 70.0193 88.5273 70.4621 88.5273 71.0097C88.5273 71.5537 88.0852 72.0009 87.5405 72.0009ZM91.2222 73.2719C90.6639 73.2719 90.2268 72.8269 90.2268 72.2822C90.2268 71.7346 90.6632 71.2925 91.2222 71.2925C91.7677 71.2925 92.2091 71.7346 92.2091 72.2822C92.2091 72.8269 91.7677 73.2719 91.2222 73.2719ZM93.6624 74.0089C93.3114 74.0089 93.0365 73.7283 93.0365 73.3867C93.0365 73.0415 93.3114 72.7637 93.6624 72.7637C94.0054 72.7637 94.2832 73.0415 94.2832 73.3867C94.2839 73.729 94.0054 74.0089 93.6624 74.0089Z" fill="white"/>
<defs>
<linearGradient id="paint0_linear_809_2885" x1="118.708" y1="160.591" x2="-9.55861" y2="83.2883" gradientUnits="userSpaceOnUse">
<stop stop-color="#317074"/>
<stop offset="1" stop-color="#034C82"/>
</linearGradient>
</defs>
</svg>
