<svg viewBox="0 0 278 88" fill="none" xmlns="http://www.w3.org/2000/svg">
<path d="M117.64 59.52C116.115 59.52 114.589 59.3987 113.064 59.156C111.539 58.948 110.1 58.6187 108.748 58.168C107.396 57.6827 106.183 57.0933 105.108 56.4C104.484 55.984 104.051 55.4813 103.808 54.892C103.565 54.3027 103.479 53.7307 103.548 53.176C103.652 52.5867 103.877 52.084 104.224 51.668C104.605 51.2173 105.073 50.94 105.628 50.836C106.183 50.732 106.789 50.888 107.448 51.304C108.973 52.2053 110.585 52.864 112.284 53.28C113.983 53.696 115.768 53.904 117.64 53.904C120.379 53.904 122.372 53.4533 123.62 52.552C124.868 51.616 125.492 50.42 125.492 48.964C125.492 47.7507 125.041 46.7973 124.14 46.104C123.273 45.4107 121.765 44.8387 119.616 44.388L113.896 43.192C110.603 42.4987 108.141 41.3373 106.512 39.708C104.917 38.044 104.12 35.86 104.12 33.156C104.12 31.4573 104.467 29.9147 105.16 28.528C105.853 27.1413 106.824 25.9453 108.072 24.94C109.355 23.9347 110.863 23.172 112.596 22.652C114.364 22.0973 116.305 21.82 118.42 21.82C120.5 21.82 122.476 22.08 124.348 22.6C126.22 23.12 127.901 23.8827 129.392 24.888C129.947 25.2693 130.311 25.7373 130.484 26.292C130.692 26.8467 130.744 27.4013 130.64 27.956C130.536 28.476 130.293 28.9267 129.912 29.308C129.531 29.6893 129.045 29.9147 128.456 29.984C127.901 30.0533 127.26 29.88 126.532 29.464C125.249 28.736 123.949 28.216 122.632 27.904C121.315 27.592 119.893 27.436 118.368 27.436C116.773 27.436 115.404 27.6613 114.26 28.112C113.116 28.5627 112.232 29.204 111.608 30.036C111.019 30.8333 110.724 31.7867 110.724 32.896C110.724 34.144 111.14 35.1493 111.972 35.912C112.804 36.64 114.225 37.212 116.236 37.628L121.904 38.824C125.336 39.552 127.884 40.696 129.548 42.256C131.247 43.816 132.096 45.896 132.096 48.496C132.096 50.16 131.749 51.668 131.056 53.02C130.397 54.372 129.427 55.5333 128.144 56.504C126.896 57.4747 125.388 58.22 123.62 58.74C121.852 59.26 119.859 59.52 117.64 59.52ZM149.717 59.52C146.839 59.52 144.361 58.9827 142.281 57.908C140.201 56.8333 138.589 55.308 137.445 53.332C136.335 51.356 135.781 49.016 135.781 46.312C135.781 43.6773 136.318 41.372 137.393 39.396C138.502 37.42 140.01 35.8773 141.917 34.768C143.858 33.624 146.059 33.052 148.521 33.052C150.323 33.052 151.935 33.3467 153.357 33.936C154.813 34.5253 156.043 35.3747 157.049 36.484C158.089 37.5933 158.869 38.9453 159.389 40.54C159.943 42.1 160.221 43.868 160.221 45.844C160.221 46.468 159.995 46.9533 159.545 47.3C159.129 47.612 158.522 47.768 157.725 47.768H141.033V44.024H155.645L154.813 44.804C154.813 43.2093 154.57 41.8747 154.085 40.8C153.634 39.7253 152.958 38.9107 152.057 38.356C151.19 37.7667 150.098 37.472 148.781 37.472C147.325 37.472 146.077 37.8187 145.037 38.512C144.031 39.1707 143.251 40.124 142.697 41.372C142.177 42.5853 141.917 44.0413 141.917 45.74V46.104C141.917 48.9467 142.575 51.0787 143.893 52.5C145.245 53.8867 147.221 54.58 149.821 54.58C150.722 54.58 151.727 54.476 152.837 54.268C153.981 54.0253 155.055 53.6267 156.061 53.072C156.789 52.656 157.43 52.4827 157.985 52.552C158.539 52.5867 158.973 52.7773 159.285 53.124C159.631 53.4707 159.839 53.904 159.909 54.424C159.978 54.9093 159.874 55.412 159.597 55.932C159.354 56.452 158.921 56.9027 158.297 57.284C157.083 58.0467 155.679 58.6187 154.085 59C152.525 59.3467 151.069 59.52 149.717 59.52ZM173.74 59.52C171.903 59.52 170.256 59.1733 168.8 58.48C167.379 57.752 166.252 56.7813 165.42 55.568C164.623 54.3547 164.224 52.9853 164.224 51.46C164.224 49.588 164.71 48.1147 165.68 47.04C166.651 45.9307 168.228 45.1333 170.412 44.648C172.596 44.1627 175.526 43.92 179.2 43.92H181.8V47.664H179.252C177.103 47.664 175.387 47.768 174.104 47.976C172.822 48.184 171.903 48.548 171.348 49.068C170.828 49.5533 170.568 50.2467 170.568 51.148C170.568 52.292 170.967 53.228 171.764 53.956C172.562 54.684 173.671 55.048 175.092 55.048C176.236 55.048 177.242 54.788 178.108 54.268C179.01 53.7133 179.72 52.968 180.24 52.032C180.76 51.096 181.02 50.0213 181.02 48.808V42.828C181.02 41.0947 180.639 39.8467 179.876 39.084C179.114 38.3213 177.831 37.94 176.028 37.94C175.023 37.94 173.931 38.0613 172.752 38.304C171.608 38.5467 170.395 38.9627 169.112 39.552C168.454 39.864 167.864 39.9507 167.344 39.812C166.859 39.6733 166.478 39.396 166.2 38.98C165.923 38.5293 165.784 38.044 165.784 37.524C165.784 37.004 165.923 36.5013 166.2 36.016C166.478 35.496 166.946 35.1147 167.604 34.872C169.199 34.2133 170.724 33.7453 172.18 33.468C173.671 33.1907 175.023 33.052 176.236 33.052C178.732 33.052 180.778 33.4333 182.372 34.196C184.002 34.9587 185.215 36.12 186.012 37.68C186.81 39.2053 187.208 41.1813 187.208 43.608V56.088C187.208 57.1627 186.948 57.9947 186.428 58.584C185.908 59.1387 185.163 59.416 184.192 59.416C183.222 59.416 182.459 59.1387 181.904 58.584C181.384 57.9947 181.124 57.1627 181.124 56.088V53.592H181.54C181.298 54.8053 180.812 55.8627 180.084 56.764C179.391 57.6307 178.507 58.3067 177.432 58.792C176.358 59.2773 175.127 59.52 173.74 59.52ZM197.81 59C196.735 59 195.903 58.7053 195.314 58.116C194.724 57.492 194.43 56.6427 194.43 55.568V25.564C194.43 24.4547 194.707 23.6227 195.262 23.068C195.851 22.4787 196.683 22.184 197.758 22.184C198.832 22.184 199.647 22.4787 200.202 23.068C200.791 23.6227 201.086 24.4547 201.086 25.564V53.332H216.166C217.102 53.332 217.812 53.5747 218.298 54.06C218.818 54.5453 219.078 55.2387 219.078 56.14C219.078 57.0413 218.818 57.752 218.298 58.272C217.812 58.7573 217.102 59 216.166 59H197.81ZM226.229 59.364C225.189 59.364 224.392 59.052 223.837 58.428C223.282 57.804 223.005 56.9373 223.005 55.828V36.744C223.005 35.6 223.282 34.7333 223.837 34.144C224.392 33.52 225.189 33.208 226.229 33.208C227.269 33.208 228.066 33.52 228.621 34.144C229.21 34.7333 229.505 35.6 229.505 36.744V55.828C229.505 56.9373 229.228 57.804 228.673 58.428C228.118 59.052 227.304 59.364 226.229 59.364ZM226.229 28.372C225.016 28.372 224.062 28.0773 223.369 27.488C222.71 26.864 222.381 26.0147 222.381 24.94C222.381 23.8307 222.71 22.9813 223.369 22.392C224.062 21.8027 225.016 21.508 226.229 21.508C227.477 21.508 228.43 21.8027 229.089 22.392C229.748 22.9813 230.077 23.8307 230.077 24.94C230.077 26.0147 229.748 26.864 229.089 27.488C228.43 28.0773 227.477 28.372 226.229 28.372ZM241.251 59.416C240.211 59.416 239.396 59.1387 238.807 58.584C238.252 57.9947 237.975 57.1627 237.975 56.088V38.46H235.583C234.751 38.46 234.11 38.252 233.659 37.836C233.208 37.3853 232.983 36.7787 232.983 36.016C232.983 35.2187 233.208 34.612 233.659 34.196C234.11 33.78 234.751 33.572 235.583 33.572H239.847L237.975 35.288V33.52C237.975 29.9493 238.876 27.28 240.679 25.512C242.482 23.7093 245.082 22.652 248.479 22.34L250.247 22.184C250.94 22.1147 251.495 22.236 251.911 22.548C252.327 22.8253 252.604 23.2067 252.743 23.692C252.882 24.1427 252.899 24.6107 252.795 25.096C252.691 25.5813 252.466 26.0147 252.119 26.396C251.807 26.7427 251.391 26.9333 250.871 26.968L250.143 27.02C248.167 27.1587 246.728 27.6613 245.827 28.528C244.926 29.3947 244.475 30.712 244.475 32.48V34.404L243.643 33.572H248.895C249.727 33.572 250.368 33.78 250.819 34.196C251.27 34.612 251.495 35.2187 251.495 36.016C251.495 36.7787 251.27 37.3853 250.819 37.836C250.368 38.252 249.727 38.46 248.895 38.46H244.475V56.088C244.475 58.3067 243.4 59.416 241.251 59.416ZM267.072 59.52C264.195 59.52 261.716 58.9827 259.636 57.908C257.556 56.8333 255.944 55.308 254.8 53.332C253.691 51.356 253.136 49.016 253.136 46.312C253.136 43.6773 253.673 41.372 254.748 39.396C255.857 37.42 257.365 35.8773 259.272 34.768C261.213 33.624 263.415 33.052 265.876 33.052C267.679 33.052 269.291 33.3467 270.712 33.936C272.168 34.5253 273.399 35.3747 274.404 36.484C275.444 37.5933 276.224 38.9453 276.744 40.54C277.299 42.1 277.576 43.868 277.576 45.844C277.576 46.468 277.351 46.9533 276.9 47.3C276.484 47.612 275.877 47.768 275.08 47.768H258.388V44.024H273L272.168 44.804C272.168 43.2093 271.925 41.8747 271.44 40.8C270.989 39.7253 270.313 38.9107 269.412 38.356C268.545 37.7667 267.453 37.472 266.136 37.472C264.68 37.472 263.432 37.8187 262.392 38.512C261.387 39.1707 260.607 40.124 260.052 41.372C259.532 42.5853 259.272 44.0413 259.272 45.74V46.104C259.272 48.9467 259.931 51.0787 261.248 52.5C262.6 53.8867 264.576 54.58 267.176 54.58C268.077 54.58 269.083 54.476 270.192 54.268C271.336 54.0253 272.411 53.6267 273.416 53.072C274.144 52.656 274.785 52.4827 275.34 52.552C275.895 52.5867 276.328 52.7773 276.64 53.124C276.987 53.4707 277.195 53.904 277.264 54.424C277.333 54.9093 277.229 55.412 276.952 55.932C276.709 56.452 276.276 56.9027 275.652 57.284C274.439 58.0467 273.035 58.6187 271.44 59C269.88 59.3467 268.424 59.52 267.072 59.52Z" fill="white"/>
<path d="M61.6751 10.5685C47.5858 -3.52284 24.6591 -3.52284 10.5677 10.5685C-3.52258 24.6588 -3.52258 47.5855 10.5677 61.6748C24.1755 75.2826 46.0211 75.7458 60.1939 63.0726L63.0585 65.9372C62.3449 67.7646 62.7185 69.9156 64.1936 71.3907L79.3111 86.5092C81.2993 88.4974 84.5223 88.4964 86.5095 86.5092C88.4977 84.5221 88.4977 81.299 86.5095 79.3109L71.392 64.1954C69.9169 62.7203 67.7638 62.3467 65.9385 63.0603L63.0728 60.1936C75.7491 46.0208 75.2839 24.1753 61.6751 10.5685ZM13.6401 58.9604C1.93091 47.2512 1.49091 24.9093 13.2001 13.2001C24.9093 1.48989 47.2512 1.49091 58.9604 13.2001C70.6696 24.9093 70.6696 47.2512 58.9604 58.9604C47.2512 70.6696 25.3493 70.6696 13.6401 58.9604Z" fill="white"/>
<path d="M66.7992 41.8413C61.8062 40.1562 53.6132 37.424 53.6132 31.2663C53.6132 26.9114 59.1867 21.7153 61.3778 16.1396C63.5861 10.5173 57.831 8.6104 53.6799 12.8598C50.8687 15.7377 45.7818 21.4275 40.4953 20.6237C37.476 20.1651 32.585 15.3308 28.4468 10.1154C22.0221 2.01704 17.3371 6.70208 21.0174 13.7964C23.8285 19.2135 25.167 26.1786 23.8953 28.7221C22.6235 31.2655 20.5968 34.7219 9.30476 37.2223C-0.0653321 39.2964 4.68646 44.9188 9.1038 44.2499C10.5076 44.0367 25.1003 42.9968 27.844 46.3907C31.7934 51.2774 31.7453 56.5524 31.525 59.1756C30.7219 68.7459 38.9545 68.2772 39.2896 61.8518C39.3521 60.6404 41.4965 49.6706 46.0488 47.8641C50.5996 46.057 53.0828 45.4656 63.6507 48.0644C71.8194 50.0732 71.9529 43.581 66.7992 41.8413ZM6.8998 41.761C6.3601 41.761 5.93738 41.3268 5.93738 40.8007C5.93738 40.2739 6.35938 39.844 6.8998 39.844C7.42729 39.844 7.85432 40.2739 7.85432 40.8007C7.85432 41.3268 7.42729 41.761 6.8998 41.761ZM10.3131 41.4925C9.7734 41.4925 9.35069 41.0598 9.35069 40.533C9.35069 40.0062 9.77269 39.5756 10.3131 39.5756C10.8406 39.5756 11.2676 40.0062 11.2676 40.533C11.2676 41.0598 10.8406 41.4925 10.3131 41.4925ZM15.6347 40.3887C14.9623 40.3887 14.4369 39.8505 14.4369 39.1945C14.4369 38.5393 14.9623 38.0046 15.6347 38.0046C16.2914 38.0046 16.8225 38.5393 16.8225 39.1945C16.8225 39.8505 16.2914 40.3887 15.6347 40.3887ZM18.3777 39.2168C17.9507 39.2168 17.617 38.8744 17.617 38.4589C17.617 38.0419 17.9507 37.7032 18.3777 37.7032C18.7947 37.7032 19.132 38.0419 19.132 38.4589C19.1313 38.8751 18.7947 39.2168 18.3777 39.2168ZM24.013 32.3794C24.1623 32.3794 24.2828 32.5107 24.2828 32.6693C24.2828 32.8301 24.1623 32.9614 24.013 32.9614C23.8623 32.9614 23.7431 32.8301 23.7431 32.6693C23.7431 32.5107 23.8623 32.3794 24.013 32.3794ZM23.4108 34.6279C23.5135 34.6279 23.5967 34.7176 23.5967 34.8267C23.5967 34.9372 23.5135 35.0276 23.4108 35.0276C23.3068 35.0276 23.2257 34.9379 23.2257 34.8267C23.2257 34.7183 23.3068 34.6279 23.4108 34.6279ZM23.2637 38.2465C22.7054 38.2465 22.2683 37.7993 22.2683 37.2553C22.2683 36.7085 22.7046 36.2656 23.2637 36.2656C23.8099 36.2656 24.2513 36.7085 24.2513 37.2553C24.2513 37.7993 23.8099 38.2465 23.2637 38.2465ZM24.1637 40.7024C24.0603 40.7024 23.9785 40.6112 23.9785 40.5021C23.9785 40.3923 24.0603 40.3033 24.1637 40.3033C24.2656 40.3033 24.3489 40.3923 24.3489 40.5021C24.3489 40.6112 24.2656 40.7024 24.1637 40.7024ZM51.8103 18.8963C52.3371 18.8963 52.7641 19.324 52.7641 19.8515C52.7641 20.3776 52.3371 20.8089 51.8103 20.8089C51.2706 20.8089 50.8486 20.3776 50.8486 19.8515C50.8486 19.3233 51.2706 18.8963 51.8103 18.8963ZM49.2432 30.2098C49.2432 30.4474 49.0508 30.6419 48.8126 30.6419C48.5693 30.6419 48.3791 30.4474 48.3791 30.2098C48.3791 29.9723 48.57 29.7792 48.8126 29.7792C49.0508 29.7792 49.2432 29.9723 49.2432 30.2098ZM48.992 35.8824C48.992 36.12 48.7996 36.3145 48.5607 36.3145C48.3181 36.3145 48.1272 36.12 48.1272 35.8824C48.1272 35.6449 48.3181 35.4518 48.5607 35.4518C48.7996 35.4518 48.992 35.6449 48.992 35.8824ZM48.8922 34.3157C48.8922 34.1564 49.0114 34.0258 49.1621 34.0258C49.3106 34.0258 49.4319 34.1571 49.4319 34.3157C49.4319 34.4765 49.3106 34.6078 49.1621 34.6078C49.0114 34.6078 48.8922 34.4772 48.8922 34.3157ZM47.5753 27.3987C47.5753 27.1611 47.7662 26.968 48.0088 26.968C48.247 26.968 48.4394 27.1611 48.4394 27.3987C48.4394 27.6362 48.247 27.8307 48.0088 27.8307C47.7662 27.8307 47.5753 27.6362 47.5753 27.3987ZM47.7877 31.4148C47.7877 31.6524 47.5954 31.8469 47.3571 31.8469C47.1138 31.8469 46.9236 31.6524 46.9236 31.4148C46.9236 31.1773 47.1145 30.9842 47.3571 30.9842C47.5961 30.9842 47.7877 31.1773 47.7877 31.4148ZM47.688 25.5915C47.688 25.4322 47.8071 25.3016 47.9578 25.3016C48.1064 25.3016 48.2277 25.4329 48.2277 25.5915C48.2277 25.7523 48.1064 25.8836 47.9578 25.8836C47.8071 25.8836 47.688 25.7523 47.688 25.5915ZM48.0289 22.4093C48.575 22.4093 49.0164 22.8528 49.0164 23.399C49.0164 23.943 48.575 24.3901 48.0289 24.3901C47.4705 24.3901 47.0327 23.943 47.0327 23.399C47.0327 22.8528 47.4705 22.4093 48.0289 22.4093ZM47.2566 28.951C47.4956 28.951 47.688 29.1441 47.688 29.3816C47.688 29.6199 47.4956 29.8144 47.2566 29.8144C47.0133 29.8144 46.8231 29.6199 46.8231 29.3816C46.8231 29.1441 47.0133 28.951 47.2566 28.951ZM45.8198 24.3514C46.366 24.3514 46.8074 24.7942 46.8074 25.3411C46.8074 25.8858 46.366 26.3322 45.8198 26.3322C45.2615 26.3322 44.8244 25.8851 44.8244 25.3411C44.8244 24.7942 45.2615 24.3514 45.8198 24.3514ZM45.2478 32.5157C44.9572 32.5157 44.7304 32.2839 44.7304 32.0005C44.7304 31.7162 44.9564 31.4859 45.2478 31.4859C45.532 31.4859 45.761 31.7155 45.761 32.0005C45.761 32.2839 45.532 32.5157 45.2478 32.5157ZM45.7452 33.7487C45.7452 34.1147 45.4488 34.4147 45.0813 34.4147C44.7067 34.4147 44.4132 34.1147 44.4132 33.7487C44.4132 33.3813 44.706 33.0842 45.0813 33.0842C45.4488 33.0849 45.7452 33.382 45.7452 33.7487ZM45.7423 30.5665C45.4287 30.5665 45.1825 30.3153 45.1825 30.0089C45.1825 29.7024 45.4294 29.4527 45.7423 29.4527C46.0502 29.4527 46.2978 29.7024 46.2978 30.0089C46.2978 30.3153 46.0495 30.5665 45.7423 30.5665ZM46.2275 28.4838C45.9842 28.4838 45.794 28.2893 45.794 28.051C45.794 27.8135 45.9849 27.6204 46.2275 27.6204C46.4657 27.6204 46.6588 27.8135 46.6588 28.051C46.6588 28.2893 46.4657 28.4838 46.2275 28.4838ZM44.6443 27.1984C44.7928 27.1984 44.9141 27.3298 44.9141 27.4891C44.9141 27.6498 44.7928 27.7805 44.6443 27.7805C44.4935 27.7805 44.3744 27.6498 44.3744 27.4891C44.3744 27.3298 44.4935 27.1984 44.6443 27.1984ZM42.9878 22.982C43.0912 22.982 43.1737 23.0717 43.1737 23.1808C43.1737 23.2914 43.0912 23.3818 42.9878 23.3818C42.8838 23.3818 42.8027 23.2921 42.8027 23.1808C42.8027 23.0725 42.8838 22.982 42.9878 22.982ZM43.2412 25.0777C43.5254 25.0777 43.7543 25.308 43.7543 25.5922C43.7543 25.8757 43.5254 26.1075 43.2412 26.1075C42.9498 26.1075 42.723 25.8757 42.723 25.5922C42.7237 25.308 42.9498 25.0777 43.2412 25.0777ZM41.3809 24.0464C41.5302 24.0464 41.6508 24.1777 41.6508 24.3363C41.6508 24.4971 41.5302 24.6284 41.3809 24.6284C41.2302 24.6284 41.1111 24.4971 41.1111 24.3363C41.1111 24.1777 41.2302 24.0464 41.3809 24.0464ZM41.5331 25.4372C41.7721 25.4372 41.9644 25.6303 41.9644 25.8678C41.9644 26.1054 41.7721 26.3006 41.5331 26.3006C41.2898 26.3006 41.0996 26.1061 41.0996 25.8678C41.0996 25.6296 41.2898 25.4372 41.5331 25.4372ZM42.5091 27.0276C43.4429 27.0276 44.1979 27.7855 44.1979 28.7192C44.1979 29.65 43.4429 30.4144 42.5091 30.4144C41.5539 30.4144 40.8075 29.6508 40.8075 28.7192C40.8075 27.7855 41.5539 27.0276 42.5091 27.0276ZM41.8022 33.0382C41.8022 32.5803 42.1718 32.2057 42.639 32.2057C43.0998 32.2057 43.4694 32.5796 43.4694 33.0382C43.4694 33.4968 43.0991 33.8722 42.639 33.8722C42.1718 33.8722 41.8022 33.4961 41.8022 33.0382ZM42.4991 35.431C42.4991 35.7145 42.2702 35.9463 41.986 35.9463C41.6953 35.9463 41.4678 35.7145 41.4678 35.431C41.4678 35.1468 41.6946 34.9164 41.986 34.9164C42.2702 34.9164 42.4991 35.1468 42.4991 35.431ZM43.3165 31.7966C43.0732 31.7966 42.8831 31.6021 42.8831 31.3646C42.8831 31.1263 43.074 30.934 43.3165 30.934C43.5548 30.934 43.7472 31.127 43.7472 31.3646C43.7464 31.6021 43.5548 31.7966 43.3165 31.7966ZM40.7594 30.7624C40.7594 31 40.5671 31.1945 40.3281 31.1945C40.0848 31.1945 39.8946 31 39.8946 30.7624C39.8946 30.5242 40.0848 30.3318 40.3281 30.3318C40.5678 30.3318 40.7594 30.5242 40.7594 30.7624ZM40.0597 32.3937C40.3791 32.3937 40.6374 32.6528 40.6374 32.9722C40.6374 33.2916 40.3798 33.5499 40.0597 33.5499C39.7418 33.5499 39.482 33.2908 39.482 32.9722C39.482 32.6535 39.741 32.3937 40.0597 32.3937ZM39.6241 28.8053C39.6241 28.6568 39.7439 28.5369 39.8939 28.5369C40.0432 28.5369 40.163 28.6568 40.163 28.8053C40.163 28.9539 40.0432 29.0752 39.8939 29.0752C39.7439 29.0752 39.6241 28.9532 39.6241 28.8053ZM39.5257 34.0258C40.163 34.0258 40.6776 34.5439 40.6776 35.1812C40.6776 35.8185 40.1623 36.336 39.5257 36.336C38.8891 36.336 38.3717 35.8178 38.3717 35.1812C38.371 34.5432 38.8884 34.0258 39.5257 34.0258ZM39.7762 25.0109C40.0152 25.0109 40.2075 25.204 40.2075 25.4415C40.2075 25.6791 40.0152 25.8736 39.7762 25.8736C39.5336 25.8736 39.3427 25.6791 39.3427 25.4415C39.3434 25.2033 39.5336 25.0109 39.7762 25.0109ZM39.576 26.8181C39.8142 26.8181 40.0066 27.0111 40.0066 27.2487C40.0066 27.4862 39.8142 27.6807 39.576 27.6807C39.3327 27.6807 39.1425 27.4862 39.1425 27.2487C39.1418 27.0104 39.3327 26.8181 39.576 26.8181ZM38.2526 32.6966C37.7954 32.6966 37.4236 32.3248 37.4236 31.8677C37.4236 31.4105 37.7961 31.0388 38.2526 31.0388C38.7119 31.0388 39.0808 31.4098 39.0808 31.8677C39.0808 32.3256 38.7119 32.6966 38.2526 32.6966ZM35.2993 33.7746C35.2993 33.1279 35.8239 32.6033 36.4705 32.6033C37.1179 32.6033 37.6411 33.1279 37.6411 33.7746C37.6411 34.4212 37.1179 34.9458 36.4705 34.9458C35.8239 34.9458 35.2993 34.4212 35.2993 33.7746ZM36.1792 35.7317C36.1792 35.8925 36.0593 36.0238 35.91 36.0238C35.7593 36.0238 35.6402 35.8925 35.6402 35.7317C35.6402 35.5724 35.7593 35.4417 35.91 35.4417C36.0593 35.4417 36.1792 35.5724 36.1792 35.7317ZM36.8452 30.4108C36.8452 30.2622 36.9643 30.1416 37.1157 30.1416C37.265 30.1416 37.3849 30.2622 37.3849 30.4108C37.3849 30.5593 37.265 30.6806 37.1157 30.6806C36.9643 30.6806 36.8452 30.5593 36.8452 30.4108ZM37.3992 35.9578C37.8585 35.9578 38.2274 36.3288 38.2274 36.7867C38.2274 37.2446 37.8578 37.6156 37.3992 37.6156C36.9421 37.6156 36.5703 37.2446 36.5703 36.7867C36.5703 36.3288 36.9421 35.9578 37.3992 35.9578ZM37.4272 29.0551C37.4272 28.6381 37.7631 28.2994 38.1887 28.2994C38.6071 28.2994 38.9444 28.6388 38.9444 29.0551C38.9444 29.4728 38.6071 29.8137 38.1887 29.8137C37.7624 29.8137 37.4272 29.472 37.4272 29.0551ZM38.5719 22.9526C38.8102 22.9526 39.0025 23.1457 39.0025 23.3832C39.0025 23.6208 38.8102 23.8153 38.5719 23.8153C38.3286 23.8153 38.1384 23.6208 38.1384 23.3832C38.1384 23.1449 38.3294 22.9526 38.5719 22.9526ZM37.4925 24.8351C37.7308 24.8351 37.9231 25.0281 37.9231 25.2657C37.9231 25.504 37.7308 25.6985 37.4925 25.6985C37.2492 25.6985 37.059 25.504 37.059 25.2657C37.059 25.0274 37.25 24.8351 37.4925 24.8351ZM36.7146 26.968C36.9536 26.968 37.1452 27.1611 37.1452 27.3987C37.1452 27.6362 36.9528 27.8307 36.7146 27.8307C36.4713 27.8307 36.2811 27.6362 36.2811 27.3987C36.2811 27.1611 36.4713 26.968 36.7146 26.968ZM35.7105 30.9935C35.4672 30.9935 35.277 30.799 35.277 30.5615C35.277 30.3239 35.4679 30.1309 35.7105 30.1309C35.9495 30.1309 36.1411 30.3239 36.1411 30.5615C36.1411 30.799 35.9495 30.9935 35.7105 30.9935ZM35.8598 23.2433C36.0091 23.2433 36.1296 23.3746 36.1296 23.5332C36.1296 23.694 36.0091 23.8253 35.8598 23.8253C35.7098 23.8253 35.5907 23.694 35.5907 23.5332C35.5899 23.3746 35.7091 23.2433 35.8598 23.2433ZM35.1084 24.7095C35.3474 24.7095 35.539 24.9026 35.539 25.1401C35.539 25.3777 35.3467 25.5722 35.1084 25.5722C34.8651 25.5722 34.6749 25.3777 34.6749 25.1401C34.6749 24.9026 34.8651 24.7095 35.1084 24.7095ZM33.6508 21.9385C33.8 21.9385 33.9206 22.0699 33.9206 22.2285C33.9206 22.3892 33.8 22.5206 33.6508 22.5206C33.5001 22.5206 33.3809 22.3892 33.3809 22.2285C33.3809 22.0691 33.5001 21.9385 33.6508 21.9385ZM33.9364 25.6913C33.9364 25.8018 33.8532 25.8922 33.7512 25.8922C33.6479 25.8922 33.5661 25.8018 33.5661 25.6913C33.5661 25.5822 33.6479 25.4918 33.7512 25.4918C33.8532 25.4918 33.9364 25.5822 33.9364 25.6913ZM33.7749 26.5252C34.7086 26.5252 35.4629 27.2831 35.4629 28.2168C35.4629 29.1477 34.7086 29.9113 33.7749 29.9113C32.8197 29.9113 32.0726 29.1477 32.0726 28.2168C32.0726 27.2831 32.8197 26.5252 33.7749 26.5252ZM35.2756 31.9854C35.2756 32.1339 35.1558 32.2552 35.0065 32.2552C34.8558 32.2552 34.7366 32.1339 34.7366 31.9854C34.7366 31.8368 34.8558 31.717 35.0065 31.717C35.1558 31.717 35.2756 31.8368 35.2756 31.9854ZM33.4024 33.1186C32.9625 33.1186 32.6144 32.7662 32.6144 32.3349C32.6144 31.9036 32.9618 31.5533 33.4024 31.5533C33.8352 31.5533 34.1826 31.9036 34.1826 32.3349C34.1833 32.7662 33.8352 33.1186 33.4024 33.1186ZM33.8697 38.8622C33.8697 39.0115 33.7498 39.1321 33.6005 39.1321C33.4505 39.1321 33.3307 39.0115 33.3307 38.8622C33.3307 38.7144 33.4505 38.5938 33.6005 38.5938C33.7498 38.5938 33.8697 38.7144 33.8697 38.8622ZM32.4781 30.8127C32.4781 30.6641 32.5972 30.5436 32.7479 30.5436C32.8972 30.5436 33.0171 30.6641 33.0171 30.8127C33.0171 30.9612 32.8972 31.0825 32.7479 31.0825C32.5965 31.0825 32.4781 30.9605 32.4781 30.8127ZM34.3053 34.3975C34.5443 34.3975 34.7359 34.5906 34.7359 34.8281C34.7359 35.0657 34.5436 35.2602 34.3053 35.2602C34.062 35.2602 33.8718 35.0657 33.8718 34.8281C33.8718 34.5906 34.062 34.3975 34.3053 34.3975ZM32.9194 24.6715C32.9194 25.2155 32.4774 25.6626 31.9319 25.6626C31.3736 25.6626 30.9365 25.2155 30.9365 24.6715C30.9365 24.1246 31.3736 23.6818 31.9319 23.6818C32.4781 23.6818 32.9194 24.1253 32.9194 24.6715ZM31.975 30.1596C31.975 30.3971 31.7826 30.5916 31.5444 30.5916C31.3011 30.5916 31.1109 30.3971 31.1109 30.1596C31.1109 29.922 31.3018 29.729 31.5444 29.729C31.7826 29.729 31.975 29.922 31.975 30.1596ZM29.6368 29.4283C29.875 29.4283 30.0674 29.6213 30.0674 29.8589C30.0674 30.0964 29.875 30.2916 29.6368 30.2916C29.3935 30.2916 29.2033 30.0972 29.2033 29.8589C29.2033 29.6206 29.3935 29.4283 29.6368 29.4283ZM29.1832 25.6927C29.1832 25.5334 29.3023 25.4028 29.453 25.4028C29.6023 25.4028 29.7222 25.5334 29.7222 25.6927C29.7222 25.8542 29.6023 25.9848 29.453 25.9848C29.3023 25.9848 29.1832 25.8542 29.1832 25.6927ZM29.8557 28.1522C29.8557 27.9147 30.0466 27.7216 30.2891 27.7216C30.5274 27.7216 30.7197 27.9147 30.7197 28.1522C30.7197 28.3898 30.5274 28.5843 30.2891 28.5843C30.0458 28.5843 29.8557 28.3898 29.8557 28.1522ZM30.6408 31.7119C30.8798 31.7119 31.0714 31.905 31.0714 32.1426C31.0714 32.3801 30.8791 32.5746 30.6408 32.5746C30.3982 32.5746 30.2073 32.3801 30.2073 32.1426C30.2073 31.905 30.3975 31.7119 30.6408 31.7119ZM30.5597 21.1053C31.1059 21.1053 31.5472 21.5481 31.5472 22.095C31.5472 22.6397 31.1059 23.0861 30.5597 23.0861C30.0013 23.0861 29.5643 22.639 29.5643 22.095C29.5643 21.5481 30.0013 21.1053 30.5597 21.1053ZM28.6514 18.0932C29.1236 18.0932 29.5054 18.4764 29.5054 18.9486C29.5054 19.4194 29.1236 19.8056 28.6514 19.8056C28.1684 19.8056 27.7909 19.4187 27.7909 18.9486C27.7909 18.4771 28.1684 18.0932 28.6514 18.0932ZM28.6327 32.5997C28.3894 32.5997 28.1992 32.4052 28.1992 32.1677C28.1992 31.9294 28.3901 31.7371 28.6327 31.7371C28.871 31.7371 29.0633 31.9301 29.0633 32.1677C29.0633 32.4052 28.871 32.5997 28.6327 32.5997ZM28.8502 36.6862C28.8502 36.8348 28.7303 36.9561 28.581 36.9561C28.4303 36.9561 28.3112 36.8348 28.3112 36.6862C28.3112 36.5377 28.4303 36.4171 28.581 36.4171C28.7303 36.4171 28.8502 36.5377 28.8502 36.6862ZM27.277 31.2964C27.4263 31.2964 27.5454 31.417 27.5454 31.5655C27.5454 31.7141 27.4256 31.8354 27.277 31.8354C27.1256 31.8354 27.0072 31.7141 27.0072 31.5655C27.0072 31.417 27.1256 31.2964 27.277 31.2964ZM26.9404 25.2406C26.9404 25.1315 27.0215 25.0411 27.1256 25.0411C27.2282 25.0411 27.3115 25.1315 27.3115 25.2406C27.3115 25.3511 27.2282 25.4415 27.1256 25.4415C27.0215 25.4415 26.9404 25.3511 26.9404 25.2406ZM27.295 29.9594C27.295 29.7218 27.4859 29.5287 27.7284 29.5287C27.9674 29.5287 28.159 29.7218 28.159 29.9594C28.159 30.1969 27.9667 30.3914 27.7284 30.3914C27.4859 30.3914 27.295 30.1969 27.295 29.9594ZM27.8978 27.6498C27.8978 27.4116 28.0887 27.2192 28.3313 27.2192C28.5703 27.2192 28.7619 27.4123 28.7619 27.6498C28.7619 27.8874 28.5696 28.0819 28.3313 28.0819C28.088 28.0819 27.8978 27.8874 27.8978 27.6498ZM27.0129 14.4803C27.6129 14.4803 28.0995 14.9677 28.0995 15.5698C28.0995 16.1691 27.6129 16.6614 27.0129 16.6614C26.3978 16.6614 25.917 16.1691 25.917 15.5698C25.917 14.9677 26.3978 14.4803 27.0129 14.4803ZM25.9723 32.1985C25.729 32.1985 25.5388 32.004 25.5388 31.7665C25.5388 31.5282 25.7297 31.3359 25.9723 31.3359C26.2105 31.3359 26.4029 31.5289 26.4029 31.7665C26.4029 32.004 26.2105 32.1985 25.9723 32.1985ZM26.039 33.9748C26.039 34.1234 25.9192 34.2446 25.7699 34.2446C25.6184 34.2446 25.5 34.1234 25.5 33.9748C25.5 33.8262 25.6192 33.7064 25.7699 33.7064C25.9199 33.7064 26.039 33.8262 26.039 33.9748ZM25.6507 28.2017C25.6507 28.0532 25.7699 27.9333 25.9206 27.9333C26.0699 27.9333 26.1897 28.0532 26.1897 28.2017C26.1897 28.3503 26.0699 28.4716 25.9206 28.4716C25.7699 28.4716 25.6507 28.3503 25.6507 28.2017ZM22.5934 9.46588C22.3178 9.46588 22.1018 9.24555 22.1018 8.97642C22.1018 8.70729 22.3178 8.48911 22.5934 8.48911C22.8625 8.48911 23.08 8.70801 23.08 8.97642C23.08 9.24484 22.8618 9.46588 22.5934 9.46588ZM23.9986 11.1058C23.723 11.1058 23.507 10.8855 23.507 10.6163C23.507 10.3472 23.723 10.129 23.9986 10.129C24.2678 10.129 24.4852 10.3479 24.4852 10.6163C24.4852 10.8847 24.2678 11.1058 23.9986 11.1058ZM24.7795 12.5907C24.7795 12.2476 25.0543 11.9692 25.4053 11.9692C25.7476 11.9692 26.0254 12.2476 26.0254 12.5907C26.0254 12.933 25.7476 13.2136 25.4053 13.2136C25.0536 13.2136 24.7795 12.933 24.7795 12.5907ZM25.7196 39.7787C25.5689 39.7787 25.4498 39.6467 25.4498 39.4873C25.4498 39.3266 25.5689 39.1974 25.7196 39.1974C25.8689 39.1974 25.9895 39.3273 25.9895 39.4873C25.9895 39.6467 25.8689 39.7787 25.7196 39.7787ZM26.4108 37.4096C25.8524 37.4096 25.4153 36.9625 25.4153 36.4178C25.4153 35.8709 25.8524 35.4281 26.4108 35.4281C26.9562 35.4281 27.3983 35.8709 27.3983 36.4178C27.3983 36.9625 26.9562 37.4096 26.4108 37.4096ZM27.4765 43.1102C27.3725 43.1102 27.2914 43.0191 27.2914 42.9093C27.2914 42.8002 27.3732 42.7105 27.4765 42.7105C27.5792 42.7105 27.6624 42.8002 27.6624 42.9093C27.6624 43.0191 27.5792 43.1102 27.4765 43.1102ZM27.6287 34.4571C27.3854 34.4571 27.1952 34.2626 27.1952 34.025C27.1952 33.7868 27.3861 33.5944 27.6287 33.5944C27.8669 33.5944 28.0593 33.7875 28.0593 34.025C28.0593 34.2626 27.8669 34.4571 27.6287 34.4571ZM28.482 40.983C28.2387 40.983 28.0485 40.7885 28.0485 40.5495C28.0485 40.3127 28.2394 40.1196 28.482 40.1196C28.7203 40.1196 28.9126 40.3127 28.9126 40.5495C28.9126 40.7885 28.7203 40.983 28.482 40.983ZM28.8638 33.6734C28.8638 33.5248 28.9829 33.4042 29.1337 33.4042C29.2829 33.4042 29.4021 33.5248 29.4021 33.6734C29.4021 33.8219 29.2822 33.9432 29.1337 33.9432C28.9829 33.9432 28.8638 33.8219 28.8638 33.6734ZM29.5348 45.4707C29.3841 45.4707 29.265 45.3386 29.265 45.1793C29.265 45.02 29.3841 44.8893 29.5348 44.8893C29.6841 44.8893 29.804 45.02 29.804 45.1793C29.804 45.3386 29.6841 45.4707 29.5348 45.4707ZM29.486 39.2261C29.2427 39.2261 29.0526 39.0316 29.0526 38.7926C29.0526 38.5558 29.2435 38.3627 29.486 38.3627C29.7243 38.3627 29.9167 38.5558 29.9167 38.7926C29.9167 39.0323 29.7243 39.2261 29.486 39.2261ZM29.7308 35.2121C29.7308 34.2777 30.4779 33.5205 31.4331 33.5205C32.3675 33.5205 33.1211 34.2777 33.1211 35.2121C33.1211 36.1429 32.3675 36.9065 31.4331 36.9065C30.4772 36.9065 29.7308 36.1429 29.7308 35.2121ZM31.2594 39.8469C31.2594 39.9962 31.1396 40.1167 30.9903 40.1167C30.8396 40.1167 30.7205 39.9962 30.7205 39.8469C30.7205 39.6998 30.8396 39.5792 30.9903 39.5792C31.1396 39.5792 31.2594 39.6998 31.2594 39.8469ZM30.7398 37.4993C30.8891 37.4993 31.009 37.6307 31.009 37.7893C31.009 37.9501 30.8891 38.0814 30.7398 38.0814C30.5891 38.0814 30.47 37.9501 30.47 37.7893C30.47 37.6307 30.5891 37.4993 30.7398 37.4993ZM30.508 41.1531C30.508 40.9162 30.6989 40.7225 30.9415 40.7225C31.1798 40.7225 31.3721 40.9162 31.3721 41.1531C31.3721 41.3914 31.1798 41.5858 30.9415 41.5858C30.6989 41.5851 30.508 41.3914 30.508 41.1531ZM31.342 44.3468C31.192 44.3468 31.0721 44.2147 31.0721 44.0547C31.0721 43.8946 31.192 43.7647 31.342 43.7647C31.4913 43.7647 31.6111 43.8954 31.6111 44.0547C31.6111 44.2147 31.4913 44.3468 31.342 44.3468ZM31.6125 38.5924C31.6125 38.3548 31.8027 38.1618 32.046 38.1618C32.285 38.1618 32.4766 38.3548 32.4766 38.5924C32.4766 38.8307 32.2843 39.0259 32.046 39.0259C31.8027 39.0259 31.6125 38.8307 31.6125 38.5924ZM32.4967 42.0566C32.3934 42.0566 32.3116 41.9669 32.3116 41.8557C32.3116 41.748 32.3934 41.6569 32.4967 41.6569C32.5994 41.6569 32.6819 41.748 32.6819 41.8557C32.6819 41.9669 32.5986 42.0566 32.4967 42.0566ZM32.8793 37.4283C32.8793 37.269 32.9984 37.1384 33.1491 37.1384C33.2984 37.1384 33.4182 37.2697 33.4182 37.4283C33.4182 37.5891 33.2984 37.7204 33.1491 37.7204C32.9984 37.7204 32.8793 37.5891 32.8793 37.4283ZM33.5015 39.9696C33.7405 39.9696 33.9321 40.1627 33.9321 40.3995C33.9321 40.6385 33.7398 40.833 33.5015 40.833C33.2589 40.833 33.068 40.6385 33.068 40.3995C33.068 40.1627 33.2589 39.9696 33.5015 39.9696ZM33.9823 43.0104C33.9823 43.2487 33.79 43.4432 33.5517 43.4432C33.3084 43.4432 33.1182 43.2487 33.1182 43.0104C33.1182 42.7736 33.3091 42.5798 33.5517 42.5798C33.7907 42.5798 33.9823 42.7736 33.9823 43.0104ZM33.3501 47.6689C33.1993 47.6689 33.0802 47.5383 33.0802 47.3776C33.0802 47.2189 33.1993 47.0876 33.3501 47.0876C33.4993 47.0876 33.6199 47.2197 33.6199 47.3776C33.6192 47.5383 33.4986 47.6689 33.3501 47.6689ZM33.8266 45.846C33.7233 45.846 33.6414 45.757 33.6414 45.6458C33.6414 45.5374 33.7233 45.447 33.8266 45.447C33.9292 45.447 34.0118 45.5374 34.0118 45.6458C34.0118 45.757 33.9292 45.846 33.8266 45.846ZM34.0297 37.4218C34.0297 36.9769 34.3885 36.6152 34.8414 36.6152C35.2878 36.6152 35.6466 36.9769 35.6466 37.4218C35.6466 37.8668 35.2878 38.23 34.8414 38.23C34.3885 38.23 34.0297 37.8668 34.0297 37.4218ZM35.5089 43.4023C35.3581 43.4023 35.239 43.2717 35.239 43.1109C35.239 42.9523 35.3581 42.821 35.5089 42.821C35.6581 42.821 35.778 42.953 35.778 43.1109C35.778 43.2717 35.6574 43.4023 35.5089 43.4023ZM36.65 47.7421C37.1961 47.7421 37.6375 48.1864 37.6375 48.7325C37.6375 49.2765 37.1961 49.7237 36.65 49.7237C36.0916 49.7237 35.6545 49.2765 35.6545 48.7325C35.6545 48.1871 36.0916 47.7421 36.65 47.7421ZM35.4435 62.5415C35.1306 62.5415 34.8866 62.2896 34.8866 61.9846C34.8866 61.6796 35.1306 61.4312 35.4435 61.4312C35.7493 61.4312 35.9969 61.6796 35.9969 61.9846C35.9969 62.2896 35.7493 62.5415 35.4435 62.5415ZM35.9122 58.3574C35.4486 58.3574 35.0861 57.9871 35.0861 57.5342C35.0861 57.0814 35.4486 56.7118 35.9122 56.7118C36.3658 56.7118 36.7325 57.0806 36.7325 57.5342C36.7325 57.9878 36.3658 58.3574 35.9122 58.3574ZM36.2481 54.7762C35.7091 54.7762 35.2878 54.3448 35.2878 53.8195C35.2878 53.2913 35.7091 52.8628 36.2481 52.8628C36.7756 52.8628 37.2019 53.2913 37.2019 53.8195C37.2019 54.3456 36.7756 54.7762 36.2481 54.7762ZM37.0174 51.8997C36.6098 51.8997 36.2904 51.5731 36.2904 51.1763C36.2904 50.7772 36.6091 50.4528 37.0174 50.4528C37.4157 50.4528 37.7373 50.7772 37.7373 51.1763C37.7373 51.5731 37.4157 51.8997 37.0174 51.8997ZM36.7842 46.2106C36.2258 46.2106 35.7887 45.7635 35.7887 45.2188C35.7887 44.6726 36.2258 44.2291 36.7842 44.2291C37.3296 44.2291 37.7717 44.6726 37.7717 45.2188C37.7717 45.7635 37.3296 46.2106 36.7842 46.2106ZM38.2188 43.4525C38.0681 43.4525 37.949 43.3219 37.949 43.1612C37.949 43.0025 38.0681 42.8712 38.2188 42.8712C38.3681 42.8712 38.4887 43.0033 38.4887 43.1612C38.4887 43.3219 38.3681 43.4525 38.2188 43.4525ZM37.1552 42.3617C36.1993 42.3617 35.4529 41.598 35.4529 40.6665C35.4529 39.7328 36.2 38.9756 37.1552 38.9756C38.0882 38.9756 38.8432 39.7335 38.8432 40.6665C38.8432 41.598 38.0889 42.3617 37.1552 42.3617ZM39.4741 47.178C39.37 47.178 39.2882 47.0869 39.2882 46.9771C39.2882 46.8673 39.37 46.7783 39.4741 46.7783C39.576 46.7783 39.6592 46.8673 39.6592 46.9771C39.6592 47.0869 39.576 47.178 39.4741 47.178ZM39.2925 43.06C39.2925 42.8231 39.4834 42.6301 39.726 42.6301C39.9642 42.6301 40.1566 42.8231 40.1566 43.06C40.1566 43.299 39.9642 43.4934 39.726 43.4934C39.4834 43.4927 39.2925 43.299 39.2925 43.06ZM40.0102 45.17C39.9061 45.17 39.825 45.0788 39.825 44.969C39.825 44.8599 39.9061 44.7702 40.0102 44.7702C40.1135 44.7702 40.1961 44.8599 40.1961 44.969C40.1961 45.0788 40.1135 45.17 40.0102 45.17ZM40.2283 40.9327C39.985 40.9327 39.7949 40.7383 39.7949 40.5C39.7949 40.2632 39.9858 40.0694 40.2283 40.0694C40.4666 40.0694 40.6597 40.2632 40.6597 40.5C40.6597 40.739 40.4666 40.9327 40.2283 40.9327ZM40.331 38.8752C39.8918 38.8752 39.5437 38.522 39.5437 38.0907C39.5437 37.6594 39.891 37.3092 40.331 37.3092C40.763 37.3092 41.1111 37.6601 41.1111 38.0907C41.1111 38.5213 40.7623 38.8752 40.331 38.8752ZM41.1621 31.666C41.1621 31.5067 41.2812 31.3761 41.4319 31.3761C41.5805 31.3761 41.7018 31.5074 41.7018 31.666C41.7018 31.8268 41.5805 31.9581 41.4319 31.9581C41.2812 31.9574 41.1621 31.8268 41.1621 31.666ZM41.8855 44.1458C41.6422 44.1458 41.452 43.9513 41.452 43.7123C41.452 43.4755 41.6429 43.2824 41.8855 43.2824C42.1238 43.2824 42.3161 43.4755 42.3161 43.7123C42.3154 43.9513 42.1238 44.1458 41.8855 44.1458ZM41.935 41.987C41.6917 41.987 41.5015 41.7925 41.5015 41.5543C41.5015 41.3174 41.6924 41.1237 41.935 41.1237C42.1733 41.1237 42.3663 41.3174 42.3663 41.5543C42.3663 41.7925 42.1733 41.987 41.935 41.987ZM42.5859 40.05C42.3426 40.05 42.1525 39.8555 42.1525 39.6165C42.1525 39.3804 42.3434 39.1866 42.5859 39.1866C42.8242 39.1866 43.0173 39.3804 43.0173 39.6165C43.0173 39.8555 42.8242 40.05 42.5859 40.05ZM43.6216 42.5073C43.6216 42.3487 43.7407 42.2174 43.8914 42.2174C44.0407 42.2174 44.1613 42.3495 44.1613 42.5073C44.1613 42.6695 44.0407 42.7994 43.8914 42.7994C43.7407 42.8002 43.6216 42.6695 43.6216 42.5073ZM44.1921 45.4606C44.0414 45.4606 43.9223 45.33 43.9223 45.1685C43.9223 45.0099 44.0414 44.8786 44.1921 44.8786C44.3414 44.8786 44.462 45.0106 44.462 45.1685C44.462 45.33 44.3414 45.4606 44.1921 45.4606ZM44.6457 40.7325C44.4024 40.7325 44.2122 40.538 44.2122 40.299C44.2122 40.0622 44.4031 39.8691 44.6457 39.8691C44.884 39.8691 45.0763 40.0622 45.0763 40.299C45.0763 40.5373 44.884 40.7325 44.6457 40.7325ZM44.4842 38.5127C43.529 38.5127 42.7826 37.7491 42.7826 36.8183C42.7826 35.8838 43.529 35.1267 44.4842 35.1267C45.4186 35.1267 46.1729 35.8838 46.1729 36.8183C46.1722 37.7491 45.4179 38.5127 44.4842 38.5127ZM46.2512 39.8383C46.1004 39.8383 45.9813 39.7077 45.9813 39.5469C45.9813 39.3883 46.1004 39.257 46.2512 39.257C46.3997 39.257 46.521 39.389 46.521 39.5469C46.521 39.7077 46.3997 39.8383 46.2512 39.8383ZM46.8526 42.3574C46.7485 42.3574 46.6674 42.2676 46.6674 42.1564C46.6674 42.0487 46.7485 41.9576 46.8526 41.9576C46.9552 41.9576 47.0377 42.0487 47.0377 42.1564C47.0377 42.2676 46.9552 42.3574 46.8526 42.3574ZM46.6545 35.4862C46.4112 35.4862 46.221 35.2918 46.221 35.0542C46.221 34.8166 46.4119 34.6236 46.6545 34.6236C46.8928 34.6236 47.0851 34.8166 47.0851 35.0542C47.0851 35.2918 46.8928 35.4862 46.6545 35.4862ZM47.2739 33.5729C47.2739 33.3353 47.4648 33.1423 47.7073 33.1423C47.9456 33.1423 48.1379 33.3353 48.1379 33.5729C48.1379 33.8112 47.9456 34.0057 47.7073 34.0057C47.4648 34.0057 47.2739 33.8112 47.2739 33.5729ZM48.5973 39.7177C48.0389 39.7177 47.6018 39.2706 47.6018 38.7259C47.6018 38.179 48.0382 37.7369 48.5973 37.7369C49.1434 37.7369 49.5848 38.1797 49.5848 38.7259C49.5848 39.2706 49.1434 39.7177 48.5973 39.7177ZM49.264 32.7504C49.0207 32.7504 48.8305 32.5559 48.8305 32.3177C48.8305 32.0794 49.0214 31.8871 49.264 31.8871C49.5023 31.8871 49.6953 32.0801 49.6953 32.3177C49.6953 32.5552 49.5023 32.7504 49.264 32.7504ZM49.7133 28.2017C49.6099 28.2017 49.5281 28.112 49.5281 28.0008C49.5281 27.8917 49.6099 27.802 49.7133 27.802C49.8166 27.802 49.8999 27.8917 49.8999 28.0008C49.8999 28.112 49.8159 28.2017 49.7133 28.2017ZM49.3422 21.8266C49.3422 21.4089 49.6759 21.0708 50.103 21.0708C50.5192 21.0708 50.8565 21.4089 50.8565 21.8266C50.8565 22.2421 50.5192 22.5837 50.103 22.5837C49.6759 22.583 49.3422 22.2421 49.3422 21.8266ZM50.6678 30.9239C50.8171 30.9239 50.9376 31.0553 50.9376 31.2139C50.9376 31.3746 50.8171 31.5052 50.6678 31.5052C50.5178 31.5052 50.3979 31.3746 50.3979 31.2139C50.3979 31.0545 50.5178 30.9239 50.6678 30.9239ZM50.4475 34.5784C50.4475 34.4693 50.5286 34.3789 50.6326 34.3789C50.736 34.3789 50.8185 34.4686 50.8185 34.5784C50.8185 34.6889 50.736 34.7793 50.6326 34.7793C50.5293 34.7786 50.4475 34.6882 50.4475 34.5784ZM50.6498 37.1376C50.6498 36.9783 50.769 36.8477 50.919 36.8477C51.0683 36.8477 51.1888 36.9783 51.1888 37.1376C51.1888 37.2984 51.0683 37.429 50.919 37.429C50.769 37.429 50.6498 37.2984 50.6498 37.1376ZM51.8434 40.7555C51.285 40.7555 50.8479 40.3084 50.8479 39.7644C50.8479 39.2168 51.2843 38.7747 51.8434 38.7747C52.3895 38.7747 52.8309 39.2168 52.8309 39.7644C52.8309 40.3084 52.3888 40.7555 51.8434 40.7555ZM58.8365 12.7385C59.1975 12.7385 59.4896 13.0321 59.4896 13.3938C59.4896 13.754 59.1975 14.0504 58.8365 14.0504C58.4647 14.0504 58.1769 13.754 58.1769 13.3938C58.1769 13.0321 58.4647 12.7385 58.8365 12.7385ZM55.5236 15.5497C56.0325 15.5497 56.4444 15.9624 56.4444 16.4719C56.4444 16.98 56.0325 17.397 55.5236 17.397C55.0019 17.397 54.595 16.98 54.595 16.4719C54.5957 15.9631 55.0026 15.5497 55.5236 15.5497ZM53.09 18.3465C53.09 18.0401 53.3347 17.7925 53.6483 17.7925C53.9541 17.7925 54.2017 18.0408 54.2017 18.3465C54.2017 18.6522 53.9533 18.9027 53.6483 18.9027C53.3347 18.9027 53.09 18.6522 53.09 18.3465ZM54.4866 41.6246C54.0036 41.6246 53.6261 41.2392 53.6261 40.7684C53.6261 40.2947 54.0036 39.9122 54.4866 39.9122C54.9588 39.9122 55.3406 40.2947 55.3406 40.7684C55.3413 41.2392 54.9588 41.6246 54.4866 41.6246ZM57.0638 42.4298C56.6181 42.4298 56.27 42.0732 56.27 41.6382C56.27 41.2026 56.6181 40.8495 57.0638 40.8495C57.498 40.8495 57.8504 41.2019 57.8504 41.6382C57.8504 42.0732 57.498 42.4298 57.0638 42.4298ZM59.5405 44.0009C58.9822 44.0009 58.5451 43.5537 58.5451 43.0097C58.5451 42.4621 58.9814 42.0193 59.5405 42.0193C60.0852 42.0193 60.5273 42.4621 60.5273 43.0097C60.5273 43.5537 60.0852 44.0009 59.5405 44.0009ZM63.2222 45.2719C62.6639 45.2719 62.2268 44.8269 62.2268 44.2822C62.2268 43.7346 62.6632 43.2925 63.2222 43.2925C63.7677 43.2925 64.2091 43.7346 64.2091 44.2822C64.2091 44.8269 63.7677 45.2719 63.2222 45.2719ZM65.6624 46.0089C65.3114 46.0089 65.0365 45.7283 65.0365 45.3867C65.0365 45.0415 65.3114 44.7637 65.6624 44.7637C66.0054 44.7637 66.2832 45.0415 66.2832 45.3867C66.2839 45.729 66.0054 46.0089 65.6624 46.0089Z" fill="white"/>
</svg>
