<svg viewBox="0 0 100 100" fill="none" xmlns="http://www.w3.org/2000/svg">
<path d="M70.0848 12.0096C54.0743 -4.00319 28.0215 -4.00319 12.0087 12.0096C-4.0029 28.0212 -4.0029 54.074 12.0087 70.0845C27.472 85.5478 52.2963 86.0741 68.4016 71.6728L71.6569 74.9281C70.846 77.0046 71.2705 79.449 72.9468 81.1252L90.1256 98.3052C92.3849 100.565 96.0474 100.563 98.3055 98.3052C100.565 96.0471 100.565 92.3846 98.3055 90.1253L81.1267 72.9488C79.4504 71.2726 77.0038 70.848 74.9296 71.6589L71.6731 68.4013C86.0779 52.296 85.5492 27.4717 70.0848 12.0096ZM15.5 67C2.1942 53.6942 1.6942 28.3058 15 15C28.3058 1.69304 53.6942 1.6942 67 15C80.3058 28.3058 80.3058 53.6942 67 67C53.6942 80.3058 28.8058 80.3058 15.5 67Z" fill="url(#paint0_linear_797_2785)"/>
<path d="M75.9075 47.5467C70.2337 45.6318 60.9235 42.527 60.9235 35.5297C60.9235 30.581 67.257 24.6764 69.7469 18.3404C72.2563 11.9515 65.7164 9.78457 60.9993 14.6134C57.8049 17.8837 52.0243 24.3494 46.017 23.436C42.586 22.9148 37.028 17.4213 32.3256 11.4948C25.0249 2.29216 19.701 7.61604 23.8831 15.6777C27.0776 21.8334 28.5986 29.7483 27.1534 32.6386C25.7083 35.5289 23.4052 39.4565 10.5734 42.2979C-0.0743409 44.6548 5.32538 51.0438 10.3451 50.2837C11.9403 50.0415 28.5227 48.8597 31.6406 52.7165C36.1285 58.2695 36.0739 64.2637 35.8235 67.2446C34.9109 78.1198 44.266 77.5873 44.6469 70.2857C44.7178 68.9091 47.1547 56.4435 52.3277 54.3908C57.499 52.3372 60.3208 51.6652 72.3297 54.6183C81.6122 56.901 81.7639 49.5236 75.9075 47.5467ZM7.84052 47.4554C7.22723 47.4554 6.74687 46.962 6.74687 46.3642C6.74687 45.7656 7.22641 45.2771 7.84052 45.2771C8.43994 45.2771 8.92519 45.7656 8.92519 46.3642C8.92519 46.962 8.43994 47.4554 7.84052 47.4554ZM11.7192 47.1504C11.106 47.1504 10.6256 46.6586 10.6256 46.06C10.6256 45.4614 11.1051 44.972 11.7192 44.972C12.3187 44.972 12.8039 45.4614 12.8039 46.06C12.8039 46.6586 12.3187 47.1504 11.7192 47.1504ZM17.7665 45.8961C17.0023 45.8961 16.4054 45.2844 16.4054 44.539C16.4054 43.7944 17.0023 43.1868 17.7665 43.1868C18.5127 43.1868 19.1162 43.7944 19.1162 44.539C19.1162 45.2844 18.5127 45.8961 17.7665 45.8961ZM20.8835 44.5643C20.3983 44.5643 20.019 44.1753 20.019 43.7031C20.019 43.2292 20.3983 42.8443 20.8835 42.8443C21.3574 42.8443 21.7407 43.2292 21.7407 43.7031C21.7398 44.1761 21.3574 44.5643 20.8835 44.5643ZM27.2872 36.7946C27.4568 36.7946 27.5938 36.9438 27.5938 37.1241C27.5938 37.3067 27.4568 37.456 27.2872 37.456C27.1159 37.456 26.9805 37.3067 26.9805 37.1241C26.9805 36.9438 27.1159 36.7946 27.2872 36.7946ZM26.6029 39.3497C26.7196 39.3497 26.8142 39.4516 26.8142 39.5756C26.8142 39.7012 26.7196 39.8039 26.6029 39.8039C26.4847 39.8039 26.3925 39.702 26.3925 39.5756C26.3925 39.4524 26.4847 39.3497 26.6029 39.3497ZM26.4357 43.4617C25.8013 43.4617 25.3046 42.9536 25.3046 42.3354C25.3046 41.7139 25.8004 41.2108 26.4357 41.2108C27.0564 41.2108 27.5579 41.7139 27.5579 42.3354C27.5579 42.9536 27.0564 43.4617 26.4357 43.4617ZM27.4584 46.2525C27.341 46.2525 27.248 46.1489 27.248 46.0249C27.248 45.9001 27.341 45.799 27.4584 45.799C27.5742 45.799 27.6689 45.9001 27.6689 46.0249C27.6689 46.1489 27.5742 46.2525 27.4584 46.2525ZM58.8748 21.473C59.4735 21.473 59.9587 21.959 59.9587 22.5584C59.9587 23.1562 59.4735 23.6464 58.8748 23.6464C58.2616 23.6464 57.782 23.1562 57.782 22.5584C57.782 21.9582 58.2616 21.473 58.8748 21.473ZM55.9576 34.3292C55.9576 34.5991 55.7391 34.8202 55.4683 34.8202C55.1918 34.8202 54.9757 34.5991 54.9757 34.3292C54.9757 34.0592 55.1927 33.8399 55.4683 33.8399C55.7391 33.8399 55.9576 34.0592 55.9576 34.3292ZM55.6722 40.7753C55.6722 41.0452 55.4536 41.2662 55.1821 41.2662C54.9064 41.2662 54.6895 41.0452 54.6895 40.7753C54.6895 40.5053 54.9064 40.2859 55.1821 40.2859C55.4536 40.2859 55.6722 40.5053 55.6722 40.7753ZM55.5588 38.9949C55.5588 38.8139 55.6942 38.6654 55.8655 38.6654C56.0343 38.6654 56.1721 38.8147 56.1721 38.9949C56.1721 39.1776 56.0343 39.3268 55.8655 39.3268C55.6942 39.3268 55.5588 39.1784 55.5588 38.9949ZM54.0623 31.1347C54.0623 30.8648 54.2793 30.6454 54.5549 30.6454C54.8257 30.6454 55.0442 30.8648 55.0442 31.1347C55.0442 31.4047 54.8257 31.6257 54.5549 31.6257C54.2793 31.6257 54.0623 31.4047 54.0623 31.1347ZM54.3037 35.6985C54.3037 35.9684 54.0852 36.1894 53.8144 36.1894C53.5379 36.1894 53.3218 35.9684 53.3218 35.6985C53.3218 35.4285 53.5387 35.2092 53.8144 35.2092C54.086 35.2092 54.3037 35.4285 54.3037 35.6985ZM54.1904 29.0812C54.1904 28.9001 54.3257 28.7517 54.497 28.7517C54.6658 28.7517 54.8036 28.9009 54.8036 29.0812C54.8036 29.2638 54.6658 29.4131 54.497 29.4131C54.3257 29.4131 54.1904 29.2638 54.1904 29.0812ZM54.5777 25.465C55.1984 25.465 55.6999 25.969 55.6999 26.5897C55.6999 27.2079 55.1984 27.7159 54.5777 27.7159C53.9432 27.7159 53.4458 27.2079 53.4458 26.5897C53.4458 25.969 53.9432 25.465 54.5777 25.465ZM53.7002 32.8987C53.9718 32.8987 54.1904 33.1181 54.1904 33.3881C54.1904 33.6588 53.9718 33.8798 53.7002 33.8798C53.4238 33.8798 53.2076 33.6588 53.2076 33.3881C53.2076 33.1181 53.4238 32.8987 53.7002 32.8987ZM52.0675 27.6719C52.6881 27.6719 53.1897 28.1751 53.1897 28.7965C53.1897 29.4155 52.6881 29.9228 52.0675 29.9228C51.433 29.9228 50.9363 29.4147 50.9363 28.7965C50.9363 28.1751 51.433 27.6719 52.0675 27.6719ZM51.4175 36.9495C51.0872 36.9495 50.8295 36.6861 50.8295 36.364C50.8295 36.041 51.0864 35.7792 51.4175 35.7792C51.7405 35.7792 52.0006 36.0402 52.0006 36.364C52.0006 36.6861 51.7405 36.9495 51.4175 36.9495ZM51.9827 38.3506C51.9827 38.7666 51.6459 39.1075 51.2283 39.1075C50.8026 39.1075 50.469 38.7666 50.469 38.3506C50.469 37.9331 50.8018 37.5955 51.2283 37.5955C51.6459 37.5963 51.9827 37.9339 51.9827 38.3506ZM51.9794 34.7345C51.623 34.7345 51.3433 34.4491 51.3433 34.1008C51.3433 33.7526 51.6238 33.4688 51.9794 33.4688C52.3293 33.4688 52.6107 33.7526 52.6107 34.1008C52.6107 34.4491 52.3285 34.7345 51.9794 34.7345ZM52.5307 32.3678C52.2543 32.3678 52.0381 32.1468 52.0381 31.876C52.0381 31.6061 52.2551 31.3867 52.5307 31.3867C52.8015 31.3867 53.0209 31.6061 53.0209 31.876C53.0209 32.1468 52.8015 32.3678 52.5307 32.3678ZM50.7316 30.9072C50.9005 30.9072 51.0383 31.0564 51.0383 31.2375C51.0383 31.4201 50.9005 31.5686 50.7316 31.5686C50.5604 31.5686 50.425 31.4201 50.425 31.2375C50.425 31.0564 50.5604 30.9072 50.7316 30.9072ZM48.8494 26.1158C48.9668 26.1158 49.0606 26.2178 49.0606 26.3418C49.0606 26.4673 48.9668 26.5701 48.8494 26.5701C48.7311 26.5701 48.6389 26.4682 48.6389 26.3418C48.6389 26.2186 48.7311 26.1158 48.8494 26.1158ZM49.1372 28.4972C49.4602 28.4972 49.7204 28.759 49.7204 29.082C49.7204 29.4041 49.4602 29.6675 49.1372 29.6675C48.8061 29.6675 48.5484 29.4041 48.5484 29.082C48.5492 28.759 48.8061 28.4972 49.1372 28.4972ZM47.0234 27.3253C47.193 27.3253 47.33 27.4745 47.33 27.6548C47.33 27.8375 47.193 27.9867 47.0234 27.9867C46.8521 27.9867 46.7167 27.8375 46.7167 27.6548C46.7167 27.4745 46.8521 27.3253 47.0234 27.3253ZM47.1963 28.9058C47.4678 28.9058 47.6864 29.1252 47.6864 29.3952C47.6864 29.6651 47.4678 29.8869 47.1963 29.8869C46.9198 29.8869 46.7037 29.6659 46.7037 29.3952C46.7037 29.1244 46.9198 28.9058 47.1963 28.9058ZM48.3054 30.7131C49.3664 30.7131 50.2244 31.5743 50.2244 32.6353C50.2244 33.6931 49.3664 34.5616 48.3054 34.5616C47.2199 34.5616 46.3717 33.6939 46.3717 32.6353C46.3717 31.5743 47.2199 30.7131 48.3054 30.7131ZM47.5021 37.5433C47.5021 37.0229 47.9221 36.5972 48.453 36.5972C48.9766 36.5972 49.3966 37.0221 49.3966 37.5433C49.3966 38.0644 48.9758 38.4909 48.453 38.4909C47.9221 38.4909 47.5021 38.0636 47.5021 37.5433ZM48.294 40.2623C48.294 40.5844 48.0338 40.8478 47.7109 40.8478C47.3806 40.8478 47.122 40.5844 47.122 40.2623C47.122 39.9393 47.3797 39.6775 47.7109 39.6775C48.0338 39.6775 48.294 39.9393 48.294 40.2623ZM49.2229 36.1324C48.9464 36.1324 48.7303 35.9114 48.7303 35.6414C48.7303 35.3706 48.9472 35.1521 49.2229 35.1521C49.4936 35.1521 49.7122 35.3715 49.7122 35.6414C49.7114 35.9114 49.4936 36.1324 49.2229 36.1324ZM46.3171 34.9572C46.3171 35.2271 46.0985 35.4481 45.827 35.4481C45.5505 35.4481 45.3344 35.2271 45.3344 34.9572C45.3344 34.6864 45.5505 34.4678 45.827 34.4678C46.0993 34.4678 46.3171 34.6864 46.3171 34.9572ZM45.5219 36.8109C45.8849 36.8109 46.1785 37.1053 46.1785 37.4682C46.1785 37.8311 45.8857 38.1247 45.5219 38.1247C45.1607 38.1247 44.8654 37.8303 44.8654 37.4682C44.8654 37.1061 45.1598 36.8109 45.5219 36.8109ZM45.0269 32.7332C45.0269 32.5644 45.1631 32.4282 45.3335 32.4282C45.5032 32.4282 45.6394 32.5644 45.6394 32.7332C45.6394 32.902 45.5032 33.0398 45.3335 33.0398C45.1631 33.0398 45.0269 32.9012 45.0269 32.7332ZM44.9152 38.6654C45.6394 38.6654 46.2241 39.2543 46.2241 39.9785C46.2241 40.7027 45.6386 41.2907 44.9152 41.2907C44.1918 41.2907 43.6038 40.7019 43.6038 39.9785C43.603 39.2534 44.191 38.6654 44.9152 38.6654ZM45.1998 28.4214C45.4714 28.4214 45.6899 28.6408 45.6899 28.9107C45.6899 29.1807 45.4714 29.4017 45.1998 29.4017C44.9241 29.4017 44.7072 29.1807 44.7072 28.9107C44.708 28.64 44.9241 28.4214 45.1998 28.4214ZM44.9723 30.4749C45.243 30.4749 45.4616 30.6943 45.4616 30.9643C45.4616 31.2342 45.243 31.4552 44.9723 31.4552C44.6958 31.4552 44.4797 31.2342 44.4797 30.9643C44.4789 30.6935 44.6958 30.4749 44.9723 30.4749ZM43.4684 37.1551C42.9489 37.1551 42.5264 36.7326 42.5264 36.2131C42.5264 35.6936 42.9497 35.2711 43.4684 35.2711C43.9903 35.2711 44.4095 35.6928 44.4095 36.2131C44.4095 36.7334 43.9903 37.1551 43.4684 37.1551ZM40.1124 38.38C40.1124 37.6452 40.7086 37.049 41.4434 37.049C42.179 37.049 42.7736 37.6452 42.7736 38.38C42.7736 39.1148 42.179 39.711 41.4434 39.711C40.7086 39.711 40.1124 39.1148 40.1124 38.38ZM41.1123 40.604C41.1123 40.7867 40.9761 40.9359 40.8065 40.9359C40.6352 40.9359 40.4998 40.7867 40.4998 40.604C40.4998 40.4229 40.6352 40.2745 40.8065 40.2745C40.9761 40.2745 41.1123 40.4229 41.1123 40.604ZM41.8691 34.5575C41.8691 34.3887 42.0045 34.2517 42.1766 34.2517C42.3462 34.2517 42.4824 34.3887 42.4824 34.5575C42.4824 34.7264 42.3462 34.8642 42.1766 34.8642C42.0045 34.8642 41.8691 34.7264 41.8691 34.5575ZM42.4987 40.8609C43.0207 40.8609 43.4399 41.2825 43.4399 41.8028C43.4399 42.3232 43.0198 42.7448 42.4987 42.7448C41.9792 42.7448 41.5568 42.3232 41.5568 41.8028C41.5568 41.2825 41.9792 40.8609 42.4987 40.8609ZM42.5305 33.017C42.5305 32.5432 42.9122 32.1582 43.3958 32.1582C43.8713 32.1582 44.2546 32.544 44.2546 33.017C44.2546 33.4916 43.8713 33.879 43.3958 33.879C42.9114 33.879 42.5305 33.4908 42.5305 33.017ZM43.8313 26.0824C44.1021 26.0824 44.3206 26.3018 44.3206 26.5717C44.3206 26.8417 44.1021 27.0627 43.8313 27.0627C43.5548 27.0627 43.3387 26.8417 43.3387 26.5717C43.3387 26.301 43.5557 26.0824 43.8313 26.0824ZM42.6047 28.2216C42.8755 28.2216 43.0941 28.441 43.0941 28.7109C43.0941 28.9817 42.8755 29.2027 42.6047 29.2027C42.3283 29.2027 42.1121 28.9817 42.1121 28.7109C42.1121 28.4401 42.3291 28.2216 42.6047 28.2216ZM41.7207 30.6454C41.9923 30.6454 42.21 30.8648 42.21 31.1347C42.21 31.4047 41.9914 31.6257 41.7207 31.6257C41.4442 31.6257 41.2281 31.4047 41.2281 31.1347C41.2281 30.8648 41.4442 30.6454 41.7207 30.6454ZM40.5797 35.2198C40.3033 35.2198 40.0871 34.9988 40.0871 34.7288C40.0871 34.4589 40.3041 34.2395 40.5797 34.2395C40.8513 34.2395 41.0691 34.4589 41.0691 34.7288C41.0691 34.9988 40.8513 35.2198 40.5797 35.2198ZM40.7494 26.4127C40.919 26.4127 41.056 26.5619 41.056 26.7422C41.056 26.9249 40.919 27.0741 40.7494 27.0741C40.5789 27.0741 40.4435 26.9249 40.4435 26.7422C40.4427 26.5619 40.5781 26.4127 40.7494 26.4127ZM39.8955 28.0789C40.1671 28.0789 40.3848 28.2982 40.3848 28.5682C40.3848 28.8381 40.1663 29.0591 39.8955 29.0591C39.619 29.0591 39.4029 28.8381 39.4029 28.5682C39.4029 28.2982 39.619 28.0789 39.8955 28.0789ZM38.2391 24.93C38.4088 24.93 38.5458 25.0793 38.5458 25.2595C38.5458 25.4422 38.4088 25.5914 38.2391 25.5914C38.0679 25.5914 37.9325 25.4422 37.9325 25.2595C37.9325 25.0785 38.0679 24.93 38.2391 24.93ZM38.5637 29.1945C38.5637 29.3201 38.4691 29.4229 38.3533 29.4229C38.2359 29.4229 38.1429 29.3201 38.1429 29.1945C38.1429 29.0706 38.2359 28.9678 38.3533 28.9678C38.4691 28.9678 38.5637 29.0706 38.5637 29.1945ZM38.3802 30.1422C39.4412 30.1422 40.2984 31.0034 40.2984 32.0644C40.2984 33.1222 39.4412 33.9899 38.3802 33.9899C37.2947 33.9899 36.4457 33.1222 36.4457 32.0644C36.4457 31.0034 37.2947 30.1422 38.3802 30.1422ZM40.0855 36.3469C40.0855 36.5157 39.9493 36.6535 39.7797 36.6535C39.6084 36.6535 39.473 36.5157 39.473 36.3469C39.473 36.178 39.6084 36.0418 39.7797 36.0418C39.9493 36.0418 40.0855 36.178 40.0855 36.3469ZM37.9569 37.6346C37.457 37.6346 37.0615 37.2342 37.0615 36.744C37.0615 36.2539 37.4562 35.8559 37.9569 35.8559C38.4487 35.8559 38.8434 36.2539 38.8434 36.744C38.8443 37.2342 38.4487 37.6346 37.9569 37.6346ZM38.4879 44.1614C38.4879 44.331 38.3517 44.468 38.182 44.468C38.0116 44.468 37.8754 44.331 37.8754 44.1614C37.8754 43.9934 38.0116 43.8564 38.182 43.8564C38.3517 43.8564 38.4879 43.9934 38.4879 44.1614ZM36.9065 35.0143C36.9065 34.8454 37.0419 34.7084 37.2132 34.7084C37.3828 34.7084 37.519 34.8454 37.519 35.0143C37.519 35.1831 37.3828 35.3209 37.2132 35.3209C37.0411 35.3209 36.9065 35.1823 36.9065 35.0143ZM38.9829 39.0879C39.2545 39.0879 39.4722 39.3073 39.4722 39.5772C39.4722 39.8472 39.2537 40.0682 38.9829 40.0682C38.7064 40.0682 38.4903 39.8472 38.4903 39.5772C38.4903 39.3073 38.7064 39.0879 38.9829 39.0879ZM37.4081 28.0356C37.4081 28.6538 36.9057 29.1619 36.2859 29.1619C35.6514 29.1619 35.1547 28.6538 35.1547 28.0356C35.1547 27.4142 35.6514 26.911 36.2859 26.911C36.9065 26.911 37.4081 27.415 37.4081 28.0356ZM36.3348 34.2721C36.3348 34.5421 36.1163 34.7631 35.8455 34.7631C35.569 34.7631 35.3529 34.5421 35.3529 34.2721C35.3529 34.0022 35.5698 33.7828 35.8455 33.7828C36.1163 33.7828 36.3348 34.0022 36.3348 34.2721ZM33.6778 33.4411C33.9485 33.4411 34.1671 33.6604 34.1671 33.9304C34.1671 34.2003 33.9485 34.4222 33.6778 34.4222C33.4013 34.4222 33.1852 34.2012 33.1852 33.9304C33.1852 33.6596 33.4013 33.4411 33.6778 33.4411ZM33.1624 29.1962C33.1624 29.0151 33.2977 28.8667 33.469 28.8667C33.6386 28.8667 33.7748 29.0151 33.7748 29.1962C33.7748 29.3797 33.6386 29.5281 33.469 29.5281C33.2977 29.5281 33.1624 29.3797 33.1624 29.1962ZM33.9265 31.991C33.9265 31.7211 34.1435 31.5017 34.4191 31.5017C34.6899 31.5017 34.9084 31.7211 34.9084 31.991C34.9084 32.261 34.6899 32.482 34.4191 32.482C34.1426 32.482 33.9265 32.261 33.9265 31.991ZM34.8187 36.0361C35.0903 36.0361 35.3081 36.2555 35.3081 36.5255C35.3081 36.7954 35.0895 37.0164 34.8187 37.0164C34.5431 37.0164 34.3261 36.7954 34.3261 36.5255C34.3261 36.2555 34.5423 36.0361 34.8187 36.0361ZM34.7266 23.9832C35.3472 23.9832 35.8488 24.4864 35.8488 25.1078C35.8488 25.7268 35.3472 26.2341 34.7266 26.2341C34.0921 26.2341 33.5954 25.726 33.5954 25.1078C33.5954 24.4864 34.0921 23.9832 34.7266 23.9832ZM32.558 20.5604C33.0947 20.5604 33.5285 20.9959 33.5285 21.5325C33.5285 22.0675 33.0947 22.5062 32.558 22.5062C32.0092 22.5062 31.5802 22.0667 31.5802 21.5325C31.5802 20.9967 32.0092 20.5604 32.558 20.5604ZM32.5368 37.045C32.2604 37.045 32.0442 36.8239 32.0442 36.554C32.0442 36.2832 32.2612 36.0647 32.5368 36.0647C32.8076 36.0647 33.0262 36.2841 33.0262 36.554C33.0262 36.8239 32.8076 37.045 32.5368 37.045ZM32.7839 41.6887C32.7839 41.8575 32.6478 41.9953 32.4781 41.9953C32.3069 41.9953 32.1715 41.8575 32.1715 41.6887C32.1715 41.5198 32.3069 41.3828 32.4781 41.3828C32.6478 41.3828 32.7839 41.5198 32.7839 41.6887ZM30.9963 35.5639C31.1659 35.5639 31.3013 35.7009 31.3013 35.8698C31.3013 36.0386 31.1651 36.1764 30.9963 36.1764C30.8242 36.1764 30.6896 36.0386 30.6896 35.8698C30.6896 35.7009 30.8242 35.5639 30.9963 35.5639ZM30.6138 28.6824C30.6138 28.5584 30.7059 28.4556 30.8242 28.4556C30.9408 28.4556 31.0354 28.5584 31.0354 28.6824C31.0354 28.808 30.9408 28.9107 30.8242 28.9107C30.7059 28.9107 30.6138 28.808 30.6138 28.6824ZM31.0167 34.0446C31.0167 33.7746 31.2336 33.5552 31.5093 33.5552C31.7808 33.5552 31.9986 33.7746 31.9986 34.0446C31.9986 34.3145 31.78 34.5355 31.5093 34.5355C31.2336 34.5355 31.0167 34.3145 31.0167 34.0446ZM31.7017 31.4201C31.7017 31.1494 31.9187 30.9308 32.1943 30.9308C32.4659 30.9308 32.6836 31.1502 32.6836 31.4201C32.6836 31.6901 32.4651 31.9111 32.1943 31.9111C31.9178 31.9111 31.7017 31.6901 31.7017 31.4201ZM30.6962 16.4549C31.3779 16.4549 31.9309 17.0087 31.9309 17.6929C31.9309 18.3739 31.3779 18.9333 30.6962 18.9333C29.9972 18.9333 29.4508 18.3739 29.4508 17.6929C29.4508 17.0087 29.9972 16.4549 30.6962 16.4549ZM29.5136 36.5891C29.2371 36.5891 29.021 36.3681 29.021 36.0981C29.021 35.8273 29.238 35.6088 29.5136 35.6088C29.7844 35.6088 30.0029 35.8282 30.0029 36.0981C30.0029 36.3681 29.7844 36.5891 29.5136 36.5891ZM29.5895 38.6075C29.5895 38.7764 29.4533 38.9142 29.2836 38.9142C29.1115 38.9142 28.977 38.7764 28.977 38.6075C28.977 38.4387 29.1124 38.3025 29.2836 38.3025C29.4541 38.3025 29.5895 38.4387 29.5895 38.6075ZM29.1482 32.0473C29.1482 31.8785 29.2836 31.7423 29.4549 31.7423C29.6245 31.7423 29.7607 31.8785 29.7607 32.0473C29.7607 32.2161 29.6245 32.3539 29.4549 32.3539C29.2836 32.3539 29.1482 32.2161 29.1482 32.0473ZM25.674 10.7567C25.3609 10.7567 25.1154 10.5063 25.1154 10.2005C25.1154 9.89467 25.3609 9.64674 25.674 9.64674C25.9799 9.64674 26.227 9.89548 26.227 10.2005C26.227 10.5055 25.979 10.7567 25.674 10.7567ZM27.2709 12.6202C26.9577 12.6202 26.7122 12.3698 26.7122 12.064C26.7122 11.7582 26.9577 11.5103 27.2709 11.5103C27.5767 11.5103 27.8238 11.759 27.8238 12.064C27.8238 12.369 27.5767 12.6202 27.2709 12.6202ZM28.1582 14.3076C28.1582 13.9177 28.4705 13.6013 28.8693 13.6013C29.2583 13.6013 29.574 13.9177 29.574 14.3076C29.574 14.6966 29.2583 15.0155 28.8693 15.0155C28.4697 15.0155 28.1582 14.6966 28.1582 14.3076ZM29.2265 45.2028C29.0553 45.2028 28.9199 45.0528 28.9199 44.8717C28.9199 44.6891 29.0553 44.5423 29.2265 44.5423C29.3962 44.5423 29.5332 44.6899 29.5332 44.8717C29.5332 45.0528 29.3962 45.2028 29.2265 45.2028ZM30.0119 42.5107C29.3774 42.5107 28.8808 42.0026 28.8808 41.3837C28.8808 40.7622 29.3774 40.259 30.0119 40.259C30.6317 40.259 31.1341 40.7622 31.1341 41.3837C31.1341 42.0026 30.6317 42.5107 30.0119 42.5107ZM31.223 48.9886C31.1047 48.9886 31.0126 48.885 31.0126 48.7603C31.0126 48.6363 31.1056 48.5343 31.223 48.5343C31.3396 48.5343 31.4342 48.6363 31.4342 48.7603C31.4342 48.885 31.3396 48.9886 31.223 48.9886ZM31.3959 39.1556C31.1194 39.1556 30.9033 38.9346 30.9033 38.6646C30.9033 38.3939 31.1202 38.1753 31.3959 38.1753C31.6667 38.1753 31.8852 38.3947 31.8852 38.6646C31.8852 38.9346 31.6667 39.1556 31.3959 39.1556ZM32.3656 46.5713C32.0891 46.5713 31.873 46.3503 31.873 46.0787C31.873 45.8096 32.0899 45.5902 32.3656 45.5902C32.6363 45.5902 32.8549 45.8096 32.8549 46.0787C32.8549 46.3503 32.6363 46.5713 32.3656 46.5713ZM32.7994 38.265C32.7994 38.0962 32.9348 37.9592 33.1061 37.9592C33.2757 37.9592 33.4111 38.0962 33.4111 38.265C33.4111 38.4338 33.2749 38.5717 33.1061 38.5717C32.9348 38.5717 32.7994 38.4338 32.7994 38.265ZM33.562 51.6709C33.3907 51.6709 33.2553 51.5209 33.2553 51.3398C33.2553 51.1588 33.3907 51.0103 33.562 51.0103C33.7316 51.0103 33.8678 51.1588 33.8678 51.3398C33.8678 51.5209 33.7316 51.6709 33.562 51.6709ZM33.5065 44.5749C33.2301 44.5749 33.0139 44.3539 33.0139 44.0823C33.0139 43.8132 33.2309 43.5938 33.5065 43.5938C33.7773 43.5938 33.9958 43.8132 33.9958 44.0823C33.9958 44.3547 33.7773 44.5749 33.5065 44.5749ZM33.7846 40.0135C33.7846 38.9517 34.6336 38.0913 35.7191 38.0913C36.7809 38.0913 37.6373 38.9517 37.6373 40.0135C37.6373 41.0713 36.7809 41.939 35.7191 41.939C34.6328 41.939 33.7846 41.0713 33.7846 40.0135ZM35.5217 45.2803C35.5217 45.45 35.3855 45.587 35.2159 45.587C35.0446 45.587 34.9093 45.45 34.9093 45.2803C34.9093 45.1131 35.0446 44.9761 35.2159 44.9761C35.3855 44.9761 35.5217 45.1131 35.5217 45.2803ZM34.9313 42.6127C35.1009 42.6127 35.2371 42.7619 35.2371 42.9422C35.2371 43.1248 35.1009 43.2741 34.9313 43.2741C34.76 43.2741 34.6246 43.1248 34.6246 42.9422C34.6246 42.7619 34.76 42.6127 34.9313 42.6127ZM34.6679 46.7646C34.6679 46.4955 34.8848 46.2753 35.1604 46.2753C35.4312 46.2753 35.6498 46.4955 35.6498 46.7646C35.6498 47.0354 35.4312 47.2564 35.1604 47.2564C34.8848 47.2556 34.6679 47.0354 34.6679 46.7646ZM35.6155 50.3938C35.4451 50.3938 35.3089 50.2437 35.3089 50.0619C35.3089 49.88 35.4451 49.7324 35.6155 49.7324C35.7852 49.7324 35.9213 49.8808 35.9213 50.0619C35.9213 50.2437 35.7852 50.3938 35.6155 50.3938ZM35.923 43.8548C35.923 43.5848 36.1391 43.3654 36.4156 43.3654C36.6871 43.3654 36.9049 43.5848 36.9049 43.8548C36.9049 44.1255 36.6863 44.3473 36.4156 44.3473C36.1391 44.3473 35.923 44.1255 35.923 43.8548ZM36.9277 47.7914C36.8103 47.7914 36.7173 47.6894 36.7173 47.563C36.7173 47.4407 36.8103 47.3371 36.9277 47.3371C37.0444 47.3371 37.1381 47.4407 37.1381 47.563C37.1381 47.6894 37.0435 47.7914 36.9277 47.7914ZM37.3624 42.5319C37.3624 42.3509 37.4978 42.2025 37.6691 42.2025C37.8387 42.2025 37.9749 42.3517 37.9749 42.5319C37.9749 42.7146 37.8387 42.8639 37.6691 42.8639C37.4978 42.8639 37.3624 42.7146 37.3624 42.5319ZM38.0695 45.4198C38.3411 45.4198 38.5588 45.6392 38.5588 45.9083C38.5588 46.1799 38.3403 46.4009 38.0695 46.4009C37.7938 46.4009 37.5769 46.1799 37.5769 45.9083C37.5769 45.6392 37.7938 45.4198 38.0695 45.4198ZM38.6159 48.8752C38.6159 49.146 38.3973 49.367 38.1266 49.367C37.8501 49.367 37.634 49.146 37.634 48.8752C37.634 48.6061 37.8509 48.3859 38.1266 48.3859C38.3982 48.3859 38.6159 48.6061 38.6159 48.8752ZM37.8974 54.1689C37.7261 54.1689 37.5908 54.0205 37.5908 53.8378C37.5908 53.6576 37.7261 53.5084 37.8974 53.5084C38.067 53.5084 38.2041 53.6584 38.2041 53.8378C38.2032 54.0205 38.0662 54.1689 37.8974 54.1689ZM38.4389 52.0975C38.3215 52.0975 38.2285 51.9963 38.2285 51.8699C38.2285 51.7468 38.3215 51.644 38.4389 51.644C38.5556 51.644 38.6493 51.7468 38.6493 51.8699C38.6493 51.9963 38.5556 52.0975 38.4389 52.0975ZM38.6697 42.5246C38.6697 42.019 39.0775 41.6079 39.5921 41.6079C40.0994 41.6079 40.5072 42.019 40.5072 42.5246C40.5072 43.0302 40.0994 43.4429 39.5921 43.4429C39.0775 43.4429 38.6697 43.0302 38.6697 42.5246ZM40.3506 49.3205C40.1793 49.3205 40.0439 49.1721 40.0439 48.9894C40.0439 48.8092 40.1793 48.6599 40.3506 48.6599C40.5202 48.6599 40.6564 48.81 40.6564 48.9894C40.6564 49.1721 40.5194 49.3205 40.3506 49.3205ZM41.6473 54.2521C42.2679 54.2521 42.7695 54.757 42.7695 55.3776C42.7695 55.9958 42.2679 56.5038 41.6473 56.5038C41.0128 56.5038 40.5161 55.9958 40.5161 55.3776C40.5161 54.7578 41.0128 54.2521 41.6473 54.2521ZM40.2764 71.0695C39.9208 71.0695 39.6435 70.7832 39.6435 70.4366C39.6435 70.09 39.9208 69.8078 40.2764 69.8078C40.6238 69.8078 40.9051 70.09 40.9051 70.4366C40.9051 70.7832 40.6238 71.0695 40.2764 71.0695ZM40.8089 66.3148C40.2821 66.3148 39.8702 65.894 39.8702 65.3794C39.8702 64.8648 40.2821 64.4448 40.8089 64.4448C41.3243 64.4448 41.7411 64.864 41.7411 65.3794C41.7411 65.8948 41.3243 66.3148 40.8089 66.3148ZM41.1906 62.2453C40.5781 62.2453 40.0994 61.7551 40.0994 61.1582C40.0994 60.5579 40.5781 60.071 41.1906 60.071C41.79 60.071 42.2744 60.5579 42.2744 61.1582C42.2744 61.756 41.79 62.2453 41.1906 62.2453ZM42.0648 58.9766C41.6016 58.9766 41.2387 58.6055 41.2387 58.1545C41.2387 57.7011 41.6008 57.3324 42.0648 57.3324C42.5175 57.3324 42.8828 57.7011 42.8828 58.1545C42.8828 58.6055 42.5175 58.9766 42.0648 58.9766ZM41.7998 52.5118C41.1653 52.5118 40.6686 52.0037 40.6686 51.3847C40.6686 50.764 41.1653 50.26 41.7998 50.26C42.4196 50.26 42.922 50.764 42.922 51.3847C42.922 52.0037 42.4196 52.5118 41.7998 52.5118ZM43.4301 49.3776C43.2588 49.3776 43.1234 49.2292 43.1234 49.0465C43.1234 48.8663 43.2588 48.717 43.4301 48.717C43.5997 48.717 43.7367 48.8671 43.7367 49.0465C43.7367 49.2292 43.5997 49.3776 43.4301 49.3776ZM42.2214 48.138C41.1351 48.138 40.287 47.2703 40.287 46.2117C40.287 45.1507 41.1359 44.2903 42.2214 44.2903C43.2816 44.2903 44.1396 45.1515 44.1396 46.2117C44.1396 47.2703 43.2825 48.138 42.2214 48.138ZM44.8565 53.6111C44.7382 53.6111 44.6452 53.5075 44.6452 53.3828C44.6452 53.258 44.7382 53.1569 44.8565 53.1569C44.9723 53.1569 45.0669 53.258 45.0669 53.3828C45.0669 53.5075 44.9723 53.6111 44.8565 53.6111ZM44.6501 48.9315C44.6501 48.6624 44.8671 48.443 45.1427 48.443C45.4135 48.443 45.632 48.6624 45.632 48.9315C45.632 49.2031 45.4135 49.4241 45.1427 49.4241C44.8671 49.4233 44.6501 49.2031 44.6501 48.9315ZM45.4657 51.3292C45.3474 51.3292 45.2553 51.2256 45.2553 51.1009C45.2553 50.9769 45.3474 50.875 45.4657 50.875C45.5831 50.875 45.6769 50.9769 45.6769 51.1009C45.6769 51.2256 45.5831 51.3292 45.4657 51.3292ZM45.7136 46.5142C45.4371 46.5142 45.221 46.2932 45.221 46.0225C45.221 45.7533 45.4379 45.5331 45.7136 45.5331C45.9844 45.5331 46.2037 45.7533 46.2037 46.0225C46.2037 46.294 45.9844 46.5142 45.7136 46.5142ZM45.8302 44.1761C45.3311 44.1761 44.9356 43.7748 44.9356 43.2847C44.9356 42.7945 45.3303 42.3966 45.8302 42.3966C46.3212 42.3966 46.7167 42.7954 46.7167 43.2847C46.7167 43.774 46.3204 44.1761 45.8302 44.1761ZM46.7746 35.9839C46.7746 35.8029 46.91 35.6545 47.0813 35.6545C47.2501 35.6545 47.3879 35.8037 47.3879 35.9839C47.3879 36.1666 47.2501 36.3159 47.0813 36.3159C46.91 36.315 46.7746 36.1666 46.7746 35.9839ZM47.5967 50.1654C47.3202 50.1654 47.1041 49.9444 47.1041 49.6728C47.1041 49.4037 47.321 49.1843 47.5967 49.1843C47.8674 49.1843 48.086 49.4037 48.086 49.6728C48.0852 49.9444 47.8674 50.1654 47.5967 50.1654ZM47.653 47.7123C47.3765 47.7123 47.1604 47.4913 47.1604 47.2205C47.1604 46.9514 47.3773 46.7312 47.653 46.7312C47.9237 46.7312 48.1431 46.9514 48.1431 47.2205C48.1431 47.4913 47.9237 47.7123 47.653 47.7123ZM48.3927 45.5111C48.1162 45.5111 47.9001 45.2901 47.9001 45.0185C47.9001 44.7502 48.117 44.53 48.3927 44.53C48.6634 44.53 48.8828 44.7502 48.8828 45.0185C48.8828 45.2901 48.6634 45.5111 48.3927 45.5111ZM49.5695 48.3035C49.5695 48.1233 49.7049 47.9741 49.8761 47.9741C50.0458 47.9741 50.1828 48.1241 50.1828 48.3035C50.1828 48.4879 50.0458 48.6355 49.8761 48.6355C49.7049 48.6363 49.5695 48.4879 49.5695 48.3035ZM50.2178 51.6595C50.0466 51.6595 49.9112 51.5111 49.9112 51.3276C49.9112 51.1473 50.0466 50.9981 50.2178 50.9981C50.3875 50.9981 50.5245 51.1482 50.5245 51.3276C50.5245 51.5111 50.3875 51.6595 50.2178 51.6595ZM50.7333 46.2867C50.4568 46.2867 50.2407 46.0657 50.2407 45.7941C50.2407 45.525 50.4576 45.3056 50.7333 45.3056C51.004 45.3056 51.2226 45.525 51.2226 45.7941C51.2226 46.0649 51.004 46.2867 50.7333 46.2867ZM50.5498 43.7642C49.4643 43.7642 48.6161 42.8965 48.6161 41.8387C48.6161 40.7769 49.4643 39.9165 50.5498 39.9165C51.6116 39.9165 52.4687 40.7769 52.4687 41.8387C52.4679 42.8965 51.6108 43.7642 50.5498 43.7642ZM52.5576 45.2705C52.3864 45.2705 52.251 45.1221 52.251 44.9394C52.251 44.7592 52.3864 44.6099 52.5576 44.6099C52.7265 44.6099 52.8643 44.76 52.8643 44.9394C52.8643 45.1221 52.7265 45.2705 52.5576 45.2705ZM53.2411 48.1331C53.1228 48.1331 53.0307 48.0312 53.0307 47.9047C53.0307 47.7824 53.1228 47.6788 53.2411 47.6788C53.3577 47.6788 53.4515 47.7824 53.4515 47.9047C53.4515 48.0312 53.3577 48.1331 53.2411 48.1331ZM53.016 40.3251C52.7395 40.3251 52.5234 40.1041 52.5234 39.8341C52.5234 39.5642 52.7403 39.3448 53.016 39.3448C53.2867 39.3448 53.5053 39.5642 53.5053 39.8341C53.5053 40.1041 53.2867 40.3251 53.016 40.3251ZM53.7198 38.1508C53.7198 37.8809 53.9367 37.6615 54.2124 37.6615C54.4831 37.6615 54.7017 37.8809 54.7017 38.1508C54.7017 38.4216 54.4831 38.6426 54.2124 38.6426C53.9367 38.6426 53.7198 38.4216 53.7198 38.1508ZM55.2237 45.1335C54.5892 45.1335 54.0925 44.6254 54.0925 44.0064C54.0925 43.385 54.5883 42.8826 55.2237 42.8826C55.8443 42.8826 56.3458 43.3858 56.3458 44.0064C56.3458 44.6254 55.8443 45.1335 55.2237 45.1335ZM55.9813 37.2162C55.7048 37.2162 55.4887 36.9952 55.4887 36.7244C55.4887 36.4537 55.7056 36.2351 55.9813 36.2351C56.2521 36.2351 56.4714 36.4545 56.4714 36.7244C56.4714 36.9944 56.2521 37.2162 55.9813 37.2162ZM56.4918 32.0473C56.3744 32.0473 56.2814 31.9454 56.2814 31.8189C56.2814 31.695 56.3744 31.593 56.4918 31.593C56.6093 31.593 56.7039 31.695 56.7039 31.8189C56.7039 31.9454 56.6084 32.0473 56.4918 32.0473ZM56.0702 24.8028C56.0702 24.3282 56.4494 23.944 56.9347 23.944C57.4077 23.944 57.791 24.3282 57.791 24.8028C57.791 25.275 57.4077 25.6632 56.9347 25.6632C56.4494 25.6624 56.0702 25.275 56.0702 24.8028ZM57.5765 35.1407C57.7461 35.1407 57.8831 35.2899 57.8831 35.4701C57.8831 35.6528 57.7461 35.8013 57.5765 35.8013C57.4061 35.8013 57.2699 35.6528 57.2699 35.4701C57.2699 35.2891 57.4061 35.1407 57.5765 35.1407ZM57.3261 39.2934C57.3261 39.1694 57.4183 39.0667 57.5365 39.0667C57.654 39.0667 57.7478 39.1686 57.7478 39.2934C57.7478 39.419 57.654 39.5218 57.5365 39.5218C57.4191 39.521 57.3261 39.4182 57.3261 39.2934ZM57.5561 42.2016C57.5561 42.0206 57.6915 41.8722 57.8619 41.8722C58.0316 41.8722 58.1686 42.0206 58.1686 42.2016C58.1686 42.3843 58.0316 42.5328 57.8619 42.5328C57.6915 42.5328 57.5561 42.3843 57.5561 42.2016ZM58.9124 46.3128C58.2779 46.3128 57.7812 45.8047 57.7812 45.1865C57.7812 44.5643 58.2771 44.0619 58.9124 44.0619C59.533 44.0619 60.0346 44.5643 60.0346 45.1865C60.0346 45.8047 59.5322 46.3128 58.9124 46.3128ZM66.859 14.4756C67.2692 14.4756 67.6012 14.8091 67.6012 15.2202C67.6012 15.6296 67.2692 15.9664 66.859 15.9664C66.4366 15.9664 66.1095 15.6296 66.1095 15.2202C66.1095 14.8091 66.4366 14.4756 66.859 14.4756ZM63.0945 17.6701C63.6727 17.6701 64.1408 18.139 64.1408 18.718C64.1408 19.2954 63.6727 19.7693 63.0945 19.7693C62.5016 19.7693 62.0392 19.2954 62.0392 18.718C62.04 18.1398 62.5024 17.6701 63.0945 17.6701ZM60.329 20.8482C60.329 20.5 60.6071 20.2186 60.9635 20.2186C61.3109 20.2186 61.5922 20.5008 61.5922 20.8482C61.5922 21.1957 61.3101 21.4803 60.9635 21.4803C60.6071 21.4803 60.329 21.1957 60.329 20.8482ZM61.916 47.3004C61.3672 47.3004 60.9382 46.8625 60.9382 46.3275C60.9382 45.7892 61.3672 45.3545 61.916 45.3545C62.4526 45.3545 62.8865 45.7892 62.8865 46.3275C62.8873 46.8625 62.4526 47.3004 61.916 47.3004ZM64.8446 48.2155C64.3382 48.2155 63.9426 47.8101 63.9426 47.3159C63.9426 46.8209 64.3382 46.4196 64.8446 46.4196C65.338 46.4196 65.7385 46.8201 65.7385 47.3159C65.7385 47.8101 65.338 48.2155 64.8446 48.2155ZM67.6591 50.0007C67.0246 50.0007 66.5279 49.4926 66.5279 48.8744C66.5279 48.2522 67.0238 47.749 67.6591 47.749C68.2781 47.749 68.7805 48.2522 68.7805 48.8744C68.7805 49.4926 68.2781 50.0007 67.6591 50.0007ZM71.8428 51.445C71.2083 51.445 70.7117 50.9394 70.7117 50.3204C70.7117 49.6981 71.2075 49.1958 71.8428 49.1958C72.4626 49.1958 72.9642 49.6981 72.9642 50.3204C72.9642 50.9394 72.4626 51.445 71.8428 51.445ZM74.6157 52.2826C74.2169 52.2826 73.9045 51.9637 73.9045 51.5755C73.9045 51.1832 74.2169 50.8676 74.6157 50.8676C75.0055 50.8676 75.3211 51.1832 75.3211 51.5755C75.3219 51.9645 75.0055 52.2826 74.6157 52.2826Z" fill="url(#paint1_linear_797_2785)"/>
<defs>
<linearGradient id="paint0_linear_797_2785" x1="94.2308" y1="99.9993" x2="0.514949" y2="58.0166" gradientUnits="userSpaceOnUse">
<stop stop-color="#317470"/>
<stop offset="1" stop-color="#2C5776"/>
</linearGradient>
<linearGradient id="paint1_linear_797_2785" x1="75.5297" y1="75.6141" x2="7.07337" y2="42.0638" gradientUnits="userSpaceOnUse">
<stop stop-color="#317470"/>
<stop offset="1" stop-color="#2C5776"/>
</linearGradient>
</defs>
</svg>
