<svg viewBox="0 0 199 57" fill="none" xmlns="http://www.w3.org/2000/svg">
<path d="M57.528 33.7129C52.977 32.177 45.5091 29.6866 45.5091 24.0739C45.5091 20.1044 50.5893 15.3683 52.5864 10.2861C54.5993 5.16137 49.3536 3.42326 45.5699 7.29656C43.0075 9.91975 38.3708 15.1059 33.5523 14.3733C30.8002 13.9553 26.3421 9.54884 22.5702 4.79504C16.7141 -2.58653 12.4438 1.68384 15.7983 8.15024C18.3607 13.0879 19.5807 19.4365 18.4215 21.7549C17.2623 24.0732 15.415 27.2237 5.12238 29.5028C-3.41837 31.3933 0.912842 36.518 4.93921 35.9083C6.21875 35.714 19.5198 34.7661 22.0207 37.8597C25.6206 42.3139 25.5767 47.122 25.3759 49.5129C24.6439 58.2362 32.1478 57.809 32.4533 51.9523C32.5102 50.8481 34.4648 40.8492 38.6142 39.2027C42.7622 37.5555 45.0256 37.0165 54.6582 39.3852C62.1039 41.2162 62.2255 35.2986 57.528 33.7129ZM2.93028 33.6397C2.43835 33.6397 2.05305 33.2439 2.05305 32.7644C2.05305 32.2843 2.43769 31.8924 2.93028 31.8924C3.41109 31.8924 3.80032 32.2843 3.80032 32.7644C3.80032 33.2439 3.41109 33.6397 2.93028 33.6397ZM6.04148 33.395C5.54955 33.395 5.16424 33.0006 5.16424 32.5204C5.16424 32.0403 5.54889 31.6478 6.04148 31.6478C6.52229 31.6478 6.91151 32.0403 6.91151 32.5204C6.91151 33.0006 6.52229 33.395 6.04148 33.395ZM10.8921 32.3889C10.2791 32.3889 9.80029 31.8983 9.80029 31.3004C9.80029 30.7031 10.2791 30.2158 10.8921 30.2158C11.4906 30.2158 11.9747 30.7031 11.9747 31.3004C11.9747 31.8983 11.4906 32.3889 10.8921 32.3889ZM13.3923 31.3207C13.0031 31.3207 12.6989 31.0086 12.6989 30.6299C12.6989 30.2498 13.0031 29.941 13.3923 29.941C13.7724 29.941 14.0798 30.2498 14.0798 30.6299C14.0792 31.0093 13.7724 31.3207 13.3923 31.3207ZM18.5288 25.0885C18.6648 25.0885 18.7748 25.2082 18.7748 25.3527C18.7748 25.4993 18.6648 25.619 18.5288 25.619C18.3914 25.619 18.2828 25.4993 18.2828 25.3527C18.2828 25.2082 18.3914 25.0885 18.5288 25.0885ZM17.9799 27.138C18.0735 27.138 18.1494 27.2197 18.1494 27.3192C18.1494 27.4199 18.0735 27.5023 17.9799 27.5023C17.8851 27.5023 17.8112 27.4206 17.8112 27.3192C17.8112 27.2204 17.8851 27.138 17.9799 27.138ZM17.8458 30.4362C17.3369 30.4362 16.9385 30.0287 16.9385 29.5328C16.9385 29.0344 17.3362 28.6308 17.8458 28.6308C18.3437 28.6308 18.746 29.0344 18.746 29.5328C18.746 30.0287 18.3437 30.4362 17.8458 30.4362ZM18.6662 32.6748C18.572 32.6748 18.4974 32.5917 18.4974 32.4923C18.4974 32.3922 18.572 32.3111 18.6662 32.3111C18.7591 32.3111 18.8349 32.3922 18.8349 32.4923C18.8349 32.5917 18.7591 32.6748 18.6662 32.6748ZM43.8658 12.7987C44.346 12.7987 44.7352 13.1886 44.7352 13.6694C44.7352 14.1489 44.346 14.5421 43.8658 14.5421C43.3739 14.5421 42.9892 14.1489 42.9892 13.6694C42.9892 13.1879 43.3739 12.7987 43.8658 12.7987ZM41.5259 23.1109C41.5259 23.3275 41.3506 23.5047 41.1334 23.5047C40.9116 23.5047 40.7383 23.3275 40.7383 23.1109C40.7383 22.8944 40.9123 22.7184 41.1334 22.7184C41.3506 22.7184 41.5259 22.8944 41.5259 23.1109ZM41.2969 28.2814C41.2969 28.498 41.1216 28.6752 40.9038 28.6752C40.6827 28.6752 40.5086 28.498 40.5086 28.2814C40.5086 28.0649 40.6827 27.8889 40.9038 27.8889C41.1216 27.8889 41.2969 28.0649 41.2969 28.2814ZM41.206 26.8534C41.206 26.7082 41.3146 26.5891 41.4519 26.5891C41.5874 26.5891 41.6979 26.7088 41.6979 26.8534C41.6979 26.9999 41.5874 27.1196 41.4519 27.1196C41.3146 27.1196 41.206 27.0006 41.206 26.8534ZM40.0056 20.5486C40.0056 20.3321 40.1796 20.1561 40.4007 20.1561C40.6179 20.1561 40.7932 20.3321 40.7932 20.5486C40.7932 20.7651 40.6179 20.9424 40.4007 20.9424C40.1796 20.9424 40.0056 20.7651 40.0056 20.5486ZM40.1992 24.2093C40.1992 24.4258 40.0239 24.6031 39.8067 24.6031C39.585 24.6031 39.4116 24.4258 39.4116 24.2093C39.4116 23.9927 39.5856 23.8168 39.8067 23.8168C40.0246 23.8168 40.1992 23.9927 40.1992 24.2093ZM40.1083 18.9014C40.1083 18.7562 40.2169 18.6371 40.3543 18.6371C40.4897 18.6371 40.6002 18.7568 40.6002 18.9014C40.6002 19.0479 40.4897 19.1676 40.3543 19.1676C40.2169 19.1676 40.1083 19.0479 40.1083 18.9014ZM40.419 16.0008C40.9168 16.0008 41.3192 16.4051 41.3192 16.9029C41.3192 17.3988 40.9168 17.8063 40.419 17.8063C39.9101 17.8063 39.511 17.3988 39.511 16.9029C39.511 16.4051 39.9101 16.0008 40.419 16.0008ZM39.7151 21.9635C39.933 21.9635 40.1083 22.1395 40.1083 22.356C40.1083 22.5732 39.933 22.7505 39.7151 22.7505C39.4934 22.7505 39.32 22.5732 39.32 22.356C39.32 22.1395 39.4934 21.9635 39.7151 21.9635ZM38.4055 17.771C38.9033 17.771 39.3056 18.1746 39.3056 18.6731C39.3056 19.1696 38.9033 19.5765 38.4055 19.5765C37.8966 19.5765 37.4982 19.169 37.4982 18.6731C37.4982 18.1746 37.8966 17.771 38.4055 17.771ZM37.8841 25.2128C37.6192 25.2128 37.4125 25.0015 37.4125 24.7431C37.4125 24.484 37.6186 24.274 37.8841 24.274C38.1432 24.274 38.3519 24.4834 38.3519 24.7431C38.3519 25.0015 38.1432 25.2128 37.8841 25.2128ZM38.3375 26.3366C38.3375 26.6702 38.0673 26.9437 37.7324 26.9437C37.3909 26.9437 37.1234 26.6702 37.1234 26.3366C37.1234 26.0017 37.3903 25.7309 37.7324 25.7309C38.0673 25.7315 38.3375 26.0023 38.3375 26.3366ZM38.3349 23.4361C38.049 23.4361 37.8246 23.2071 37.8246 22.9278C37.8246 22.6484 38.0496 22.4208 38.3349 22.4208C38.6155 22.4208 38.8412 22.6484 38.8412 22.9278C38.8412 23.2071 38.6148 23.4361 38.3349 23.4361ZM38.7771 21.5377C38.5553 21.5377 38.382 21.3604 38.382 21.1432C38.382 20.9267 38.556 20.7507 38.7771 20.7507C38.9943 20.7507 39.1702 20.9267 39.1702 21.1432C39.1702 21.3604 38.9943 21.5377 38.7771 21.5377ZM37.334 20.3661C37.4694 20.3661 37.58 20.4858 37.58 20.631C37.58 20.7775 37.4694 20.8966 37.334 20.8966C37.1966 20.8966 37.088 20.7775 37.088 20.631C37.088 20.4858 37.1966 20.3661 37.334 20.3661ZM35.8242 16.5229C35.9184 16.5229 35.9936 16.6046 35.9936 16.7041C35.9936 16.8048 35.9184 16.8872 35.8242 16.8872C35.7293 16.8872 35.6554 16.8055 35.6554 16.7041C35.6554 16.6053 35.7293 16.5229 35.8242 16.5229ZM36.0551 18.433C36.3142 18.433 36.5228 18.643 36.5228 18.9021C36.5228 19.1604 36.3142 19.3717 36.0551 19.3717C35.7895 19.3717 35.5828 19.1604 35.5828 18.9021C35.5835 18.643 35.7895 18.433 36.0551 18.433ZM34.3595 17.493C34.4956 17.493 34.6055 17.6127 34.6055 17.7573C34.6055 17.9038 34.4956 18.0235 34.3595 18.0235C34.2221 18.0235 34.1136 17.9038 34.1136 17.7573C34.1136 17.6127 34.2221 17.493 34.3595 17.493ZM34.4982 18.7608C34.716 18.7608 34.8914 18.9367 34.8914 19.1533C34.8914 19.3698 34.716 19.5477 34.4982 19.5477C34.2764 19.5477 34.1031 19.3704 34.1031 19.1533C34.1031 18.9361 34.2764 18.7608 34.4982 18.7608ZM35.3879 20.2104C36.2389 20.2104 36.9271 20.9012 36.9271 21.7522C36.9271 22.6007 36.2389 23.2974 35.3879 23.2974C34.5172 23.2974 33.8368 22.6013 33.8368 21.7522C33.8368 20.9012 34.5172 20.2104 35.3879 20.2104ZM34.7435 25.689C34.7435 25.2716 35.0804 24.9302 35.5063 24.9302C35.9262 24.9302 36.2631 25.271 36.2631 25.689C36.2631 26.107 35.9256 26.4491 35.5063 26.4491C35.0804 26.4491 34.7435 26.1063 34.7435 25.689ZM35.3787 27.87C35.3787 28.1284 35.17 28.3397 34.911 28.3397C34.646 28.3397 34.4387 28.1284 34.4387 27.87C34.4387 27.6109 34.6454 27.4009 34.911 27.4009C35.17 27.4009 35.3787 27.6109 35.3787 27.87ZM36.1238 24.5573C35.902 24.5573 35.7287 24.38 35.7287 24.1635C35.7287 23.9463 35.9027 23.771 36.1238 23.771C36.341 23.771 36.5163 23.947 36.5163 24.1635C36.5156 24.38 36.341 24.5573 36.1238 24.5573ZM33.793 23.6146C33.793 23.8312 33.6177 24.0084 33.3999 24.0084C33.1781 24.0084 33.0047 23.8312 33.0047 23.6146C33.0047 23.3975 33.1781 23.2221 33.3999 23.2221C33.6184 23.2221 33.793 23.3975 33.793 23.6146ZM33.1552 25.1016C33.4463 25.1016 33.6818 25.3377 33.6818 25.6288C33.6818 25.9199 33.447 26.1554 33.1552 26.1554C32.8654 26.1554 32.6286 25.9193 32.6286 25.6288C32.6286 25.3384 32.8648 25.1016 33.1552 25.1016ZM32.7581 21.8307C32.7581 21.6953 32.8674 21.5861 33.0041 21.5861C33.1402 21.5861 33.2494 21.6953 33.2494 21.8307C33.2494 21.9661 33.1402 22.0767 33.0041 22.0767C32.8674 22.0767 32.7581 21.9655 32.7581 21.8307ZM32.6685 26.5891C33.2494 26.5891 33.7184 27.0614 33.7184 27.6423C33.7184 28.2232 33.2488 28.6949 32.6685 28.6949C32.0883 28.6949 31.6166 28.2226 31.6166 27.6423C31.616 27.0608 32.0876 26.5891 32.6685 26.5891ZM32.8968 18.3722C33.1146 18.3722 33.29 18.5481 33.29 18.7647C33.29 18.9812 33.1146 19.1585 32.8968 19.1585C32.6757 19.1585 32.5017 18.9812 32.5017 18.7647C32.5024 18.5475 32.6757 18.3722 32.8968 18.3722ZM32.7143 20.0194C32.9315 20.0194 33.1068 20.1953 33.1068 20.4119C33.1068 20.6284 32.9315 20.8057 32.7143 20.8057C32.4925 20.8057 32.3192 20.6284 32.3192 20.4119C32.3185 20.1947 32.4925 20.0194 32.7143 20.0194ZM31.508 25.3776C31.0913 25.3776 30.7525 25.0387 30.7525 24.622C30.7525 24.2053 31.092 23.8665 31.508 23.8665C31.9267 23.8665 32.2629 24.2047 32.2629 24.622C32.2629 25.0394 31.9267 25.3776 31.508 25.3776ZM28.8161 26.3602C28.8161 25.7708 29.2943 25.2926 29.8837 25.2926C30.4738 25.2926 30.9507 25.7708 30.9507 26.3602C30.9507 26.9496 30.4738 27.4278 29.8837 27.4278C29.2943 27.4278 28.8161 26.9496 28.8161 26.3602ZM29.6181 28.1441C29.6181 28.2906 29.5089 28.4103 29.3728 28.4103C29.2355 28.4103 29.1269 28.2906 29.1269 28.1441C29.1269 27.9988 29.2355 27.8798 29.3728 27.8798C29.5089 27.8798 29.6181 27.9988 29.6181 28.1441ZM30.2252 23.2941C30.2252 23.1587 30.3338 23.0488 30.4718 23.0488C30.6079 23.0488 30.7171 23.1587 30.7171 23.2941C30.7171 23.4295 30.6079 23.5401 30.4718 23.5401C30.3338 23.5401 30.2252 23.4295 30.2252 23.2941ZM30.7302 28.3501C31.1489 28.3501 31.4851 28.6883 31.4851 29.1057C31.4851 29.523 31.1482 29.8612 30.7302 29.8612C30.3135 29.8612 29.9747 29.523 29.9747 29.1057C29.9747 28.6883 30.3135 28.3501 30.7302 28.3501ZM30.7557 22.0584C30.7557 21.6783 31.0619 21.3696 31.4498 21.3696C31.8312 21.3696 32.1386 21.679 32.1386 22.0584C32.1386 22.4391 31.8312 22.7498 31.4498 22.7498C31.0612 22.7498 30.7557 22.4385 30.7557 22.0584ZM31.7991 16.496C32.0163 16.496 32.1916 16.672 32.1916 16.8885C32.1916 17.1051 32.0163 17.2823 31.7991 17.2823C31.5774 17.2823 31.404 17.1051 31.404 16.8885C31.404 16.6714 31.578 16.496 31.7991 16.496ZM30.8153 18.2119C31.0324 18.2119 31.2078 18.3879 31.2078 18.6044C31.2078 18.8216 31.0324 18.9989 30.8153 18.9989C30.5935 18.9989 30.4202 18.8216 30.4202 18.6044C30.4202 18.3872 30.5942 18.2119 30.8153 18.2119ZM30.1062 20.1561C30.324 20.1561 30.4987 20.3321 30.4987 20.5486C30.4987 20.7651 30.3233 20.9424 30.1062 20.9424C29.8844 20.9424 29.711 20.7651 29.711 20.5486C29.711 20.3321 29.8844 20.1561 30.1062 20.1561ZM29.191 23.8253C28.9692 23.8253 28.7959 23.648 28.7959 23.4315C28.7959 23.2149 28.9699 23.039 29.191 23.039C29.4088 23.039 29.5835 23.2149 29.5835 23.4315C29.5835 23.648 29.4088 23.8253 29.191 23.8253ZM29.327 16.761C29.4631 16.761 29.573 16.8807 29.573 17.0253C29.573 17.1718 29.4631 17.2915 29.327 17.2915C29.1903 17.2915 29.0817 17.1718 29.0817 17.0253C29.0811 16.8807 29.1897 16.761 29.327 16.761ZM28.6421 18.0974C28.86 18.0974 29.0346 18.2734 29.0346 18.4899C29.0346 18.7065 28.8593 18.8837 28.6421 18.8837C28.4204 18.8837 28.247 18.7065 28.247 18.4899C28.247 18.2734 28.4204 18.0974 28.6421 18.0974ZM27.3135 15.5717C27.4496 15.5717 27.5595 15.6914 27.5595 15.836C27.5595 15.9825 27.4496 16.1022 27.3135 16.1022C27.1762 16.1022 27.0676 15.9825 27.0676 15.836C27.0676 15.6908 27.1762 15.5717 27.3135 15.5717ZM27.5739 18.9923C27.5739 19.0931 27.498 19.1755 27.4051 19.1755C27.3109 19.1755 27.2363 19.0931 27.2363 18.9923C27.2363 18.8929 27.3109 18.8105 27.4051 18.8105C27.498 18.8105 27.5739 18.8929 27.5739 18.9923ZM27.4267 19.7525C28.2778 19.7525 28.9653 20.4433 28.9653 21.2943C28.9653 22.1428 28.2778 22.8388 27.4267 22.8388C26.556 22.8388 25.875 22.1428 25.875 21.2943C25.875 20.4433 26.556 19.7525 27.4267 19.7525ZM28.7946 24.7293C28.7946 24.8647 28.6853 24.9753 28.5492 24.9753C28.4119 24.9753 28.3033 24.8647 28.3033 24.7293C28.3033 24.5939 28.4119 24.4847 28.5492 24.4847C28.6853 24.4847 28.7946 24.5939 28.7946 24.7293ZM27.0872 25.7623C26.6862 25.7623 26.3689 25.4411 26.3689 25.0479C26.3689 24.6548 26.6855 24.3355 27.0872 24.3355C27.4817 24.3355 27.7983 24.6548 27.7983 25.0479C27.7989 25.4411 27.4817 25.7623 27.0872 25.7623ZM27.5131 30.9975C27.5131 31.1336 27.4038 31.2435 27.2677 31.2435C27.131 31.2435 27.0218 31.1336 27.0218 30.9975C27.0218 30.8628 27.131 30.7529 27.2677 30.7529C27.4038 30.7529 27.5131 30.8628 27.5131 30.9975ZM26.2446 23.6604C26.2446 23.525 26.3532 23.4151 26.4906 23.4151C26.6267 23.4151 26.7359 23.525 26.7359 23.6604C26.7359 23.7958 26.6267 23.9064 26.4906 23.9064C26.3526 23.9064 26.2446 23.7952 26.2446 23.6604ZM27.9101 26.928C28.128 26.928 28.3026 27.1039 28.3026 27.3205C28.3026 27.537 28.1273 27.7143 27.9101 27.7143C27.6884 27.7143 27.515 27.537 27.515 27.3205C27.515 27.1039 27.6884 26.928 27.9101 26.928ZM26.6469 18.0628C26.6469 18.5586 26.244 18.9662 25.7468 18.9662C25.2379 18.9662 24.8395 18.5586 24.8395 18.0628C24.8395 17.5643 25.2379 17.1607 25.7468 17.1607C26.2446 17.1607 26.6469 17.5649 26.6469 18.0628ZM25.7861 23.0651C25.7861 23.2817 25.6107 23.4589 25.3936 23.4589C25.1718 23.4589 24.9985 23.2817 24.9985 23.0651C24.9985 22.8486 25.1725 22.6726 25.3936 22.6726C25.6107 22.6726 25.7861 22.8486 25.7861 23.0651ZM23.6548 22.3986C23.872 22.3986 24.0473 22.5745 24.0473 22.791C24.0473 23.0076 23.872 23.1855 23.6548 23.1855C23.433 23.1855 23.2597 23.0082 23.2597 22.791C23.2597 22.5739 23.433 22.3986 23.6548 22.3986ZM23.2414 18.9936C23.2414 18.8484 23.35 18.7294 23.4873 18.7294C23.6234 18.7294 23.7326 18.8484 23.7326 18.9936C23.7326 19.1408 23.6234 19.2599 23.4873 19.2599C23.35 19.2599 23.2414 19.1408 23.2414 18.9936ZM23.8543 21.2354C23.8543 21.0189 24.0283 20.843 24.2494 20.843C24.4666 20.843 24.6419 21.0189 24.6419 21.2354C24.6419 21.452 24.4666 21.6293 24.2494 21.6293C24.0277 21.6293 23.8543 21.452 23.8543 21.2354ZM24.57 24.4801C24.7878 24.4801 24.9625 24.6561 24.9625 24.8726C24.9625 25.0891 24.7872 25.2664 24.57 25.2664C24.3489 25.2664 24.1749 25.0891 24.1749 24.8726C24.1749 24.6561 24.3482 24.4801 24.57 24.4801ZM24.4961 14.8122C24.9939 14.8122 25.3962 15.2158 25.3962 15.7143C25.3962 16.2108 24.9939 16.6177 24.4961 16.6177C23.9871 16.6177 23.5887 16.2102 23.5887 15.7143C23.5887 15.2158 23.9871 14.8122 24.4961 14.8122ZM22.7566 12.0667C23.1871 12.0667 23.5351 12.416 23.5351 12.8465C23.5351 13.2756 23.1871 13.6275 22.7566 13.6275C22.3164 13.6275 21.9723 13.2749 21.9723 12.8465C21.9723 12.4167 22.3164 12.0667 22.7566 12.0667ZM22.7396 25.2893C22.5179 25.2893 22.3445 25.112 22.3445 24.8955C22.3445 24.6783 22.5185 24.503 22.7396 24.503C22.9568 24.503 23.1321 24.679 23.1321 24.8955C23.1321 25.112 22.9568 25.2893 22.7396 25.2893ZM22.9378 29.0141C22.9378 29.1495 22.8286 29.2601 22.6925 29.2601C22.5552 29.2601 22.4466 29.1495 22.4466 29.0141C22.4466 28.8787 22.5552 28.7688 22.6925 28.7688C22.8286 28.7688 22.9378 28.8787 22.9378 29.0141ZM21.5039 24.1013C21.64 24.1013 21.7486 24.2112 21.7486 24.3466C21.7486 24.4821 21.6393 24.5926 21.5039 24.5926C21.3659 24.5926 21.258 24.4821 21.258 24.3466C21.258 24.2112 21.3659 24.1013 21.5039 24.1013ZM21.1971 18.5815C21.1971 18.4821 21.271 18.3997 21.3659 18.3997C21.4594 18.3997 21.5353 18.4821 21.5353 18.5815C21.5353 18.6823 21.4594 18.7647 21.3659 18.7647C21.271 18.7647 21.1971 18.6823 21.1971 18.5815ZM21.5203 22.8826C21.5203 22.6661 21.6943 22.4901 21.9154 22.4901C22.1332 22.4901 22.3079 22.6661 22.3079 22.8826C22.3079 23.0992 22.1326 23.2764 21.9154 23.2764C21.6943 23.2764 21.5203 23.0992 21.5203 22.8826ZM22.0698 20.7775C22.0698 20.5604 22.2438 20.385 22.4649 20.385C22.6827 20.385 22.8574 20.561 22.8574 20.7775C22.8574 20.9941 22.6821 21.1713 22.4649 21.1713C22.2431 21.1713 22.0698 20.9941 22.0698 20.7775ZM21.2632 8.77366C21.8101 8.77366 22.2536 9.21783 22.2536 9.76667C22.2536 10.3129 21.8101 10.7617 21.2632 10.7617C20.7026 10.7617 20.2643 10.3129 20.2643 9.76667C20.2643 9.21783 20.7026 8.77366 21.2632 8.77366ZM20.3146 24.9236C20.0929 24.9236 19.9195 24.7463 19.9195 24.5298C19.9195 24.3126 20.0935 24.1373 20.3146 24.1373C20.5318 24.1373 20.7071 24.3133 20.7071 24.5298C20.7071 24.7463 20.5318 24.9236 20.3146 24.9236ZM20.3755 26.5427C20.3755 26.6781 20.2662 26.7886 20.1302 26.7886C19.9921 26.7886 19.8842 26.6781 19.8842 26.5427C19.8842 26.4073 19.9928 26.298 20.1302 26.298C20.2669 26.298 20.3755 26.4073 20.3755 26.5427ZM20.0216 21.2806C20.0216 21.1452 20.1302 21.0359 20.2675 21.0359C20.4036 21.0359 20.5129 21.1452 20.5129 21.2806C20.5129 21.416 20.4036 21.5266 20.2675 21.5266C20.1302 21.5266 20.0216 21.416 20.0216 21.2806ZM17.2349 4.20302C16.9837 4.20302 16.7867 4.0022 16.7867 3.75688C16.7867 3.51157 16.9837 3.31271 17.2349 3.31271C17.4802 3.31271 17.6784 3.51223 17.6784 3.75688C17.6784 4.00154 17.4795 4.20302 17.2349 4.20302ZM18.5157 5.69778C18.2645 5.69778 18.0676 5.49696 18.0676 5.25165C18.0676 5.00633 18.2645 4.80747 18.5157 4.80747C18.761 4.80747 18.9592 5.00699 18.9592 5.25165C18.9592 5.4963 18.761 5.69778 18.5157 5.69778ZM19.2274 7.05125C19.2274 6.73856 19.478 6.48474 19.7979 6.48474C20.1099 6.48474 20.3631 6.73856 20.3631 7.05125C20.3631 7.36328 20.1099 7.61906 19.7979 7.61906C19.4773 7.61906 19.2274 7.36328 19.2274 7.05125ZM20.0844 31.8329C19.947 31.8329 19.8384 31.7125 19.8384 31.5673C19.8384 31.4208 19.947 31.303 20.0844 31.303C20.2204 31.303 20.3303 31.4214 20.3303 31.5673C20.3303 31.7125 20.2204 31.8329 20.0844 31.8329ZM20.7143 29.6735C20.2054 29.6735 19.807 29.2659 19.807 28.7694C19.807 28.271 20.2054 27.8673 20.7143 27.8673C21.2115 27.8673 21.6145 28.271 21.6145 28.7694C21.6145 29.2659 21.2115 29.6735 20.7143 29.6735ZM21.6858 34.8695C21.5909 34.8695 21.517 34.7864 21.517 34.6863C21.517 34.5869 21.5916 34.5051 21.6858 34.5051C21.7793 34.5051 21.8552 34.5869 21.8552 34.6863C21.8552 34.7864 21.7793 34.8695 21.6858 34.8695ZM21.8245 26.9823C21.6027 26.9823 21.4293 26.805 21.4293 26.5885C21.4293 26.3713 21.6033 26.196 21.8245 26.196C22.0416 26.196 22.217 26.3719 22.217 26.5885C22.217 26.805 22.0416 26.9823 21.8245 26.9823ZM22.6023 32.9306C22.3805 32.9306 22.2071 32.7533 22.2071 32.5355C22.2071 32.3196 22.3811 32.1436 22.6023 32.1436C22.8194 32.1436 22.9948 32.3196 22.9948 32.5355C22.9948 32.7533 22.8194 32.9306 22.6023 32.9306ZM22.9503 26.2679C22.9503 26.1325 23.0589 26.0226 23.1962 26.0226C23.3323 26.0226 23.4409 26.1325 23.4409 26.2679C23.4409 26.4033 23.3316 26.5139 23.1962 26.5139C23.0589 26.5139 22.9503 26.4033 22.9503 26.2679ZM23.5619 37.021C23.4245 37.021 23.3159 36.9007 23.3159 36.7555C23.3159 36.6102 23.4245 36.4912 23.5619 36.4912C23.698 36.4912 23.8072 36.6102 23.8072 36.7555C23.8072 36.9007 23.698 37.021 23.5619 37.021ZM23.5174 31.3292C23.2957 31.3292 23.1223 31.1519 23.1223 30.9341C23.1223 30.7182 23.2963 30.5422 23.5174 30.5422C23.7346 30.5422 23.9099 30.7182 23.9099 30.9341C23.9099 31.1526 23.7346 31.3292 23.5174 31.3292ZM23.7405 27.6704C23.7405 26.8187 24.4215 26.1286 25.2922 26.1286C26.1439 26.1286 26.8308 26.8187 26.8308 27.6704C26.8308 28.5189 26.1439 29.2149 25.2922 29.2149C24.4208 29.2149 23.7405 28.5189 23.7405 27.6704ZM25.1339 31.895C25.1339 32.0311 25.0246 32.141 24.8886 32.141C24.7512 32.141 24.6426 32.0311 24.6426 31.895C24.6426 31.7609 24.7512 31.651 24.8886 31.651C25.0246 31.651 25.1339 31.7609 25.1339 31.895ZM24.6603 29.7553C24.7963 29.7553 24.9056 29.875 24.9056 30.0195C24.9056 30.1661 24.7963 30.2858 24.6603 30.2858C24.5229 30.2858 24.4143 30.1661 24.4143 30.0195C24.4143 29.875 24.5229 29.7553 24.6603 29.7553ZM24.449 33.0856C24.449 32.8697 24.623 32.6931 24.8441 32.6931C25.0613 32.6931 25.2366 32.8697 25.2366 33.0856C25.2366 33.3028 25.0613 33.4801 24.8441 33.4801C24.623 33.4794 24.449 33.3028 24.449 33.0856ZM25.2091 35.9966C25.0724 35.9966 24.9631 35.8763 24.9631 35.7304C24.9631 35.5845 25.0724 35.4661 25.2091 35.4661C25.3452 35.4661 25.4544 35.5852 25.4544 35.7304C25.4544 35.8763 25.3452 35.9966 25.2091 35.9966ZM25.4557 30.7516C25.4557 30.535 25.6291 30.3591 25.8508 30.3591C26.0687 30.3591 26.2433 30.535 26.2433 30.7516C26.2433 30.9687 26.068 31.1467 25.8508 31.1467C25.6291 31.1467 25.4557 30.9687 25.4557 30.7516ZM26.2616 33.9092C26.1674 33.9092 26.0929 33.8274 26.0929 33.726C26.0929 33.6279 26.1674 33.5448 26.2616 33.5448C26.3552 33.5448 26.4304 33.6279 26.4304 33.726C26.4304 33.8274 26.3545 33.9092 26.2616 33.9092ZM26.6103 29.6905C26.6103 29.5453 26.7189 29.4262 26.8563 29.4262C26.9923 29.4262 27.1016 29.5459 27.1016 29.6905C27.1016 29.837 26.9923 29.9567 26.8563 29.9567C26.7189 29.9567 26.6103 29.837 26.6103 29.6905ZM27.1775 32.0069C27.3953 32.0069 27.57 32.1829 27.57 32.3987C27.57 32.6166 27.3946 32.7938 27.1775 32.7938C26.9564 32.7938 26.7824 32.6166 26.7824 32.3987C26.7824 32.1829 26.9564 32.0069 27.1775 32.0069ZM27.6158 34.7786C27.6158 34.9958 27.4404 35.173 27.2233 35.173C27.0015 35.173 26.8281 34.9958 26.8281 34.7786C26.8281 34.5627 27.0022 34.3861 27.2233 34.3861C27.4411 34.3861 27.6158 34.5627 27.6158 34.7786ZM27.0394 39.0247C26.9021 39.0247 26.7935 38.9057 26.7935 38.7592C26.7935 38.6146 26.9021 38.4949 27.0394 38.4949C27.1755 38.4949 27.2854 38.6152 27.2854 38.7592C27.2848 38.9057 27.1749 39.0247 27.0394 39.0247ZM27.4738 37.3632C27.3796 37.3632 27.305 37.2821 27.305 37.1807C27.305 37.0819 27.3796 36.9995 27.4738 36.9995C27.5674 36.9995 27.6426 37.0819 27.6426 37.1807C27.6426 37.2821 27.5674 37.3632 27.4738 37.3632ZM27.6589 29.6846C27.6589 29.279 27.986 28.9493 28.3988 28.9493C28.8057 28.9493 29.1328 29.279 29.1328 29.6846C29.1328 30.0902 28.8057 30.4212 28.3988 30.4212C27.986 30.4212 27.6589 30.0902 27.6589 29.6846ZM29.0072 35.1357C28.8698 35.1357 28.7612 35.0167 28.7612 34.8702C28.7612 34.7256 28.8698 34.6059 29.0072 34.6059C29.1432 34.6059 29.2525 34.7262 29.2525 34.8702C29.2525 35.0167 29.1426 35.1357 29.0072 35.1357ZM30.0473 39.0915C30.5451 39.0915 30.9474 39.4964 30.9474 39.9942C30.9474 40.4901 30.5451 40.8976 30.0473 40.8976C29.5383 40.8976 29.14 40.4901 29.14 39.9942C29.14 39.497 29.5383 39.0915 30.0473 39.0915ZM28.9476 52.581C28.6624 52.581 28.44 52.3513 28.44 52.0733C28.44 51.7953 28.6624 51.569 28.9476 51.569C29.2263 51.569 29.452 51.7953 29.452 52.0733C29.452 52.3513 29.2263 52.581 28.9476 52.581ZM29.3748 48.7672C28.9522 48.7672 28.6219 48.4296 28.6219 48.0169C28.6219 47.6041 28.9522 47.2672 29.3748 47.2672C29.7882 47.2672 30.1225 47.6034 30.1225 48.0169C30.1225 48.4303 29.7882 48.7672 29.3748 48.7672ZM29.6809 45.5029C29.1897 45.5029 28.8057 45.1098 28.8057 44.6309C28.8057 44.1495 29.1897 43.7589 29.6809 43.7589C30.1618 43.7589 30.5503 44.1495 30.5503 44.6309C30.5503 45.1104 30.1618 45.5029 29.6809 45.5029ZM30.3822 42.881C30.0106 42.881 29.7195 42.5834 29.7195 42.2216C29.7195 41.8579 30.01 41.5622 30.3822 41.5622C30.7453 41.5622 31.0383 41.8579 31.0383 42.2216C31.0383 42.5834 30.7453 42.881 30.3822 42.881ZM30.1696 37.6955C29.6607 37.6955 29.2623 37.2879 29.2623 36.7914C29.2623 36.2936 29.6607 35.8893 30.1696 35.8893C30.6668 35.8893 31.0697 36.2936 31.0697 36.7914C31.0697 37.2879 30.6668 37.6955 30.1696 37.6955ZM31.4773 35.1815C31.3399 35.1815 31.2313 35.0625 31.2313 34.9159C31.2313 34.7714 31.3399 34.6517 31.4773 34.6517C31.6133 34.6517 31.7232 34.772 31.7232 34.9159C31.7232 35.0625 31.6133 35.1815 31.4773 35.1815ZM30.5078 34.1872C29.6365 34.1872 28.9561 33.4912 28.9561 32.6421C28.9561 31.791 29.6371 31.1009 30.5078 31.1009C31.3582 31.1009 32.0464 31.7917 32.0464 32.6421C32.0464 33.4912 31.3589 34.1872 30.5078 34.1872ZM32.6214 38.5773C32.5266 38.5773 32.452 38.4942 32.452 38.3941C32.452 38.294 32.5266 38.2129 32.6214 38.2129C32.7143 38.2129 32.7902 38.294 32.7902 38.3941C32.7902 38.4942 32.7143 38.5773 32.6214 38.5773ZM32.4559 34.8237C32.4559 34.6078 32.6299 34.4319 32.851 34.4319C33.0682 34.4319 33.2435 34.6078 33.2435 34.8237C33.2435 35.0415 33.0682 35.2188 32.851 35.2188C32.6299 35.2182 32.4559 35.0415 32.4559 34.8237ZM33.1101 36.747C33.0152 36.747 32.9413 36.6639 32.9413 36.5638C32.9413 36.4644 33.0152 36.3826 33.1101 36.3826C33.2043 36.3826 33.2795 36.4644 33.2795 36.5638C33.2795 36.6639 33.2043 36.747 33.1101 36.747ZM33.3089 32.8848C33.0872 32.8848 32.9138 32.7075 32.9138 32.4903C32.9138 32.2744 33.0878 32.0978 33.3089 32.0978C33.5261 32.0978 33.7021 32.2744 33.7021 32.4903C33.7021 32.7082 33.5261 32.8848 33.3089 32.8848ZM33.4025 31.0093C33.0021 31.0093 32.6849 30.6874 32.6849 30.2943C32.6849 29.9011 33.0015 29.5819 33.4025 29.5819C33.7963 29.5819 34.1136 29.9018 34.1136 30.2943C34.1136 30.6868 33.7956 31.0093 33.4025 31.0093ZM34.16 24.4382C34.16 24.293 34.2686 24.1739 34.406 24.1739C34.5414 24.1739 34.6519 24.2937 34.6519 24.4382C34.6519 24.5848 34.5414 24.7045 34.406 24.7045C34.2686 24.7038 34.16 24.5848 34.16 24.4382ZM34.8194 35.8135C34.5976 35.8135 34.4243 35.6362 34.4243 35.4183C34.4243 35.2025 34.5983 35.0265 34.8194 35.0265C35.0366 35.0265 35.2119 35.2025 35.2119 35.4183C35.2112 35.6362 35.0366 35.8135 34.8194 35.8135ZM34.8645 33.8457C34.6428 33.8457 34.4694 33.6685 34.4694 33.4513C34.4694 33.2354 34.6434 33.0588 34.8645 33.0588C35.0817 33.0588 35.2577 33.2354 35.2577 33.4513C35.2577 33.6685 35.0817 33.8457 34.8645 33.8457ZM35.4579 32.0802C35.2361 32.0802 35.0627 31.9029 35.0627 31.685C35.0627 31.4698 35.2368 31.2932 35.4579 31.2932C35.675 31.2932 35.851 31.4698 35.851 31.685C35.851 31.9029 35.675 32.0802 35.4579 32.0802ZM36.4018 34.32C36.4018 34.1754 36.5104 34.0557 36.6478 34.0557C36.7838 34.0557 36.8937 34.1761 36.8937 34.32C36.8937 34.4678 36.7838 34.5863 36.6478 34.5863C36.5104 34.5869 36.4018 34.4678 36.4018 34.32ZM36.9219 37.0119C36.7845 37.0119 36.6759 36.8928 36.6759 36.7456C36.6759 36.6011 36.7845 36.4814 36.9219 36.4814C37.0579 36.4814 37.1678 36.6017 37.1678 36.7456C37.1678 36.8928 37.0579 37.0119 36.9219 37.0119ZM37.3353 32.7023C37.1135 32.7023 36.9402 32.525 36.9402 32.3071C36.9402 32.0913 37.1142 31.9153 37.3353 31.9153C37.5525 31.9153 37.7278 32.0913 37.7278 32.3071C37.7278 32.5243 37.5525 32.7023 37.3353 32.7023ZM37.1881 30.6789C36.3174 30.6789 35.6371 29.9829 35.6371 29.1345C35.6371 28.2827 36.3174 27.5926 37.1881 27.5926C38.0398 27.5926 38.7274 28.2827 38.7274 29.1345C38.7267 29.9829 38.0392 30.6789 37.1881 30.6789ZM38.7987 31.8872C38.6613 31.8872 38.5527 31.7681 38.5527 31.6216C38.5527 31.477 38.6613 31.3573 38.7987 31.3573C38.9341 31.3573 39.0446 31.4777 39.0446 31.6216C39.0446 31.7681 38.9341 31.8872 38.7987 31.8872ZM39.3469 34.1833C39.252 34.1833 39.1781 34.1015 39.1781 34.0001C39.1781 33.902 39.252 33.8189 39.3469 33.8189C39.4404 33.8189 39.5156 33.902 39.5156 34.0001C39.5156 34.1015 39.4404 34.1833 39.3469 34.1833ZM39.1663 27.9203C38.9445 27.9203 38.7712 27.7431 38.7712 27.5265C38.7712 27.31 38.9452 27.134 39.1663 27.134C39.3835 27.134 39.5588 27.31 39.5588 27.5265C39.5588 27.7431 39.3835 27.9203 39.1663 27.9203ZM39.7308 26.1763C39.7308 25.9598 39.9049 25.7838 40.126 25.7838C40.3431 25.7838 40.5185 25.9598 40.5185 26.1763C40.5185 26.3935 40.3431 26.5708 40.126 26.5708C39.9049 26.5708 39.7308 26.3935 39.7308 26.1763ZM40.9371 31.7773C40.4282 31.7773 40.0298 31.3697 40.0298 30.8732C40.0298 30.3748 40.4275 29.9718 40.9371 29.9718C41.4349 29.9718 41.8372 30.3754 41.8372 30.8732C41.8372 31.3697 41.4349 31.7773 40.9371 31.7773ZM41.5448 25.4267C41.3231 25.4267 41.1497 25.2494 41.1497 25.0322C41.1497 24.815 41.3237 24.6397 41.5448 24.6397C41.762 24.6397 41.938 24.8157 41.938 25.0322C41.938 25.2487 41.762 25.4267 41.5448 25.4267ZM41.9543 21.2806C41.8601 21.2806 41.7856 21.1988 41.7856 21.0974C41.7856 20.998 41.8601 20.9162 41.9543 20.9162C42.0485 20.9162 42.1244 20.998 42.1244 21.0974C42.1244 21.1988 42.0479 21.2806 41.9543 21.2806ZM41.6161 15.4697C41.6161 15.0889 41.9203 14.7808 42.3096 14.7808C42.689 14.7808 42.9964 15.0889 42.9964 15.4697C42.9964 15.8484 42.689 16.1598 42.3096 16.1598C41.9203 16.1591 41.6161 15.8484 41.6161 15.4697ZM42.8244 23.7618C42.9604 23.7618 43.0703 23.8815 43.0703 24.0261C43.0703 24.1726 42.9604 24.2917 42.8244 24.2917C42.6877 24.2917 42.5784 24.1726 42.5784 24.0261C42.5784 23.8809 42.6877 23.7618 42.8244 23.7618ZM42.6236 27.0928C42.6236 26.9934 42.6975 26.911 42.7923 26.911C42.8865 26.911 42.9618 26.9927 42.9618 27.0928C42.9618 27.1936 42.8865 27.276 42.7923 27.276C42.6981 27.2753 42.6236 27.1929 42.6236 27.0928ZM42.808 29.4256C42.808 29.2803 42.9166 29.1613 43.0533 29.1613C43.1894 29.1613 43.2993 29.2803 43.2993 29.4256C43.2993 29.5721 43.1894 29.6912 43.0533 29.6912C42.9166 29.6912 42.808 29.5721 42.808 29.4256ZM43.8959 32.7232C43.387 32.7232 42.9886 32.3157 42.9886 31.8198C42.9886 31.3207 43.3863 30.9177 43.8959 30.9177C44.3937 30.9177 44.796 31.3207 44.796 31.8198C44.796 32.3157 44.3931 32.7232 43.8959 32.7232ZM50.2701 7.186C50.5991 7.186 50.8653 7.45356 50.8653 7.78325C50.8653 8.11164 50.5991 8.38181 50.2701 8.38181C49.9312 8.38181 49.6689 8.11164 49.6689 7.78325C49.6689 7.45356 49.9312 7.186 50.2701 7.186ZM47.2504 9.74836C47.7142 9.74836 48.0897 10.1245 48.0897 10.589C48.0897 11.0521 47.7142 11.4322 47.2504 11.4322C46.7749 11.4322 46.404 11.0521 46.404 10.589C46.4046 10.1252 46.7755 9.74836 47.2504 9.74836ZM45.0322 12.2976C45.0322 12.0183 45.2553 11.7926 45.5411 11.7926C45.8198 11.7926 46.0455 12.019 46.0455 12.2976C46.0455 12.5763 45.8191 12.8046 45.5411 12.8046C45.2553 12.8046 45.0322 12.5763 45.0322 12.2976ZM46.3052 33.5154C45.8649 33.5154 45.5208 33.1641 45.5208 32.735C45.5208 32.3032 45.8649 31.9546 46.3052 31.9546C46.7356 31.9546 47.0836 32.3032 47.0836 32.735C47.0843 33.1641 46.7356 33.5154 46.3052 33.5154ZM48.6543 34.2494C48.248 34.2494 47.9308 33.9242 47.9308 33.5278C47.9308 33.1307 48.248 32.8089 48.6543 32.8089C49.05 32.8089 49.3712 33.1301 49.3712 33.5278C49.3712 33.9242 49.05 34.2494 48.6543 34.2494ZM50.9118 35.6813C50.4029 35.6813 50.0045 35.2738 50.0045 34.7779C50.0045 34.2788 50.4022 33.8752 50.9118 33.8752C51.4083 33.8752 51.8113 34.2788 51.8113 34.7779C51.8113 35.2738 51.4083 35.6813 50.9118 35.6813ZM54.2676 36.8398C53.7587 36.8398 53.3603 36.4343 53.3603 35.9377C53.3603 35.4386 53.7581 35.0357 54.2676 35.0357C54.7648 35.0357 55.1671 35.4386 55.1671 35.9377C55.1671 36.4343 54.7648 36.8398 54.2676 36.8398ZM56.4918 37.5117C56.1719 37.5117 55.9214 37.2559 55.9214 36.9445C55.9214 36.6299 56.1719 36.3767 56.4918 36.3767C56.8045 36.3767 57.0576 36.6299 57.0576 36.9445C57.0583 37.2565 56.8045 37.5117 56.4918 37.5117Z" fill="url(#paint0_linear_0_1)"/>
<path d="M89.76 21.08C89.3333 20.3067 88.5467 19.64 87.4 19.08C86.2533 18.4933 85.1467 18.2 84.08 18.2C83.2 18.2 82.48 18.44 81.92 18.92C81.3867 19.3733 81.12 20.08 81.12 21.04C81.12 21.8933 81.4267 22.6133 82.04 23.2C82.68 23.7867 83.4533 24.2267 84.36 24.52C85.2933 24.7867 86.3067 25.1333 87.4 25.56C88.4933 25.9867 89.4933 26.44 90.4 26.92C91.3333 27.4 92.1067 28.1467 92.72 29.16C93.36 30.1733 93.68 31.4 93.68 32.84C93.68 34.4133 93.3733 35.7733 92.76 36.92C92.1733 38.0667 91.36 38.96 90.32 39.6C89.28 40.2133 88.16 40.6667 86.96 40.96C85.7867 41.2533 84.52 41.4 83.16 41.4C80.7067 41.4 78.5867 41.0533 76.8 40.36C75.04 39.6667 74.16 38.76 74.16 37.64C74.16 36.8133 74.3867 36.1467 74.84 35.64C75.2933 35.1333 76.0667 34.5867 77.16 34C77.8267 34.9333 78.8267 35.72 80.16 36.36C81.4933 36.9733 82.7867 37.28 84.04 37.28C85.1067 37.28 85.9733 37.0267 86.64 36.52C87.3067 36.0133 87.64 35.2267 87.64 34.16C87.64 33.1467 87.2 32.3333 86.32 31.72C85.4667 31.1067 84.4267 30.6133 83.2 30.24C81.9733 29.8667 80.7467 29.4267 79.52 28.92C78.2933 28.3867 77.24 27.52 76.36 26.32C75.5067 25.12 75.08 23.5733 75.08 21.68C75.08 20.32 75.3733 19.1333 75.96 18.12C76.5467 17.1067 77.3333 16.32 78.32 15.76C79.3333 15.1733 80.4267 14.7467 81.6 14.48C82.8 14.2133 84.0933 14.08 85.48 14.08C87.6667 14.08 89.5467 14.4 91.12 15.04C92.6933 15.68 93.48 16.5733 93.48 17.72C93.48 18.4133 93.1467 19.0667 92.48 19.68C91.84 20.2933 90.9333 20.76 89.76 21.08ZM106.115 21.6C108.088 21.6 109.795 22.0933 111.235 23.08C112.675 24.0667 113.395 25.5333 113.395 27.48C113.395 31.4267 110.568 33.4 104.915 33.4C104.408 33.4 103.488 33.3733 102.155 33.32C102.155 34.84 102.528 35.9467 103.275 36.64C104.048 37.3333 104.995 37.68 106.115 37.68C108.088 37.68 109.622 37.04 110.715 35.76C111.328 36.0533 111.822 36.4533 112.195 36.96C112.595 37.44 112.795 37.9333 112.795 38.44C112.795 39.24 112.315 39.88 111.355 40.36C110.422 40.84 109.502 41.1333 108.595 41.24C107.715 41.3467 106.862 41.4 106.035 41.4C103.102 41.4 100.702 40.6 98.835 39C96.9683 37.3733 96.035 34.9067 96.035 31.6C96.035 29.4133 96.5417 27.5467 97.555 26C98.595 24.4267 99.8483 23.3067 101.315 22.64C102.808 21.9467 104.408 21.6 106.115 21.6ZM105.795 25.4C104.835 25.4 103.995 25.84 103.275 26.72C102.555 27.5733 102.182 28.84 102.155 30.52C102.902 30.4667 103.422 30.4267 103.715 30.4C104.035 30.3467 104.475 30.2533 105.035 30.12C105.622 29.9867 106.035 29.8133 106.275 29.6C106.542 29.36 106.782 29.04 106.995 28.64C107.208 28.2133 107.315 27.6933 107.315 27.08C107.315 26.6533 107.168 26.2667 106.875 25.92C106.582 25.5733 106.222 25.4 105.795 25.4ZM119.683 28.44C117.336 28.0133 116.163 27.0133 116.163 25.44C116.163 24.3733 116.923 23.4667 118.443 22.72C119.989 21.9733 121.843 21.6 124.003 21.6C126.803 21.6 128.869 22.1333 130.203 23.2C131.536 24.2667 132.203 26.04 132.203 28.52C132.203 28.7333 132.189 29.52 132.163 30.88C132.136 32.24 132.123 33.2533 132.123 33.92C132.123 36.9867 132.376 39.28 132.883 40.8C131.709 41.12 130.669 41.28 129.763 41.28C127.843 41.28 126.723 40.5067 126.403 38.96C125.763 39.7067 124.936 40.3067 123.923 40.76C122.936 41.1867 121.936 41.4 120.923 41.4C119.456 41.4 118.216 40.9333 117.202 40C116.216 39.04 115.723 37.6267 115.723 35.76C115.723 34.2667 116.016 33.1733 116.603 32.48C117.216 31.7867 118.043 31.2667 119.083 30.92C121.109 30.28 123.509 29.88 126.283 29.72C126.283 28.0933 126.096 26.96 125.723 26.32C125.376 25.6533 124.629 25.32 123.483 25.32C122.816 25.32 122.096 25.6 121.323 26.16C120.576 26.72 120.029 27.48 119.683 28.44ZM126.243 32.6C125.443 32.7333 124.829 32.8533 124.403 32.96C123.976 33.0667 123.509 33.24 123.003 33.48C122.523 33.6933 122.176 33.9867 121.963 34.36C121.776 34.7067 121.683 35.1467 121.683 35.68C121.683 36.3467 121.843 36.8533 122.163 37.2C122.483 37.52 122.883 37.68 123.363 37.68C124.483 37.68 125.416 37.3467 126.163 36.68C126.136 36.44 126.123 36.04 126.123 35.48C126.123 34.52 126.163 33.56 126.243 32.6ZM136.408 32.04V23.76C136.408 20.8267 136.288 17.8 136.048 14.68C137.061 14.4667 138.115 14.36 139.208 14.36C140.221 14.36 141.075 14.5333 141.768 14.88C142.488 15.2267 142.848 15.7733 142.848 16.52C142.848 16.6533 142.795 17.72 142.688 19.72C142.608 21.6933 142.568 23.36 142.568 24.72V32.56C142.568 34.6133 142.675 36.0667 142.888 36.92C144.061 36.9733 145.021 37 145.768 37C150.115 37 152.915 36.6933 154.168 36.08C154.488 36.88 154.648 37.8 154.648 38.84C154.648 39.7467 154.288 40.3467 153.568 40.64C152.875 40.9333 151.475 41.08 149.368 41.08C142.995 41.08 139.301 41.0533 138.288 41C137.515 40.9733 136.995 40.7867 136.728 40.44C136.461 40.0933 136.328 39.52 136.328 38.72C136.328 37.8133 136.341 36.6133 136.368 35.12C136.395 33.6 136.408 32.5733 136.408 32.04ZM159.761 20.2C158.747 20.2 157.881 19.8533 157.161 19.16C156.467 18.44 156.121 17.5333 156.121 16.44C156.121 15.4 156.494 14.52 157.241 13.8C157.987 13.08 158.854 12.72 159.841 12.72C160.827 12.72 161.667 13.08 162.361 13.8C163.081 14.52 163.441 15.4 163.441 16.44C163.441 17.5067 163.067 18.4 162.321 19.12C161.574 19.84 160.721 20.2 159.761 20.2ZM159.841 21.88C160.854 21.88 161.641 22.0533 162.201 22.4C162.761 22.7467 163.041 23.4267 163.041 24.44C163.041 24.6 162.987 25.7733 162.881 27.96C162.801 30.1467 162.761 31.7867 162.761 32.88C162.761 36.6667 162.987 39.24 163.441 40.6C162.321 40.9467 161.214 41.12 160.121 41.12C158.867 41.12 157.987 40.9067 157.481 40.48C157.001 40.0267 156.761 39.3733 156.761 38.52C156.761 38.0933 156.774 37.0933 156.801 35.52C156.854 33.9467 156.881 32.6933 156.881 31.76C156.881 27.9467 156.787 24.8267 156.601 22.4C157.614 22.0533 158.694 21.88 159.841 21.88ZM181.314 14.48C181.314 15.36 180.847 16.2933 179.914 17.28C179.247 16.5867 178.327 16.24 177.154 16.24C175.954 16.24 175.141 16.5867 174.714 17.28C174.314 17.9733 174.114 19.0667 174.114 20.56V22.08C176.487 22.0267 178.247 21.92 179.394 21.76C179.581 22.1333 179.674 22.68 179.674 23.4C179.674 24.28 179.421 24.8933 178.914 25.24C178.434 25.56 177.701 25.7333 176.714 25.76C175.461 25.7867 174.594 25.8 174.114 25.8V33.52C174.114 36.8 174.354 39.2267 174.834 40.8C173.927 41.0133 172.954 41.12 171.914 41.12C170.501 41.12 169.527 40.96 168.994 40.64C168.461 40.32 168.194 39.7867 168.194 39.04C168.194 38.7467 168.207 37.08 168.234 34.04C168.261 31 168.274 28.2667 168.274 25.84C167.767 25.84 166.794 25.92 165.354 26.08C165.141 25.52 165.034 24.92 165.034 24.28C165.034 22.7867 166.114 22.04 168.274 22.04C168.274 20.84 168.327 19.8133 168.434 18.96C168.567 18.08 168.807 17.2133 169.154 16.36C169.501 15.48 169.981 14.7733 170.594 14.24C171.207 13.68 172.021 13.24 173.034 12.92C174.074 12.5733 175.314 12.4 176.754 12.4C179.794 12.4 181.314 13.0933 181.314 14.48ZM191.623 21.6C193.596 21.6 195.303 22.0933 196.743 23.08C198.183 24.0667 198.903 25.5333 198.903 27.48C198.903 31.4267 196.076 33.4 190.423 33.4C189.916 33.4 188.996 33.3733 187.663 33.32C187.663 34.84 188.036 35.9467 188.783 36.64C189.556 37.3333 190.503 37.68 191.623 37.68C193.596 37.68 195.129 37.04 196.223 35.76C196.836 36.0533 197.329 36.4533 197.703 36.96C198.103 37.44 198.303 37.9333 198.303 38.44C198.303 39.24 197.823 39.88 196.863 40.36C195.929 40.84 195.009 41.1333 194.103 41.24C193.223 41.3467 192.369 41.4 191.543 41.4C188.609 41.4 186.209 40.6 184.343 39C182.476 37.3733 181.543 34.9067 181.543 31.6C181.543 29.4133 182.049 27.5467 183.063 26C184.103 24.4267 185.356 23.3067 186.823 22.64C188.316 21.9467 189.916 21.6 191.623 21.6ZM191.303 25.4C190.343 25.4 189.503 25.84 188.783 26.72C188.063 27.5733 187.689 28.84 187.663 30.52C188.409 30.4667 188.929 30.4267 189.223 30.4C189.543 30.3467 189.983 30.2533 190.543 30.12C191.129 29.9867 191.543 29.8133 191.783 29.6C192.049 29.36 192.289 29.04 192.503 28.64C192.716 28.2133 192.823 27.6933 192.823 27.08C192.823 26.6533 192.676 26.2667 192.383 25.92C192.089 25.5733 191.729 25.4 191.303 25.4Z" fill="#195E7B"/>
<defs>
<linearGradient id="paint0_linear_0_1" x1="50.0867" y1="62.6" x2="-1.13379" y2="28.828" gradientUnits="userSpaceOnUse">
<stop stop-color="#317074"/>
<stop offset="1" stop-color="#034C82"/>
</linearGradient>
</defs>
</svg>
