<svg viewBox="0 0 175 39" fill="none" xmlns="http://www.w3.org/2000/svg">
<path d="M14.64 38.52C13.1147 38.52 11.5893 38.3987 10.064 38.156C8.53867 37.948 7.1 37.6187 5.748 37.168C4.396 36.6827 3.18267 36.0933 2.108 35.4C1.484 34.984 1.05067 34.4813 0.808 33.892C0.565333 33.3027 0.478667 32.7307 0.548 32.176C0.652 31.5867 0.877333 31.084 1.224 30.668C1.60533 30.2173 2.07333 29.94 2.628 29.836C3.18267 29.732 3.78933 29.888 4.448 30.304C5.97333 31.2053 7.58533 31.864 9.284 32.28C10.9827 32.696 12.768 32.904 14.64 32.904C17.3787 32.904 19.372 32.4533 20.62 31.552C21.868 30.616 22.492 29.42 22.492 27.964C22.492 26.7507 22.0413 25.7973 21.14 25.104C20.2733 24.4107 18.7653 23.8387 16.616 23.388L10.896 22.192C7.60267 21.4987 5.14133 20.3373 3.512 18.708C1.91733 17.044 1.12 14.86 1.12 12.156C1.12 10.4573 1.46667 8.91467 2.16 7.528C2.85333 6.14133 3.824 4.94533 5.072 3.94C6.35467 2.93467 7.86267 2.172 9.596 1.652C11.364 1.09733 13.3053 0.819998 15.42 0.819998C17.5 0.819998 19.476 1.08 21.348 1.6C23.22 2.12 24.9013 2.88266 26.392 3.888C26.9467 4.26933 27.3107 4.73733 27.484 5.292C27.692 5.84667 27.744 6.40133 27.64 6.956C27.536 7.476 27.2933 7.92667 26.912 8.308C26.5307 8.68933 26.0453 8.91467 25.456 8.984C24.9013 9.05333 24.26 8.88 23.532 8.464C22.2493 7.736 20.9493 7.216 19.632 6.904C18.3147 6.592 16.8933 6.436 15.368 6.436C13.7733 6.436 12.404 6.66133 11.26 7.112C10.116 7.56266 9.232 8.204 8.608 9.036C8.01867 9.83333 7.724 10.7867 7.724 11.896C7.724 13.144 8.14 14.1493 8.972 14.912C9.804 15.64 11.2253 16.212 13.236 16.628L18.904 17.824C22.336 18.552 24.884 19.696 26.548 21.256C28.2467 22.816 29.096 24.896 29.096 27.496C29.096 29.16 28.7493 30.668 28.056 32.02C27.3973 33.372 26.4267 34.5333 25.144 35.504C23.896 36.4747 22.388 37.22 20.62 37.74C18.852 38.26 16.8587 38.52 14.64 38.52ZM46.7167 38.52C43.8394 38.52 41.3607 37.9827 39.2807 36.908C37.2007 35.8333 35.5887 34.308 34.4447 32.332C33.3354 30.356 32.7807 28.016 32.7807 25.312C32.7807 22.6773 33.318 20.372 34.3927 18.396C35.502 16.42 37.01 14.8773 38.9167 13.768C40.858 12.624 43.0594 12.052 45.5207 12.052C47.3234 12.052 48.9354 12.3467 50.3567 12.936C51.8127 13.5253 53.0434 14.3747 54.0487 15.484C55.0887 16.5933 55.8687 17.9453 56.3887 19.54C56.9434 21.1 57.2207 22.868 57.2207 24.844C57.2207 25.468 56.9954 25.9533 56.5447 26.3C56.1287 26.612 55.522 26.768 54.7247 26.768H38.0327V23.024H52.6447L51.8127 23.804C51.8127 22.2093 51.57 20.8747 51.0847 19.8C50.634 18.7253 49.958 17.9107 49.0567 17.356C48.19 16.7667 47.098 16.472 45.7807 16.472C44.3247 16.472 43.0767 16.8187 42.0367 17.512C41.0314 18.1707 40.2514 19.124 39.6967 20.372C39.1767 21.5853 38.9167 23.0413 38.9167 24.74V25.104C38.9167 27.9467 39.5754 30.0787 40.8927 31.5C42.2447 32.8867 44.2207 33.58 46.8207 33.58C47.722 33.58 48.7274 33.476 49.8367 33.268C50.9807 33.0253 52.0554 32.6267 53.0607 32.072C53.7887 31.656 54.43 31.4827 54.9847 31.552C55.5394 31.5867 55.9727 31.7773 56.2847 32.124C56.6314 32.4707 56.8394 32.904 56.9087 33.424C56.978 33.9093 56.874 34.412 56.5967 34.932C56.354 35.452 55.9207 35.9027 55.2967 36.284C54.0834 37.0467 52.6794 37.6187 51.0847 38C49.5247 38.3467 48.0687 38.52 46.7167 38.52ZM70.7403 38.52C68.9029 38.52 67.2563 38.1733 65.8003 37.48C64.3789 36.752 63.2523 35.7813 62.4203 34.568C61.6229 33.3547 61.2243 31.9853 61.2243 30.46C61.2243 28.588 61.7096 27.1147 62.6803 26.04C63.6509 24.9307 65.2283 24.1333 67.4123 23.648C69.5963 23.1627 72.5256 22.92 76.2003 22.92H78.8003V26.664H76.2523C74.1029 26.664 72.3869 26.768 71.1043 26.976C69.8216 27.184 68.9029 27.548 68.3483 28.068C67.8283 28.5533 67.5683 29.2467 67.5683 30.148C67.5683 31.292 67.9669 32.228 68.7643 32.956C69.5616 33.684 70.6709 34.048 72.0923 34.048C73.2363 34.048 74.2416 33.788 75.1083 33.268C76.0096 32.7133 76.7203 31.968 77.2403 31.032C77.7603 30.096 78.0203 29.0213 78.0203 27.808V21.828C78.0203 20.0947 77.6389 18.8467 76.8763 18.084C76.1136 17.3213 74.8309 16.94 73.0283 16.94C72.0229 16.94 70.9309 17.0613 69.7523 17.304C68.6083 17.5467 67.3949 17.9627 66.1123 18.552C65.4536 18.864 64.8643 18.9507 64.3443 18.812C63.8589 18.6733 63.4776 18.396 63.2003 17.98C62.9229 17.5293 62.7843 17.044 62.7843 16.524C62.7843 16.004 62.9229 15.5013 63.2003 15.016C63.4776 14.496 63.9456 14.1147 64.6043 13.872C66.1989 13.2133 67.7243 12.7453 69.1803 12.468C70.6709 12.1907 72.0229 12.052 73.2363 12.052C75.7323 12.052 77.7776 12.4333 79.3723 13.196C81.0016 13.9587 82.2149 15.12 83.0123 16.68C83.8096 18.2053 84.2083 20.1813 84.2083 22.608V35.088C84.2083 36.1627 83.9483 36.9947 83.4283 37.584C82.9083 38.1387 82.1629 38.416 81.1923 38.416C80.2216 38.416 79.4589 38.1387 78.9043 37.584C78.3843 36.9947 78.1243 36.1627 78.1243 35.088V32.592H78.5403C78.2976 33.8053 77.8123 34.8627 77.0843 35.764C76.3909 36.6307 75.5069 37.3067 74.4323 37.792C73.3576 38.2773 72.1269 38.52 70.7403 38.52ZM94.8098 38C93.7351 38 92.9031 37.7053 92.3138 37.116C91.7244 36.492 91.4298 35.6427 91.4298 34.568V4.564C91.4298 3.45467 91.7071 2.62267 92.2618 2.068C92.8511 1.47867 93.6831 1.184 94.7578 1.184C95.8324 1.184 96.6471 1.47867 97.2018 2.068C97.7911 2.62267 98.0858 3.45467 98.0858 4.564V32.332H113.166C114.102 32.332 114.812 32.5747 115.298 33.06C115.818 33.5453 116.078 34.2387 116.078 35.14C116.078 36.0413 115.818 36.752 115.298 37.272C114.812 37.7573 114.102 38 113.166 38H94.8098ZM123.229 38.364C122.189 38.364 121.392 38.052 120.837 37.428C120.282 36.804 120.005 35.9373 120.005 34.828V15.744C120.005 14.6 120.282 13.7333 120.837 13.144C121.392 12.52 122.189 12.208 123.229 12.208C124.269 12.208 125.066 12.52 125.621 13.144C126.21 13.7333 126.505 14.6 126.505 15.744V34.828C126.505 35.9373 126.228 36.804 125.673 37.428C125.118 38.052 124.304 38.364 123.229 38.364ZM123.229 7.372C122.016 7.372 121.062 7.07733 120.369 6.488C119.71 5.864 119.381 5.01467 119.381 3.94C119.381 2.83066 119.71 1.98133 120.369 1.392C121.062 0.802665 122.016 0.507999 123.229 0.507999C124.477 0.507999 125.43 0.802665 126.089 1.392C126.748 1.98133 127.077 2.83066 127.077 3.94C127.077 5.01467 126.748 5.864 126.089 6.488C125.43 7.07733 124.477 7.372 123.229 7.372ZM138.251 38.416C137.211 38.416 136.396 38.1387 135.807 37.584C135.252 36.9947 134.975 36.1627 134.975 35.088V17.46H132.583C131.751 17.46 131.11 17.252 130.659 16.836C130.208 16.3853 129.983 15.7787 129.983 15.016C129.983 14.2187 130.208 13.612 130.659 13.196C131.11 12.78 131.751 12.572 132.583 12.572H136.847L134.975 14.288V12.52C134.975 8.94933 135.876 6.28 137.679 4.512C139.482 2.70933 142.082 1.652 145.479 1.34L147.247 1.184C147.94 1.11467 148.495 1.236 148.911 1.548C149.327 1.82533 149.604 2.20667 149.743 2.692C149.882 3.14267 149.899 3.61067 149.795 4.096C149.691 4.58133 149.466 5.01467 149.119 5.396C148.807 5.74266 148.391 5.93333 147.871 5.968L147.143 6.02C145.167 6.15867 143.728 6.66133 142.827 7.528C141.926 8.39466 141.475 9.712 141.475 11.48V13.404L140.643 12.572H145.895C146.727 12.572 147.368 12.78 147.819 13.196C148.27 13.612 148.495 14.2187 148.495 15.016C148.495 15.7787 148.27 16.3853 147.819 16.836C147.368 17.252 146.727 17.46 145.895 17.46H141.475V35.088C141.475 37.3067 140.4 38.416 138.251 38.416ZM164.072 38.52C161.195 38.52 158.716 37.9827 156.636 36.908C154.556 35.8333 152.944 34.308 151.8 32.332C150.691 30.356 150.136 28.016 150.136 25.312C150.136 22.6773 150.673 20.372 151.748 18.396C152.857 16.42 154.365 14.8773 156.272 13.768C158.213 12.624 160.415 12.052 162.876 12.052C164.679 12.052 166.291 12.3467 167.712 12.936C169.168 13.5253 170.399 14.3747 171.404 15.484C172.444 16.5933 173.224 17.9453 173.744 19.54C174.299 21.1 174.576 22.868 174.576 24.844C174.576 25.468 174.351 25.9533 173.9 26.3C173.484 26.612 172.877 26.768 172.08 26.768H155.388V23.024H170L169.168 23.804C169.168 22.2093 168.925 20.8747 168.44 19.8C167.989 18.7253 167.313 17.9107 166.412 17.356C165.545 16.7667 164.453 16.472 163.136 16.472C161.68 16.472 160.432 16.8187 159.392 17.512C158.387 18.1707 157.607 19.124 157.052 20.372C156.532 21.5853 156.272 23.0413 156.272 24.74V25.104C156.272 27.9467 156.931 30.0787 158.248 31.5C159.6 32.8867 161.576 33.58 164.176 33.58C165.077 33.58 166.083 33.476 167.192 33.268C168.336 33.0253 169.411 32.6267 170.416 32.072C171.144 31.656 171.785 31.4827 172.34 31.552C172.895 31.5867 173.328 31.7773 173.64 32.124C173.987 32.4707 174.195 32.904 174.264 33.424C174.333 33.9093 174.229 34.412 173.952 34.932C173.709 35.452 173.276 35.9027 172.652 36.284C171.439 37.0467 170.035 37.6187 168.44 38C166.88 38.3467 165.424 38.52 164.072 38.52Z" fill="url(#paint0_linear_806_2871)"/>
<defs>
<linearGradient id="paint0_linear_806_2871" x1="166.673" y1="56" x2="78.1598" y2="-43.9672" gradientUnits="userSpaceOnUse">
<stop stop-color="#317470"/>
<stop offset="1" stop-color="#2C5776"/>
</linearGradient>
</defs>
</svg>
